<?xml version="1.0" encoding="utf-8"?>
<!-- Generator: Adobe Illustrator 23.1.0, SVG Export Plug-In . SVG Version: 6.00 Build 0)  -->
<svg version="1.1" id="Layer_1" xmlns="http://www.w3.org/2000/svg" xmlns:xlink="http://www.w3.org/1999/xlink" x="0px" y="0px"
	 viewBox="0 0 233.6 233" style="enable-background:new 0 0 233.6 233;" xml:space="preserve">
<style type="text/css">
	.st0{fill:#5E5E5E;}
</style>
<g>
	<path class="st0" d="M130.3,98.7l7.9-3.7c0.1,0,0.1-0.1,0.2-0.1c1.4-0.8,2.3-2.3,2.3-4c0-2.5-2-4.6-4.6-4.6c0,0,0,0-0.1,0
		c0,0,0,0,0,0L128,87c-1.6,0.1-2.9,1.1-3.6,2.6l-1.3,2.9c-0.7-1.5-1.3-2.9-1.9-4.3c-11.7-27.1-13-27.9-48.5-27.9c0,0,0,0,0,0
		c-35.5,0-36.9,0.8-48.5,27.9c-0.6,1.4-1.2,2.8-1.9,4.3l-1.3-2.9c-0.6-1.5-2-2.4-3.6-2.6l-7.9-0.7c0,0,0,0,0,0c0,0,0,0-0.1,0
		c-2.5,0-4.6,2-4.6,4.6c0,1.7,1,3.2,2.3,4c0.1,0,0.1,0.1,0.2,0.1l7.9,3.7c-3,2-5.5,4.7-6.5,7.8c-3.4,10.6-3.4,21.7,0,32.1
		c0.7,2.2,2.3,4.1,4.3,5.8v10.3c0,1.9,1.5,3.4,3.4,3.4h17.5c1.9,0,3.4-1.5,3.4-3.4v-6.2c23.6,0,47.1,0,70.7,0v6.2
		c0,1.9,1.5,3.4,3.4,3.4H129c1.9,0,3.4-1.5,3.4-3.4v-10.3c2-1.6,3.6-3.6,4.3-5.8c3.4-10.4,3.4-21.4,0-32.1
		C135.7,103.4,133.2,100.7,130.3,98.7z M38.6,125.3c-0.4,0-6.9,0.3-12.7,0.3c-3.1,0-5.9-0.1-7.7-0.3c-1.6-0.2-2.7-0.9-3.3-2
		c-1.4-2.5,0.2-6.3,1.1-8.4c0.5-1.1,1.7-4.1,5.4-4.8c7.6-1.5,14.5,0.8,19,2.7c2.9,1.2,4.6,3.7,4.6,6.6
		C44.9,122.9,42.2,125.3,38.6,125.3z M28,95.3c0.7-1.6,1.4-3.2,2-4.6c5.3-12.3,8-18.4,12.8-21.2c5-2.9,13.9-2.9,30-2.9
		c16.1,0,25,0,30,2.9c4.8,2.7,7.5,8.9,12.8,21.2c0.6,1.5,1.3,3,2,4.6C87.7,93.7,57.9,93.7,28,95.3z M100.8,119.4
		c0-2.9,1.7-5.4,4.6-6.6c4.5-1.9,11.4-4.2,19-2.7c3.6,0.7,4.9,3.7,5.4,4.8c0.9,2.1,2.5,6,1.1,8.4c-0.6,1.1-1.8,1.8-3.3,2
		c-1.7,0.2-4.6,0.3-7.7,0.3c-5.9,0-12.4-0.3-12.7-0.3C103.4,125.3,100.8,122.9,100.8,119.4z"/>
	<g>
		<g>
			<path class="st0" d="M173.9,98.7l7.9-3.7c0.1,0,0.1-0.1,0.2-0.1c1.4-0.8,2.3-2.3,2.3-4c0-2.5-2-4.6-4.6-4.6c0,0,0,0-0.1,0
				c0,0,0,0,0,0l-7.9,0.7c-1.6,0.1-2.9,1.1-3.6,2.6l-1.3,2.9c-0.7-1.5-1.3-2.9-1.9-4.3c-11.7-27.1-13-27.9-48.5-27.9h0
				c-3.7,0-7.1,0-10.1,0.1c3,1.4,5.5,3.4,7.7,6.2c0.8,0,1.6,0,2.4,0c16.1,0,25,0,30,2.9c4.8,2.7,7.5,8.9,12.8,21.2
				c0.6,1.5,1.3,3,2,4.6c-6-0.3-12.1-0.5-18.1-0.7c-0.7,1.3-1.7,2.4-2.9,3.2l-0.6,0.4l-3,1.4c1.6,1.8,2.8,3.8,3.5,5.8
				c3.7,11.4,3.7,23.2,0,34.3c-0.8,2.2-2.2,4.4-4.1,6.2v2.6h15.9v6.2c0,1.9,1.5,3.4,3.4,3.4h17.5c1.9,0,3.4-1.5,3.4-3.4v-10.3
				c2-1.6,3.6-3.6,4.3-5.8c3.4-10.4,3.4-21.4,0-32.1C179.4,103.4,176.9,100.7,173.9,98.7z M174.5,123.4c-0.6,1.1-1.8,1.8-3.3,2
				c-1.7,0.2-4.6,0.3-7.7,0.3c-5.9,0-12.4-0.3-12.7-0.3c-3.6,0-6.3-2.5-6.3-5.9c0-2.9,1.7-5.4,4.6-6.6c4.5-1.9,11.4-4.2,19-2.7
				c3.6,0.7,4.9,3.7,5.4,4.8C174.3,117,175.9,120.9,174.5,123.4z"/>
		</g>
	</g>
	<g>
		<g>
			<path class="st0" d="M217.6,98.7l7.9-3.7c0.1,0,0.1-0.1,0.2-0.1c1.4-0.8,2.3-2.3,2.3-4c0-2.5-2-4.6-4.6-4.6c0,0,0,0-0.1,0
				c0,0,0,0,0,0l-7.9,0.7c-1.6,0.1-2.9,1.1-3.6,2.6l-1.3,2.9c-0.7-1.5-1.3-2.9-1.9-4.3c-11.7-27.1-13-27.9-48.5-27.9h0
				c-3.7,0-7.1,0-10.1,0.1c3,1.4,5.5,3.4,7.7,6.2c0.8,0,1.6,0,2.4,0c16.1,0,25,0,30,2.9c4.8,2.7,7.5,8.9,12.8,21.2
				c0.6,1.5,1.3,3,2,4.6c-6-0.3-12.1-0.5-18.1-0.7c-0.7,1.3-1.7,2.4-2.9,3.2l-0.6,0.4l-3,1.4c1.6,1.8,2.8,3.8,3.5,5.8
				c3.7,11.4,3.7,23.2,0,34.3c-0.8,2.2-2.2,4.4-4.1,6.2v2.6h15.9v6.2c0,1.9,1.5,3.4,3.4,3.4h17.5c1.9,0,3.4-1.5,3.4-3.4v-10.3
				c2-1.6,3.6-3.6,4.3-5.8c3.4-10.4,3.4-21.4,0-32.1C223.1,103.4,220.6,100.7,217.6,98.7z M218.2,123.4c-0.6,1.1-1.8,1.8-3.3,2
				c-1.7,0.2-4.6,0.3-7.7,0.3c-5.9,0-12.4-0.3-12.7-0.3c-3.6,0-6.3-2.5-6.3-5.9c0-2.9,1.7-5.4,4.6-6.6c4.5-1.9,11.4-4.2,19-2.7
				c3.6,0.7,4.9,3.7,5.4,4.8C218,117,219.6,120.9,218.2,123.4z"/>
		</g>
	</g>
</g>
</svg>
