<?xml version="1.0" encoding="utf-8"?>
<!-- Generator: Adobe Illustrator 23.1.0, SVG Export Plug-In . SVG Version: 6.00 Build 0)  -->
<svg version="1.1" id="Layer_1" xmlns="http://www.w3.org/2000/svg" xmlns:xlink="http://www.w3.org/1999/xlink" x="0px" y="0px"
	 viewBox="0 0 100 125" style="enable-background:new 0 0 100 125;" xml:space="preserve">
<style type="text/css">
	.st0{fill-rule:evenodd;clip-rule:evenodd;}
</style>
<title>Artboard 1 Copy 180</title>
<desc>Created with Sketch.</desc>
<g>
	<g>
		<path class="st0" d="M77,84.1v-6.3c0-1.7-1.3-3-3-3s-3,1.3-3,3v7.4c-5.2,0.8-11.4,1.4-18,1.6V73c0.1-0.1,0.2-0.2,0.4-0.4l14-17.7
			c13.7,4,18.5,8.4,18.7,26.5C84.7,82.1,81.5,83.1,77,84.1 M14,81.3c0.1-15.8,3-22,18.7-26.5l14,17.7c0.1,0.1,0.2,0.2,0.4,0.4v13.8
			c-5.8-0.1-11.2-0.6-16-1.3v-7.7c0-1.7-1.3-3-3-3s-3,1.3-3,3v6.7C19.5,83.4,15.5,82.2,14,81.3 M55.6,60.1L50,67.2l-5.6-7.1
			c1.7,0.5,3.5,0.8,5.6,0.8C52.1,60.9,53.9,60.6,55.6,60.1 M69,49.1c-0.6-0.2-1.3-0.3-1.9-0.3c-0.1,0-0.2,0-0.2,0
			c-0.9-0.3-1.9-0.1-2.7,0.5c-1.3,0.5-2.6,1.2-4,2c-2.7,1.6-5.8,3.4-10.2,3.4c-4.4,0-7.4-1.9-10.1-3.5c-1.6-1-3.1-1.9-4.7-2.3
			c-0.5-0.2-1-0.3-1.6-0.3c-0.1,0-0.3,0-0.4,0c-0.6,0-1.2,0.1-1.8,0.2C11.5,54.6,8,64.2,8,82.4c0,2.5,1.8,5.3,14.6,7.8
			C31,91.9,41,93,50.1,93h0.3c9.1,0,19-1.1,27.2-2.8C90.2,87.6,92,84.9,92,82.4C92,64.4,88.6,54.8,69,49.1"/>
		<path class="st0" d="M50,7c-11.6,0-21,9.4-21,21c0,11.6,9.4,21,21,21c11.6,0,21-9.4,21-21C71,16.4,61.6,7,50,7 M50,13
			c8.3,0,15,6.7,15,15s-6.7,15-15,15s-15-6.7-15-15S41.7,13,50,13"/>
	</g>
</g>
</svg>
