<?xml version="1.0" encoding="utf-8"?>
<!-- Generator: Adobe Illustrator 23.1.0, SVG Export Plug-In . SVG Version: 6.00 Build 0)  -->
<svg version="1.1" xmlns="http://www.w3.org/2000/svg" xmlns:xlink="http://www.w3.org/1999/xlink" x="0px" y="0px"
	 viewBox="0 0 100 125" style="enable-background:new 0 0 100 125;" xml:space="preserve">
<g id="Layer_2">
</g>
<g id="Layer_1">
	<g>
		<path d="M5273.1,2400.1v-2c0-2.8-5-4-9.7-4s-9.7,1.3-9.7,4v2c0,1.8,0.7,3.6,2,4.9l5,4.9c0.3,0.3,0.4,0.6,0.4,1v6.4
			c0,0.4,0.2,0.7,0.6,0.8l2.9,0.9c0.5,0.1,1-0.2,1-0.8v-7.2c0-0.4,0.2-0.7,0.4-1l5.1-5C5272.4,2403.7,5273.1,2401.9,5273.1,2400.1z
			 M5263.4,2400c-4.8,0-7.4-1.3-7.5-1.8l0,0c0.1-0.5,2.7-1.8,7.5-1.8s7.3,1.3,7.5,1.8C5270.7,2398.7,5268.2,2400,5263.4,2400z"/>
		<path d="M5268.4,2410.3c-0.6,0-1,0.4-1,1s0.4,1,1,1h4.3c0.6,0,1-0.4,1-1s-0.4-1-1-1H5268.4z"/>
		<path d="M5272.7,2413.7h-4.3c-0.6,0-1,0.4-1,1s0.4,1,1,1h4.3c0.6,0,1-0.4,1-1C5273.7,2414.1,5273.3,2413.7,5272.7,2413.7z"/>
		<path d="M5272.7,2417h-4.3c-0.6,0-1,0.4-1,1s0.4,1,1,1h4.3c0.6,0,1-0.4,1-1C5273.7,2417.5,5273.3,2417,5272.7,2417z"/>
	</g>
	<g>
		<circle cx="13.7" cy="39.8" r="9.8"/>
		<path d="M38,56.4l-8.4,4.3c0,0-4.6-3.2-6.1-4.3c-0.9-0.7-3.7-2.9-6.4-3.8C14.2,51.6,6.5,51,4.4,56c-2.2,5.3-1.9,18.9-1.8,28.7
			c0,0.9,0.6,1.5,1.4,1.5c2.1,0,15.2,0,16.1,0c1,0,1.3-0.5,1.4-1.3c0.1-0.5,1-11.6,0.9-16.4c0-0.5,0-1.1,0-1.7l4.3,2.9
			c0.8,0.5,1.6,0.8,2.5,0.8c0.7,0,1.4-0.2,2-0.5L42,64.3c2.2-1.1,3.1-3.8,2-6C42.9,56.1,40.2,55.2,38,56.4z"/>
		<circle cx="86.3" cy="39.8" r="9.8"/>
		<path d="M95.6,55.9c-2.1-5-9.8-4.4-12.7-3.4c-2.7,0.9-5.4,3.1-6.4,3.8c-1.5,1.1-6.1,4.3-6.1,4.3L62,56.4c-2.2-1.1-4.9-0.2-6,2
			s-0.2,4.9,2,6l10.7,5.5c0.6,0.3,1.3,0.5,2,0.5c0.9,0,1.8-0.3,2.5-0.8l4.3-2.9c0,0.6,0,1.2,0,1.7c-0.1,4.9,0.9,15.9,0.9,16.4
			c0.1,0.8,0.5,1.3,1.4,1.3s14.1,0,16.1,0c0.9,0,1.4-0.7,1.4-1.5C97.5,74.8,97.9,61.2,95.6,55.9z"/>
		<path d="M69.3,33.2c0-10.6-8.6-19.3-19.3-19.3s-19.3,8.6-19.3,19.3c0,10.6,8.6,19.3,19.3,19.3S69.3,43.8,69.3,33.2z M51.6,29.4
			c0.3,0,0.5,0.2,0.5,0.5v1.8c0,0.3-0.2,0.5-0.5,0.5h-6v0.1c0,0.4-0.1,0.7-0.1,0.9c0,0.3,0,0.6,0.1,0.9v0.1h6c0.3,0,0.5,0.2,0.5,0.5
			v1.8c0,0.3-0.2,0.5-0.5,0.5h-5.2l0.1,0.2c1.1,1.9,3,3.1,4.9,3.1c1.4,0,2.7-0.6,3.8-1.6c0.2-0.2,0.5-0.2,0.7,0l2,1.8
			c0.1,0.1,0.2,0.2,0.2,0.4c0,0.1,0,0.3-0.1,0.4c-1.8,1.8-4.1,2.8-6.5,2.8c-3.9,0-7.5-2.7-8.9-6.8v-0.1h-2.2c-0.3,0-0.5-0.2-0.5-0.5
			v-1.8c0-0.3,0.2-0.5,0.5-0.5H42v-0.1c0-0.3,0-0.6,0-0.9c0-0.3,0-0.6,0-0.9v-0.1h-1.6c-0.3,0-0.5-0.2-0.5-0.5v-1.8
			c0-0.3,0.2-0.5,0.5-0.5h2.2v-0.1c1.4-4.1,5-6.8,8.9-6.8c2.4,0,4.7,1,6.5,2.8c0.1,0.1,0.1,0.2,0.1,0.4c0,0.1-0.1,0.3-0.2,0.4
			l-2,1.8c-0.2,0.2-0.5,0.2-0.7,0c-1.1-1.1-2.4-1.6-3.8-1.6c-1.9,0-3.8,1.2-4.9,3.1l-0.1,0.2h5.2V29.4z"/>
	</g>
</g>
</svg>
