<?xml version="1.0" encoding="utf-8"?>
<!-- Generator: Adobe Illustrator 22.0.0, SVG Export Plug-In . SVG Version: 6.00 Build 0)  -->
<svg version="1.1" id="Layer_1" xmlns="http://www.w3.org/2000/svg" xmlns:xlink="http://www.w3.org/1999/xlink" x="0px" y="0px"
	 viewBox="0 0 100 125" style="enable-background:new 0 0 100 125;" xml:space="preserve">
<style type="text/css">
	.st0{enable-background:new    ;}
	.st1{fill:#FFFFFF;}
</style>
<g id="Layer_2_1_">
</g>
<g class="st0">
	<path class="st1" d="M15.9,110.7c-0.6,0.3-1.8,0.6-3.5,0.6c-4.2,0-6.8-2.6-6.8-6.7c0-4.4,3.1-7,7.1-7c1.6,0,2.8,0.3,3.3,0.6
		l-0.5,1.9c-0.6-0.3-1.5-0.5-2.6-0.5c-2.7,0-4.7,1.7-4.7,4.9c0,2.9,1.7,4.8,4.7,4.8c1,0,2-0.2,2.7-0.5L15.9,110.7z"/>
	<path class="st1" d="M29.3,104.3c0,4.5-2.7,7-6.4,7c-3.8,0-6.2-2.9-6.2-6.8c0-4.1,2.6-7,6.4-7C27,97.6,29.3,100.5,29.3,104.3z
		 M19.3,104.5c0,2.7,1.4,4.9,3.7,4.9c2.4,0,3.7-2.2,3.7-5c0-2.5-1.3-4.9-3.7-4.9S19.3,101.7,19.3,104.5z"/>
	<path class="st1" d="M31.4,111.1V97.8h2.8l3.5,5.7c0.9,1.5,1.7,3,2.3,4.5l0,0c-0.2-1.8-0.2-3.5-0.2-5.5v-4.6H42v13.3h-2.5l-3.5-5.8
		c-0.9-1.5-1.7-3.1-2.4-4.6h-0.1c0.1,1.7,0.1,3.5,0.1,5.7v4.8h-2.2V111.1z"/>
	<path class="st1" d="M44.8,108.4c0.8,0.5,2,0.8,3.2,0.8c1.6,0,2.4-0.7,2.4-1.8c0-1-0.7-1.6-2.4-2.2c-2.2-0.8-3.6-2-3.6-3.9
		c0-2.2,1.8-3.8,4.7-3.8c1.4,0,2.5,0.3,3.2,0.7l-0.6,2c-0.5-0.3-1.4-0.6-2.7-0.6c-1.5,0-2.2,0.8-2.2,1.6c0,1,0.8,1.5,2.6,2.2
		c2.3,0.9,3.5,2,3.5,3.9c0,2.1-1.6,4-5.1,4c-1.4,0-2.9-0.4-3.6-0.8L44.8,108.4z"/>
	<path class="st1" d="M57.6,97.8v7.8c0,2.6,1.1,3.8,2.7,3.8c1.8,0,2.8-1.2,2.8-3.8v-7.8h2.4v7.6c0,4.1-2.1,5.9-5.3,5.9
		c-3.1,0-5.1-1.7-5.1-5.9v-7.6H57.6z"/>
	<path class="st1" d="M79.7,105.6c-0.1-1.7-0.2-3.8-0.2-5.6h-0.1c-0.4,1.6-1,3.4-1.6,5.1l-1.9,5.8H74l-1.8-5.7
		c-0.5-1.7-1-3.5-1.3-5.2l0,0c-0.1,1.7-0.1,3.8-0.2,5.7l-0.3,5.3H68l0.9-13.3h3.2l1.7,5.3c0.5,1.6,0.9,3.1,1.2,4.6h0.1
		c0.4-1.4,0.8-3.1,1.3-4.6l1.8-5.3h3.2l0.8,13.3h-2.4L79.7,105.6z"/>
	<path class="st1" d="M96.7,104.3c0,4.5-2.7,7-6.4,7c-3.8,0-6.2-2.9-6.2-6.8c0-4.1,2.6-7,6.4-7C94.3,97.6,96.7,100.5,96.7,104.3z
		 M86.7,104.5c0,2.7,1.4,4.9,3.7,4.9c2.4,0,3.7-2.2,3.7-5c0-2.5-1.3-4.9-3.7-4.9S86.7,101.7,86.7,104.5z"/>
</g>
<path class="st1" d="M34.1,80.9c0,2.2-1.8,4.1-4.1,4.1h-8.1c-2.2,0-4.1-1.8-4.1-4.1V55.7c0-2.2,1.8-4.1,4.1-4.1H30
	c2.2,0,4.1,1.8,4.1,4.1V80.9z"/>
<path class="st1" d="M58.4,80.9c0,2.2-1.8,4.1-4.1,4.1h-8.1c-2.2,0-4.1-1.8-4.1-4.1v-45c0-2.2,1.8-4.1,4.1-4.1h8.1
	c2.2,0,4.1,1.8,4.1,4.1V80.9z"/>
<path class="st1" d="M83.7,80.9c0,2.2-1.8,4.1-4.1,4.1h-8.1c-2.2,0-4.1-1.8-4.1-4.1V15.2c0-2.2,1.8-4.1,4.1-4.1h8.1
	c2.2,0,4.1,1.8,4.1,4.1V80.9z"/>
</svg>
