<?xml version="1.0" encoding="utf-8"?>
<!-- Generator: Adobe Illustrator 24.0.1, SVG Export Plug-In . SVG Version: 6.00 Build 0)  -->
<svg version="1.1" id="Layer_1" xmlns="http://www.w3.org/2000/svg" xmlns:xlink="http://www.w3.org/1999/xlink" x="0px" y="0px"
	 viewBox="0 0 100 125" style="enable-background:new 0 0 100 125;" xml:space="preserve">
<style type="text/css">
	.st0{fill:#FFFFFF;}
</style>
<g id="Layer_2_1_">
</g>
<g>
	<path class="st0" d="M60.2,28.6c0-5.6-4.5-10.1-10.1-10.1S39.9,23,39.9,28.6S44.4,38.7,50,38.7S60.2,34.2,60.2,28.6z M46.6,28.6
		c0-1.9,1.5-3.4,3.4-3.4s3.4,1.5,3.4,3.4S51.9,32,50,32C48.2,32,46.6,30.5,46.6,28.6z"/>
	<path class="st0" d="M60.2,53.5l8.7-12.6c4.9-7,5.5-16.1,1.4-23.6c-6-11.3-19.9-15.5-31-9.6c-4.1,2.2-7.4,5.5-9.5,9.5
		c-4,7.5-3.5,16.7,1.4,23.6l8.7,12.6C29.8,56,23,62,23,69.1C23,78.6,34.9,86,50,86s27-7.4,27-16.9C77.1,62,70.3,56,60.2,53.5z
		 M36.5,37.1c-5.1-7.3-3.2-17.4,4.1-22.5c2.8-1.9,6.1-2.9,9.4-2.9c8.9,0,16.2,7.2,16.2,16.1c0,3.3-1,6.5-2.9,9.2L50,56.4L36.5,37.1z
		 M50,79.3c-12,0-20.3-5.3-20.3-10.1c0-3.9,5.6-8.2,14.2-9.6l6.1,8.8l6.1-8.8c8.6,1.4,14.2,5.7,14.2,9.6C70.3,73.9,62,79.3,50,79.3z
		"/>
</g>
<path class="st0" d="M5,104.4h4.7v6.2c-0.8,0.2-1.5,0.4-2.2,0.5c-0.7,0.1-1.4,0.1-2.1,0.1c-1.8,0-3.2-0.5-4.1-1.6
	c-0.9-1.1-1.4-2.6-1.4-4.5c0-1.9,0.5-3.4,1.6-4.5C2.7,99.6,4.3,99,6.2,99c1.2,0,2.4,0.2,3.5,0.7l-0.8,2c-0.9-0.4-1.8-0.6-2.7-0.6
	c-1.1,0-2,0.4-2.6,1.1s-1,1.7-1,2.9c0,1.3,0.3,2.3,0.8,3c0.5,0.7,1.3,1,2.3,1c0.5,0,1.1-0.1,1.6-0.2v-2.5H5V104.4z"/>
<path class="st0" d="M18.7,111.1l-0.9-2.8h-4.3l-0.9,2.8H9.9l4.2-11.9h3.1l4.2,11.9H18.7z M17.2,106.1c-0.8-2.6-1.2-4-1.3-4.3
	c-0.1-0.3-0.2-0.6-0.2-0.8c-0.2,0.7-0.7,2.4-1.5,5.1H17.2z"/>
<path class="st0" d="M28.8,107.8c0,1.1-0.4,1.9-1.2,2.5c-0.8,0.6-1.8,0.9-3.2,0.9c-1.3,0-2.4-0.2-3.4-0.7v-2.3
	c0.8,0.4,1.5,0.6,2,0.8c0.6,0.1,1.1,0.2,1.5,0.2c0.6,0,1-0.1,1.3-0.3c0.3-0.2,0.4-0.5,0.4-0.9c0-0.2-0.1-0.4-0.2-0.6
	c-0.1-0.2-0.3-0.4-0.6-0.5c-0.3-0.2-0.8-0.4-1.5-0.8c-0.7-0.3-1.3-0.7-1.6-1c-0.4-0.3-0.7-0.7-0.9-1.1c-0.2-0.4-0.3-0.9-0.3-1.5
	c0-1,0.4-1.9,1.1-2.5c0.7-0.6,1.7-0.9,3-0.9c0.6,0,1.2,0.1,1.8,0.2c0.6,0.1,1.1,0.4,1.8,0.6l-0.8,2c-0.6-0.3-1.2-0.4-1.6-0.5
	c-0.4-0.1-0.8-0.2-1.2-0.2c-0.5,0-0.8,0.1-1.1,0.3s-0.4,0.5-0.4,0.9c0,0.2,0.1,0.4,0.2,0.6s0.3,0.3,0.5,0.5c0.2,0.2,0.8,0.4,1.6,0.8
	c1.1,0.5,1.9,1.1,2.3,1.6C28.6,106.3,28.8,107,28.8,107.8z"/>
<path class="st0" d="M40.6,105.1c0,2-0.5,3.5-1.5,4.5c-1,1.1-2.4,1.6-4.2,1.6c-1.8,0-3.2-0.5-4.2-1.6c-1-1.1-1.5-2.6-1.5-4.5
	c0-2,0.5-3.5,1.5-4.5c1-1,2.4-1.6,4.2-1.6c1.8,0,3.2,0.5,4.2,1.6C40.1,101.6,40.6,103.1,40.6,105.1z M31.9,105.1
	c0,1.3,0.3,2.3,0.8,3s1.3,1,2.3,1c2,0,3-1.3,3-4c0-2.7-1-4-3-4c-1,0-1.8,0.3-2.3,1C32.2,102.8,31.9,103.8,31.9,105.1z"/>
<path class="st0" d="M40.8,111.1V99.2h2.5v9.8h4.8v2.1H40.8z"/>
<path class="st0" d="M49,111.1V99.2h2.5v11.9H49z"/>
<path class="st0" d="M62.8,111.1h-3.2l-5.2-9h-0.1c0.1,1.6,0.2,2.7,0.2,3.4v5.6h-2.2V99.2h3.2l5.2,8.9h0.1c-0.1-1.5-0.1-2.6-0.1-3.3
	v-5.6h2.3V111.1z"/>
<path class="st0" d="M70.3,111.1h-6.8V99.2h6.8v2.1H66v2.6h4v2.1h-4v3.1h4.3V111.1z"/>
<path class="st0" d="M74.2,106.5v4.6h-2.5V99.2h3.5c1.6,0,2.8,0.3,3.6,0.9c0.8,0.6,1.2,1.5,1.2,2.7c0,0.7-0.2,1.3-0.6,1.9
	c-0.4,0.5-0.9,1-1.6,1.3c1.8,2.7,3,4.4,3.5,5.2h-2.8l-2.8-4.6H74.2z M74.2,104.5H75c0.8,0,1.4-0.1,1.8-0.4c0.4-0.3,0.6-0.7,0.6-1.3
	c0-0.6-0.2-1-0.6-1.2s-1-0.4-1.8-0.4h-0.8V104.5z"/>
<path class="st0" d="M89.9,111.1l-0.9-2.8h-4.3l-0.9,2.8h-2.7l4.2-11.9h3.1l4.2,11.9H89.9z M88.5,106.1c-0.8-2.6-1.2-4-1.3-4.3
	c-0.1-0.3-0.2-0.6-0.2-0.8c-0.2,0.7-0.7,2.4-1.5,5.1H88.5z"/>
<path class="st0" d="M100,107.8c0,1.1-0.4,1.9-1.2,2.5c-0.8,0.6-1.8,0.9-3.2,0.9c-1.3,0-2.4-0.2-3.4-0.7v-2.3c0.8,0.4,1.5,0.6,2,0.8
	c0.6,0.1,1.1,0.2,1.5,0.2c0.6,0,1-0.1,1.3-0.3c0.3-0.2,0.4-0.5,0.4-0.9c0-0.2-0.1-0.4-0.2-0.6c-0.1-0.2-0.3-0.4-0.6-0.5
	c-0.3-0.2-0.8-0.4-1.5-0.8c-0.7-0.3-1.3-0.7-1.6-1s-0.7-0.7-0.9-1.1c-0.2-0.4-0.3-0.9-0.3-1.5c0-1,0.4-1.9,1.1-2.5
	c0.7-0.6,1.7-0.9,3-0.9c0.6,0,1.2,0.1,1.8,0.2c0.6,0.1,1.1,0.4,1.8,0.6l-0.8,2c-0.6-0.3-1.2-0.4-1.6-0.5c-0.4-0.1-0.8-0.2-1.2-0.2
	c-0.5,0-0.8,0.1-1.1,0.3c-0.3,0.2-0.4,0.5-0.4,0.9c0,0.2,0.1,0.4,0.2,0.6c0.1,0.2,0.3,0.3,0.5,0.5c0.2,0.2,0.8,0.4,1.6,0.8
	c1.1,0.5,1.9,1.1,2.3,1.6C99.8,106.3,100,107,100,107.8z"/>
</svg>
