<?xml version="1.0" encoding="utf-8"?>
<!-- Generator: Adobe Illustrator 21.0.2, SVG Export Plug-In . SVG Version: 6.00 Build 0)  -->
<svg version="1.1" id="Camada_1" xmlns="http://www.w3.org/2000/svg" xmlns:xlink="http://www.w3.org/1999/xlink" x="0px" y="0px"
	 viewBox="0 0 351 336.5" style="enable-background:new 0 0 351 336.5;" xml:space="preserve">
<style type="text/css">
	.st0{fill:#FFFFFF;}
</style>
<g>
	<g>
		<g>
			<path class="st0" d="M296.3,119.5c0,4.3,0,8.7,0,13.1c0,10.9,0,21.8,0,32.7c0,14.3,0,28.6,0,42.8c0,14.5,0,29,0,43.4
				c0,11.5,0,23,0,34.5c0,5.3,0,10.7,0,16.1c0,0.1,0,0.2,0,0.2c0-2.1,0,1.6,0,0.7c0,0.9,0.4-1.2,0-0.4c-0.1,0.2-0.2,0.6-0.2,0.9
				c-0.1,0.8,0.7-1,0.1-0.4c-0.2,0.2-0.4,0.5-0.4,0.7c-0.4,0.7,0.9-0.8,0.2-0.4c-0.2,0.2-0.5,0.4-0.6,0.6c-0.4,0.4,1.2-0.8,0,0
				c-0.1,0-0.1,0.1-0.2,0.1c-0.5,0.3-0.5,0.3,0,0c0.1-0.1,0.3-0.1,0.4-0.2c-0.2,0.1-0.4,0.1-0.6,0.2c-1.6,0.4,1.2,0.1-0.5,0.1
				c-0.1,0-0.2,0-0.3,0c-0.1,0-0.2,0-0.4,0c-1.5,0-3.1,0-4.6,0c-7.6,0-15.2,0-22.8,0c-11.9,0-23.8,0-35.8,0c-14.3,0-28.6,0-42.9,0
				c-14.8,0-29.5,0-44.3,0c-13.3,0-26.6,0-39.9,0c-9.9,0-19.8,0-29.7,0c-4.5,0-9,0-13.5,0c-0.1,0-0.2,0-0.3,0l0,0c0,0-0.4,0-0.5,0
				c-1.2,0,0.4-0.1,0.4,0.1c0-0.1-0.7-0.2-0.9-0.2c-1.3-0.3,0.4,0.1,0.4,0.2l-0.7-0.4c-1.2-0.6,0.7,0.9,0,0c0,0.1-0.6-0.6-0.6-0.6
				c0.2-0.2,0.7,1.2,0.3,0.3c0,0.1-0.4-0.7-0.4-0.7c0.2-0.1,0.4,1.4,0.2,0.4c0,0.1-0.2-0.9-0.2-0.9c0.2,0,0.1,1.5,0.1,0.4
				c0-0.1,0-0.4,0-0.5s0-0.2,0-0.4c0-1.8,0-3.6,0-5.5c0-9,0-17.9,0-26.9c0-13.5,0-26.9,0-40.4c0-14.8,0-29.7,0-44.5
				c0-12.9,0-25.7,0-38.6c0-7.9,0-15.9,0-23.8c0-1.1,0-2.1,0-3.2c-1.1,1.9-2.2,3.8-3.3,5.7c8.1-6,16.2-12,24.3-17.9
				c5.3-3.9,10.7-7.8,16-11.8c10.1-7.4,20.2-14.9,30.3-22.3c11.7-8.6,23.5-17.3,35.3-25.9c6.5-4.8,13.2-9.3,19.5-14.4
				c0.1-0.1,0.2-0.1,0.3-0.2c-2.2,0-4.5,0-6.7,0c5.4,4,10.8,8,16.3,12c11.6,8.5,23.1,17,34.7,25.5c10.6,7.8,21.3,15.7,31.9,23.5
				c4.2,3.1,8.3,6.1,12.5,9.2c9.9,7.3,19.8,14.6,29.8,21.9c0.3,0.2,0.6,0.4,0.8,0.6c2.8,2.1,7.5,0.6,9.1-2.4
				c1.8-3.5,0.6-6.9-2.4-9.1c-9.2-6.7-18.3-13.5-27.5-20.2c-4.3-3.2-8.6-6.4-12.9-9.5c-10-7.4-20.1-14.8-30.2-22.2
				c-11.8-8.7-23.6-17.3-35.4-26.1c-6.5-4.8-12.9-9.9-19.6-14.5c-0.1-0.1-0.2-0.1-0.3-0.2c-1.7-1.3-5-1.3-6.7,0
				c-7.9,5.8-15.7,11.6-23.6,17.3c-14.6,10.8-29.3,21.5-43.9,32.3c-8.2,6.1-16.5,12.2-24.8,18.2c-10.3,7.6-20.6,15.2-30.9,22.7
				c-0.8,0.6-1.6,1.2-2.5,1.8c-2.1,1.5-3.2,3.2-3.3,6c0,0.8,0,1.6,0,2.4c0,4,0,8,0,12c0,14.9,0,29.7,0,44.6c0,18.6,0,37.2,0,55.8
				c0,15.9,0,31.8,0,47.7c0,6.8-0.2,13.7,0,20.5c0.2,8.5,6.9,15.2,15.4,15.3c0.4,0,0.9,0,1.3,0c2.9,0,5.8,0,8.7,0
				c12.1,0,24.3,0,36.5,0c17.5,0,34.9,0,52.4,0c18.6,0,37.3,0,55.9,0c16,0,32,0,48.1,0c9.4,0,18.8,0,28.3,0c3.9,0,7.6,0,11.1-2.3
				c4.6-2.9,7.3-7.9,7.4-13.4c0-0.9,0-1.7,0-2.5c0-10.8,0-21.6,0-32.4c0-17.6,0-35.1,0-52.7c0-18,0-35.9,0-53.9c0-12,0-24,0-36
				c0-1.7,0-3.4,0-5c0-3.5-3.1-6.8-6.7-6.7C299.3,113,296.3,115.8,296.3,119.5z"/>
		</g>
	</g>
	<g>
		<g>
			<path class="st0" d="M299.6,125.2c7.1,5.3,14.2,10.5,21.3,15.7c1.1,0.7,2.1,1.5,3.1,2.3c2.8,2.1,7.5,0.6,9.1-2.4
				c1.8-3.5,0.6-6.9-2.4-9.1c-7.1-5.3-14.2-10.5-21.3-15.7c-1.1-0.7-2.1-1.5-3.1-2.3c-2.8-2.1-7.5-0.6-9.1,2.4
				C295.4,119.6,296.6,123,299.6,125.2L299.6,125.2z"/>
		</g>
	</g>
	<g>
		<g>
			<path class="st0" d="M29.9,143.3c10.7-7.9,21.4-15.8,32.1-23.6c3.2-2.3,6.4-4.6,9.5-7c2.8-2.1,4.5-5.9,2.4-9.1
				c-1.8-2.8-6.1-4.6-9.1-2.4c-11.3,8.3-22.7,16.7-34,25c-2.5,1.9-5.1,3.8-7.7,5.7c-2.8,2.1-4.5,5.9-2.4,9.1
				C22.6,143.6,26.9,145.5,29.9,143.3L29.9,143.3z"/>
		</g>
	</g>
	<g>
		<g>
			<path class="st0" d="M210.2,190.2c0,4,0,8,0,12c0,9.6,0,19.2,0,28.8c0,11.7,0,23.3,0,34.9c0,10.1,0,20.1,0,30.2
				c0,4.9-0.2,9.9,0,14.7c0,0.1,0,0.1,0,0.2c2.2-2.2,4.4-4.4,6.7-6.7c-8.9,0-17.9,0-26.9,0c-14.3,0-28.6,0-42.8,0
				c-3.3,0-6.6,0-9.9,0c2.2,2.2,4.4,4.4,6.7,6.7c0-9.4,0-18.8,0-28.2c0-18.2,0-36.5,0-54.7c0-12.2,0-24.5,0-36.7c0-0.4,0-0.7,0-1.1
				c0-0.1,0-0.1,0-0.2c0-0.1,0-0.8,0-0.5c0-1.1,0.2,0.4-0.1,0.4c0,0,0.3-1.2,0.4-1.3c0.3-1.3-0.7,1.1,0,0c0-0.1,0.6-1.1,0.7-1.1
				c0.2,0.2-1,1.1-0.2,0.4c0.1-0.1,0.9-0.9,0.9-0.9c0.2,0.2-1.4,0.8-0.1,0.2c0.1,0,0.9-0.5,0.9-0.5c-0.3,0.1-0.5,0.2-0.8,0.4
				c0.3-0.1,0.5-0.2,0.8-0.3c0.1,0,0.9-0.2,0.9-0.2c-1.1,0.1-1.2,0.1-0.4,0.1c0.2,0,0.3,0,0.5,0c0.4,0,0.7,0,1.1,0
				c6.6,0,13.1,0,19.7,0c9.1,0,18.2,0,27.3,0c3,0,6,0,9,0c0.7,0,1.5,0,2.3,0c0.1,0,0.2,0,0.4,0c0.1,0,0.1,0,0.2,0
				c1.4,0-0.2,0.1-0.2-0.1c0,0,1.2,0.3,1.3,0.4c1.2,0.3-1.1-0.7,0,0c0.1,0,1.1,0.6,1.1,0.7c-0.1,0.1-1.2-1.2-0.4-0.2
				c0.1,0.1,0.9,0.9,0.9,0.9c-0.1,0.1-0.9-1.4-0.3-0.4c0,0.1,0.7,1.1,0.6,1.1c-0.3,0.1-0.4-1.4-0.2-0.4c0,0.1,0.4,1.3,0.4,1.3
				c0-0.3-0.1-0.6-0.1-0.9C210.2,189.6,210.2,189.9,210.2,190.2c0.1,3.5,3,6.8,6.7,6.7c3.5-0.2,6.7-2.9,6.7-6.7
				c-0.2-9.2-7.4-16.4-16.6-16.6c-1.5,0-3.1,0-4.6,0c-8.4,0-16.7,0-25,0c-8.4,0-16.7,0-25.1,0c-1.6,0-3.2,0-4.9,0
				c-8.9,0.2-15.9,6.9-16.6,15.7c-0.2,3,0,6,0,8.9c0,7,0,14,0,20.9c0,18.7,0,37.4,0,56c0,11.8-0.2,23.6,0,35.3c0,0.2,0,0.4,0,0.5
				c0,3.6,3.1,6.7,6.7,6.7c8.9,0,17.9,0,26.9,0c14.3,0,28.6,0,42.8,0c3.3,0,6.6,0,9.9,0c3.6,0,6.7-3.1,6.7-6.7c0-4,0-8,0-12
				c0-9.6,0-19.2,0-28.8c0-11.7,0-23.3,0-34.9c0-10.1,0-20.1,0-30.2c0-4.9,0.1-9.8,0-14.7c0-0.1,0-0.1,0-0.2c0-3.5-3.1-6.8-6.7-6.7
				C213.3,183.7,210.2,186.5,210.2,190.2z"/>
		</g>
	</g>
</g>
<g>
	<path class="st0" d="M201,235.4l49.2-79.1c0.1-0.2,0.2-0.5,0.4-0.8c25.4-41.4,12.4-95.6-29.1-121s-95.5-12.4-120.8,28.9
		c-17.2,28.2-17.2,63.8,0,92c0.1,0.2,0.2,0.5,0.4,0.7l47.4,79.5c-36.8,5.2-60.9,20.6-60.9,38.7c0,22.8,38.6,40.5,87.9,40.5
		s87.9-17.8,87.9-40.6C263.4,256,238.2,240.5,201,235.4z M109.4,151c-23-36.5-12.1-84.8,24.5-107.8s84.8-12.1,107.8,24.5
		c16,25.4,16,57.9,0,83.5c-0.1,0.2-0.2,0.5-0.4,0.8l-52.1,83.6l-1.9,3l-13,21.1l-64.4-107.6C109.8,151.8,109.7,151.4,109.4,151z
		 M175.4,305.2c-46.2,0-78.1-16.3-78.1-30.8c0-13.3,24.5-25.7,56.7-29.3l16,26.8c0.8,1.4,2.5,2.4,4.2,2.4l0,0c1.7,0,3.3-0.8,4.2-2.3
		l16.6-27.3c33,3.6,58.6,16.3,58.6,29.7C253.7,289,221.6,305.2,175.4,305.2z"/>
	<path class="st0" d="M207.5,109.7c0-17.6-14.2-32.1-32-32.1s-32.1,14.2-32.1,32s14.2,32.1,32,32.1h0.1
		C193.1,141.6,207.3,127.3,207.5,109.7z M153.3,109.7c0-12.2,9.9-22.2,22.1-22.2c12.2,0,22.2,9.9,22.2,22.1s-9.9,22.2-22.1,22.2l0,0
		C163.2,131.7,153.3,121.9,153.3,109.7z"/>
</g>
</svg>
