<?xml version="1.0" encoding="utf-8"?>
<!-- Generator: Adobe Illustrator 21.0.2, SVG Export Plug-In . SVG Version: 6.00 Build 0)  -->
<svg version="1.1" id="Camada_1" xmlns="http://www.w3.org/2000/svg" xmlns:xlink="http://www.w3.org/1999/xlink" x="0px" y="0px"
	 viewBox="0 0 233 239.5" style="enable-background:new 0 0 233 239.5;" xml:space="preserve">
<path d="M175.5,133.6l2.6-13.9l-2.6-13.9h-13.1c-1-3.1-2.2-6-3.7-8.8l9.3-9.3L160.1,76l-11.7-7.9l-9.3,9.3c-2.8-1.5-5.8-2.7-8.8-3.7
	v-13l-13.9-2.6l-13.9,2.6v13.1c-3.1,1-6,2.2-8.8,3.6l-9.3-9.2l-11.6,7.9l-7.9,11.6l9.2,9.3c-1.5,2.8-2.7,5.8-3.7,8.8h-13l-2.6,13.9
	l2.6,13.9h13.1c1,3.1,2.2,6,3.7,8.8l-9.3,9.3l7.9,11.7l11.7,7.9l9.2-9.3c2.8,1.5,5.8,2.7,8.8,3.7v13.1l13.9,2.6l13.9-2.6v-13.1
	c3.1-1,6-2.2,8.8-3.7l9.3,9.3l11.7-7.9l7.9-11.7l-9.3-9.3c1.5-2.8,2.7-5.8,3.7-8.8C162.5,133.6,175.5,133.6,175.5,133.6z M155,146.2
	l6.1,6.1l-4.9,7.2l-7.2,4.9l-6.1-6.1l-2.8-2.8l-3.5,1.8c-2.5,1.3-5.1,2.5-7.9,3.2l-3.7,1.1v3.9v8.7l-8.6,1.6l-8.6-1.6v-8.7v-3.9
	l-3.7-1.1c-2.7-0.8-5.4-1.9-7.9-3.2l-3.5-1.8l-2.8,2.8l-6.1,6.1l-7.2-4.9l-4.9-7.2l6.1-6.1l2.8-2.8l-1.8-3.5
	c-1.3-2.5-2.5-5.1-3.2-7.9l-1.1-3.7h-3.9h-8.8l-1.6-8.6l1.6-8.6h8.7h3.9l1.1-3.7c0.8-2.7,1.9-5.4,3.2-7.9l1.8-3.5l-2.8-2.8l-6.1-6.1
	l4.9-7.2l7.2-4.9l6.1,6.1l2.8,2.8l3.5-1.8c2.5-1.3,5.1-2.5,7.9-3.2l3.7-1.1v-3.9v-8.8l8.6-1.6l8.6,1.6v8.7v3.9l3.7,1.1
	c2.7,0.8,5.4,1.9,7.9,3.2l3.5,1.8l2.8-2.8l6.2-6l7.2,4.9l4.9,7.2l-6.1,6.1l-2.8,2.8l1.8,3.5c1.3,2.5,2.5,5.1,3.2,7.9l1.1,3.7h3.9
	h8.7l1.6,8.6l-1.6,8.6h-8.7h-3.9l-1.1,3.7c-0.8,2.7-1.9,5.4-3.2,7.9l-1.8,3.5L155,146.2z M116.5,87.1c-18,0-32.6,14.6-32.6,32.6
	s14.6,32.6,32.6,32.6s32.6-14.6,32.6-32.6S134.5,87.1,116.5,87.1z M116.5,147.1c-15.1,0-27.4-12.2-27.4-27.4s12.2-27.4,27.4-27.4
	s27.4,12.2,27.4,27.4S131.6,147.1,116.5,147.1z M116.5,104.4c-8.5,0-15.4,6.9-15.4,15.4s6.9,15.4,15.4,15.4s15.4-6.9,15.4-15.4
	S125,104.4,116.5,104.4z M116.5,129.8c-5.6,0-10.1-4.5-10.1-10.1s4.5-10.1,10.1-10.1s10.1,4.5,10.1,10.1S122.1,129.8,116.5,129.8z"
	/>
</svg>
