<?xml version="1.0" encoding="utf-8"?>
<!-- Generator: Adobe Illustrator 24.0.1, SVG Export Plug-In . SVG Version: 6.00 Build 0)  -->
<svg version="1.1" id="Camada_2" xmlns="http://www.w3.org/2000/svg" xmlns:xlink="http://www.w3.org/1999/xlink" x="0px" y="0px"
	 viewBox="0 0 54.7 21" style="enable-background:new 0 0 54.7 21;" xml:space="preserve">
<style type="text/css">
	.st0{fill:#FFFFFF;}
</style>
<g>
	<path class="st0" d="M43.3,1.5h0.2l0.2,0.3h0.2l-0.2-0.3c0.1-0.1,0.2-0.2,0.2-0.3l0,0c0-0.2-0.2-0.3-0.3-0.3h-0.4v1h0.2V1.5H43.3z
		 M43.3,1h0.2l0.1,0.1v0.1l-0.1,0.1h-0.2C43.3,1.4,43.3,1,43.3,1z M31.5,6.2h6.2v7.1h-8.8V0.5h2.6C31.5,0.5,31.5,6.2,31.5,6.2z
		 M47.9,6.2v7.1h-8.8V0.5h2.6v5.8h6.2V6.2z M25,0.5h2.6v12.8H17.3V0.5H20v5.8h5V0.5L25,0.5z M6.8,0.5H16v2.6H9.5v3.2H16v3.8H9.5v3.2
		H6.8V0.5z M42.9,2.1c0.1,0,0.1,0.1,0.2,0.1h0.8c0.1,0,0.1,0,0.2-0.1L44.2,2c0-0.1,0.1-0.1,0.1-0.2V0.9c0-0.1,0-0.1-0.1-0.2
		l-0.1-0.1c-0.1,0-0.1-0.1-0.2-0.1h-0.8c-0.1,0-0.1,0-0.2,0.1l-0.1,0.1c0,0.1-0.1,0.1-0.1,0.2v0.9C42.7,1.9,42.7,1.9,42.9,2.1
		C42.8,2,42.8,2.1,42.9,2.1L42.9,2.1z M42.9,0.9c0,0,0-0.1,0.1-0.1c0-0.1,0-0.1,0.1-0.1H44c0,0,0.1,0,0.1,0.1
		c0.1,0.1,0.1,0.1,0.1,0.1v1c0,0,0,0.1-0.1,0.1s-0.2,0-0.2,0H43c0,0-0.1,0-0.1-0.1c-0.1-0.1-0.1-0.1-0.1-0.1L42.9,0.9L42.9,0.9z"/>
	<path class="st0" d="M10.4,16l-1.5,2.5v2H8.3v-2L6.8,16h0.7l1.1,1.9L9.7,16H10.4L10.4,16z"/>
	<path class="st0" d="M11.3,20.4c-0.1-0.1-0.3-0.2-0.3-0.3c-0.2-0.2-0.2-0.3-0.2-0.6v-2.4c0-0.2,0.1-0.4,0.2-0.5
		c0.1-0.1,0.2-0.3,0.3-0.3c0.2-0.2,0.3-0.2,0.6-0.2H13c0.2,0,0.4,0.1,0.5,0.2s0.3,0.2,0.3,0.3c0.2,0.2,0.2,0.3,0.2,0.6v2.4
		c0,0.2-0.1,0.4-0.2,0.5c-0.1,0.1-0.2,0.3-0.3,0.3c-0.2,0.2-0.3,0.2-0.6,0.2h-1.2C11.6,20.6,11.5,20.5,11.3,20.4L11.3,20.4z
		 M11.6,19.8c0.1,0.1,0.2,0.2,0.3,0.2H13c0.1,0,0.1-0.1,0.3-0.2c0.1-0.1,0.2-0.2,0.2-0.3V17c0-0.1-0.1-0.1-0.2-0.3
		c-0.1-0.1-0.2-0.2-0.3-0.2h-1.2c-0.1,0-0.1,0.1-0.3,0.2c-0.1,0.1-0.2,0.2-0.2,0.3v2.5C11.4,19.6,11.4,19.6,11.6,19.8z"/>
	<path class="st0" d="M15.7,20.4c-0.1-0.1-0.3-0.2-0.3-0.3c-0.2-0.2-0.2-0.3-0.2-0.6V16h0.6v3.5c0,0.1,0.1,0.1,0.2,0.3
		c0.1,0.1,0.2,0.2,0.3,0.2h1c0.1,0,0.1-0.1,0.3-0.2c0.1-0.1,0.2-0.2,0.2-0.3V16h0.6v3.5c0,0.2-0.1,0.4-0.2,0.5s-0.2,0.3-0.3,0.3
		c-0.2,0.2-0.3,0.2-0.6,0.2h-1C16,20.6,15.8,20.5,15.7,20.4L15.7,20.4z"/>
	<path class="st0" d="M20.9,18.6h-1v1.9h-0.6V16h2.1c0.2,0,0.3,0,0.4,0.1s0.3,0.3,0.4,0.4s0.1,0.3,0.1,0.4v0.7c0,0.2,0,0.3-0.1,0.4
		s-0.3,0.3-0.4,0.4s-0.2,0.1-0.2,0.1l0.9,1.9h-0.7L20.9,18.6L20.9,18.6z M19.9,18h1.4c0.1,0,0.2,0,0.3-0.1c0.1-0.1,0.1-0.2,0.1-0.3
		V17c0-0.1,0-0.2-0.1-0.3c-0.1-0.1-0.2-0.1-0.3-0.1h-1.4V18L19.9,18z"/>
	<path class="st0" d="M25.7,16.6V18h1.9v0.6h-1.9V20h2.1v0.6h-2.7V16h2.7v0.6H25.7L25.7,16.6z"/>
	<path class="st0" d="M31.9,16v4.5h-0.7l-1.7-3.4v3.4h-0.6V16h0.7l1.7,3.5V16H31.9L31.9,16z"/>
	<path class="st0" d="M33.6,16.6V18h1.9v0.6h-1.9V20h2.1v0.6H33V16h2.7v0.6H33.6L33.6,16.6z"/>
	<path class="st0" d="M38.4,18.6h-1v1.9h-0.6V16h2.1c0.2,0,0.3,0,0.4,0.1c0.1,0.1,0.3,0.3,0.4,0.4c0.1,0.1,0.1,0.3,0.1,0.4v0.7
		c0,0.2,0,0.3-0.1,0.4s-0.3,0.3-0.4,0.4c-0.1,0.1-0.2,0.1-0.2,0.1l0.9,1.9h-0.7L38.4,18.6L38.4,18.6z M37.4,18h1.4
		c0.1,0,0.2,0,0.3-0.1s0.1-0.2,0.1-0.3V17c0-0.1,0-0.2-0.1-0.3c-0.1-0.1-0.2-0.1-0.3-0.1h-1.4V18z"/>
	<path class="st0" d="M44.2,20.5h-0.6v-0.3c-0.2,0.2-0.4,0.3-0.5,0.3H42c-0.2,0-0.4-0.1-0.5-0.2s-0.3-0.2-0.3-0.3
		C41,19.8,41,19.7,41,19.4V17c0-0.2,0.1-0.4,0.2-0.5c0.1-0.1,0.2-0.3,0.3-0.3c0.2-0.2,0.3-0.2,0.6-0.2H43c0.3,0,0.6,0.2,0.8,0.5
		c0.1,0.1,0.2,0.3,0.3,0.4L43.4,17c-0.1-0.2-0.3-0.4-0.5-0.4h-1.1c-0.1,0-0.1,0.1-0.3,0.2c-0.1,0.1-0.2,0.2-0.2,0.3v2.5
		c0,0.1,0.1,0.1,0.2,0.3c0.1,0.1,0.2,0.2,0.3,0.2H43c0.1,0,0.1-0.1,0.3-0.2c0.1-0.1,0.2-0.2,0.2-0.3v-0.9h-1V18h1.6v1.6L44.2,20.5
		L44.2,20.5z"/>
	<path class="st0" d="M47.9,16l-1.5,2.5v2h-0.6v-2L44.4,16h0.7l1.1,1.9l1.1-1.9H47.9L47.9,16z"/>
</g>
</svg>
