<?xml version="1.0" encoding="utf-8"?>
<!-- Generator: Adobe Illustrator 24.0.1, SVG Export Plug-In . SVG Version: 6.00 Build 0)  -->
<svg version="1.1" id="Camada_2" xmlns="http://www.w3.org/2000/svg" xmlns:xlink="http://www.w3.org/1999/xlink" x="0px" y="0px"
	 viewBox="0 0 54.7 21" style="enable-background:new 0 0 54.7 21;" xml:space="preserve">
<style type="text/css">
	.st0{fill:url(#SVGID_1_);}
	.st1{fill:#1D1D1B;}
</style>
<g>
	
		<linearGradient id="SVGID_1_" gradientUnits="userSpaceOnUse" x1="17.8675" y1="39.0208" x2="30.5557" y2="5.9661" gradientTransform="matrix(1 0 0 -1 0 24)">
		<stop  offset="0.25" style="stop-color:#DAE071"/>
		<stop  offset="0.52" style="stop-color:#84BF61"/>
		<stop  offset="0.77" style="stop-color:#36A9E1"/>
		<stop  offset="1" style="stop-color:#67C0B7"/>
	</linearGradient>
	<path class="st0" d="M44.1,1.1h0.2l0.2,0.3h0.2l-0.2-0.4c0.1-0.1,0.2-0.2,0.2-0.3V0.7c0-0.2-0.2-0.3-0.3-0.3h-0.4v1h0.2V1.1
		L44.1,1.1z M44.1,0.6h0.2c0,0,0.1,0.1,0.1,0.1v0.1c0,0-0.1,0.1-0.1,0.1h-0.2C44.1,0.9,44.1,0.6,44.1,0.6z M31.7,6h6.5v7.4H29V0h2.7
		V6z M48.8,6v7.4h-9.2V0h2.7v6H48.8z M24.9,0h2.7v13.4H16.9V0h2.7v6h5.2L24.9,0L24.9,0z M5.9,0h9.6v2.7H8.6V6h6.9v4H8.6v3.4H5.9V0z
		 M43.6,1.8c0.1,0.1,0.1,0.1,0.2,0.1h0.9c0.1,0,0.2,0,0.2-0.1c0,0,0.1-0.1,0.1-0.1c0.1-0.1,0.1-0.1,0.1-0.2v-1c0-0.1,0-0.2-0.1-0.2
		c0,0-0.1-0.1-0.1-0.1C44.8,0,44.8,0,44.7,0h-0.9c-0.1,0-0.2,0-0.2,0.1c0,0-0.1,0.1-0.1,0.1c-0.1,0.1-0.1,0.1-0.1,0.2v1
		c0,0.1,0,0.2,0.1,0.2C43.5,1.7,43.5,1.7,43.6,1.8L43.6,1.8z M43.6,0.4c0,0,0-0.1,0.1-0.1c0.1-0.1,0.1-0.1,0.1-0.1h0.9
		c0,0,0.1,0,0.1,0.1c0.1,0.1,0.1,0.1,0.1,0.1v1c0,0,0,0.1-0.1,0.1c-0.1,0.1-0.1,0.1-0.1,0.1h-0.9c0,0-0.1,0-0.1-0.1
		c-0.1-0.1-0.1-0.1-0.1-0.1V0.4z"/>
	<path class="st1" d="M9.6,16.3l-1.5,2.6V21H7.4v-2.1l-1.5-2.6h0.7l1.1,2l1.1-2L9.6,16.3L9.6,16.3z"/>
	<path class="st1" d="M10.6,20.8c-0.1-0.1-0.3-0.3-0.3-0.3c-0.2-0.2-0.2-0.3-0.2-0.6v-2.5c0-0.2,0.1-0.4,0.2-0.5
		c0.1-0.1,0.3-0.3,0.3-0.3c0.2-0.2,0.3-0.2,0.6-0.2h1.2c0.2,0,0.4,0.1,0.5,0.2c0.1,0.1,0.3,0.3,0.3,0.3c0.2,0.2,0.2,0.3,0.2,0.6v2.5
		c0,0.2-0.1,0.4-0.2,0.5c-0.1,0.1-0.3,0.3-0.3,0.3C12.7,21,12.6,21,12.3,21h-1.2C10.9,21,10.7,21,10.6,20.8L10.6,20.8z M10.8,20.2
		c0.1,0.1,0.2,0.2,0.3,0.2h1.2c0.1,0,0.1-0.1,0.3-0.2c0.1-0.1,0.2-0.2,0.2-0.3v-2.6c0-0.1-0.1-0.1-0.2-0.3c-0.1-0.1-0.2-0.2-0.3-0.2
		h-1.2c-0.1,0-0.1,0.1-0.3,0.2c-0.1,0.1-0.2,0.2-0.2,0.3v2.6C10.6,20,10.7,20.1,10.8,20.2z"/>
	<path class="st1" d="M15.1,20.8c-0.1-0.1-0.3-0.3-0.3-0.3c-0.2-0.2-0.2-0.3-0.2-0.6v-3.6h0.6v3.6c0,0.1,0.1,0.1,0.2,0.3
		c0.1,0.1,0.2,0.2,0.3,0.2h1c0.1,0,0.1-0.1,0.3-0.2c0.1-0.1,0.2-0.2,0.2-0.3v-3.6h0.6v3.6c0,0.2-0.1,0.4-0.2,0.5
		c-0.1,0.1-0.3,0.3-0.3,0.3C17.1,21,16.9,21,16.7,21h-1C15.4,21,15.3,21,15.1,20.8L15.1,20.8z"/>
	<path class="st1" d="M20.6,19h-1.1v2h-0.6v-4.7h2.2c0.2,0,0.3,0,0.5,0.1c0.1,0.1,0.3,0.3,0.4,0.4c0.1,0.1,0.1,0.3,0.1,0.5V18
		c0,0.2,0,0.3-0.1,0.5c-0.1,0.1-0.3,0.3-0.4,0.4c-0.1,0.1-0.2,0.1-0.3,0.1l1,2h-0.7L20.6,19L20.6,19z M19.5,18.4h1.5
		c0.1,0,0.2,0,0.3-0.1c0.1-0.1,0.1-0.2,0.1-0.3v-0.7c0-0.1,0-0.2-0.1-0.3c-0.1-0.1-0.2-0.1-0.3-0.1h-1.5L19.5,18.4L19.5,18.4z"/>
	<path class="st1" d="M25.7,16.9v1.4h2v0.6h-2v1.4h2.2V21H25v-4.7h2.8v0.6L25.7,16.9L25.7,16.9z"/>
	<path class="st1" d="M32.1,16.3V21h-0.8l-1.8-3.6V21h-0.6v-4.7h0.8l1.8,3.6v-3.6L32.1,16.3L32.1,16.3z"/>
	<path class="st1" d="M33.9,16.9v1.4h2v0.6h-2v1.4h2.2V21h-2.8v-4.7h2.8v0.6L33.9,16.9L33.9,16.9z"/>
	<path class="st1" d="M38.9,19h-1.1v2h-0.6v-4.7h2.2c0.2,0,0.3,0,0.5,0.1c0.1,0.1,0.3,0.3,0.4,0.4c0.1,0.1,0.1,0.3,0.1,0.5V18
		c0,0.2,0,0.3-0.1,0.5c-0.1,0.1-0.3,0.3-0.4,0.4c-0.1,0.1-0.2,0.1-0.3,0.1l1,2h-0.7L38.9,19L38.9,19z M37.8,18.4h1.5
		c0.1,0,0.2,0,0.3-0.1c0.1-0.1,0.1-0.2,0.1-0.3v-0.7c0-0.1,0-0.2-0.1-0.3c-0.1-0.1-0.2-0.1-0.3-0.1h-1.5V18.4z"/>
	<path class="st1" d="M45,21l-0.6,0l0-0.3c-0.2,0.2-0.4,0.3-0.6,0.3h-1.2c-0.2,0-0.4-0.1-0.5-0.2c-0.1-0.1-0.3-0.3-0.3-0.3
		c-0.2-0.2-0.2-0.3-0.2-0.6v-2.5c0-0.2,0.1-0.4,0.2-0.5c0.1-0.1,0.3-0.3,0.3-0.3c0.2-0.2,0.3-0.2,0.6-0.2h1.2c0.3,0,0.6,0.2,0.8,0.5
		c0.1,0.1,0.2,0.3,0.3,0.4l-0.6,0.2c-0.1-0.2-0.4-0.5-0.5-0.5h-1.2c-0.1,0-0.1,0.1-0.3,0.2c-0.1,0.1-0.2,0.2-0.2,0.3v2.6
		c0,0.1,0.1,0.1,0.2,0.3c0.1,0.1,0.2,0.2,0.3,0.2h1.2c0.1,0,0.1-0.1,0.3-0.2c0.1-0.1,0.2-0.2,0.2-0.3V19h-1.1v-0.6h1.7V20L45,21
		L45,21z"/>
	<path class="st1" d="M48.8,16.3l-1.5,2.6V21h-0.6v-2.1l-1.5-2.6h0.7l1.1,2l1.1-2L48.8,16.3L48.8,16.3z"/>
</g>
</svg>
