<?xml version="1.0" encoding="utf-8"?>
<!-- Generator: Adobe Illustrator 24.0.1, SVG Export Plug-In . SVG Version: 6.00 Build 0)  -->
<svg version="1.1" id="Camada_2" xmlns="http://www.w3.org/2000/svg" xmlns:xlink="http://www.w3.org/1999/xlink" x="0px" y="0px"
	 viewBox="0 0 54.7 21" style="enable-background:new 0 0 54.7 21;" xml:space="preserve">
<style type="text/css">
	.st0{fill:#FFFFFF;}
</style>
<g>
	<path class="st0" d="M43.5,1.5h0.2l0.2,0.3h0.2l-0.2-0.3C44,1.3,44,1.2,44,1.1l0,0c0-0.2-0.2-0.3-0.3-0.3h-0.4v1h0.2V1.5L43.5,1.5z
		 M43.5,1h0.2l0.1,0.1v0.1l-0.1,0.1h-0.2C43.5,1.3,43.5,1,43.5,1z M31.6,6.2h6.3v7.1H29v-13h2.6C31.6,0.3,31.6,6.2,31.6,6.2z
		 M48.1,6.2v7.1h-8.9v-13h2.6v5.8h6.3V6.2z M24.9,0.4h2.6v13H17.3v-13h2.6v5.8H25L24.9,0.4L24.9,0.4z M6.7,0.4h9.2V3H9.3v3.2h6.6
		v3.9H9.3v3.3H6.7V0.4z M43,2.1c0.1,0,0.1,0.1,0.2,0.1h0.9c0.1,0,0.1,0,0.2-0.1L44.4,2c0-0.1,0.1-0.1,0.1-0.2v-1
		c0-0.1,0-0.1-0.1-0.2l-0.1-0.1c-0.1,0-0.1-0.1-0.2-0.1h-0.9c-0.1,0-0.1,0-0.2,0.1l-0.1,0.1c0,0.1-0.1,0.1-0.1,0.2v0.9
		c0,0.1,0,0.1,0.1,0.2C42.9,2,43,2,43,2.1L43,2.1z M43,0.8c0,0,0-0.1,0.1-0.1c0.1-0.1,0.1-0.1,0.1-0.1h0.9c0,0,0.1,0,0.1,0.1
		c0.1,0.1,0.1,0.1,0.1,0.1v1c0,0,0,0.1-0.1,0.1C44.1,2,44.1,2,44.1,2h-0.9c0,0-0.1,0-0.1-0.1C43,1.8,43,1.8,43,1.7V0.8z"/>
	<path class="st0" d="M10.2,16.1l-1.5,2.6v2H8.1v-2l-1.5-2.6h0.7L8.4,18l1.1-1.9H10.2L10.2,16.1z"/>
	<path class="st0" d="M11.2,20.5c-0.1-0.1-0.3-0.2-0.3-0.3c-0.2-0.2-0.2-0.3-0.2-0.6v-2.5c0-0.2,0.1-0.4,0.2-0.5
		c0.1-0.1,0.2-0.3,0.3-0.3c0.2-0.2,0.3-0.2,0.6-0.2H13c0.2,0,0.4,0.1,0.5,0.2s0.3,0.2,0.3,0.3c0.2,0.2,0.2,0.3,0.2,0.6v2.5
		c0,0.2-0.1,0.4-0.2,0.5c-0.1,0.1-0.2,0.3-0.3,0.3c-0.2,0.2-0.3,0.2-0.6,0.2h-1.2C11.5,20.6,11.3,20.6,11.2,20.5L11.2,20.5z
		 M11.4,19.9c0.1,0.1,0.2,0.2,0.3,0.2h1.2c0.1,0,0.1-0.1,0.3-0.2c0.1-0.1,0.2-0.2,0.2-0.3v-2.5c0-0.1-0.1-0.1-0.2-0.3
		c-0.1-0.1-0.2-0.2-0.3-0.2h-1.2c-0.1,0-0.1,0.1-0.3,0.2c-0.1,0.1-0.2,0.2-0.2,0.3v2.5C11.2,19.7,11.3,19.7,11.4,19.9z"/>
	<path class="st0" d="M15.6,20.5c-0.1-0.1-0.3-0.2-0.3-0.3C15,19.9,15,19.8,15,19.6v-3.5h0.6v3.5c0,0.1,0.1,0.1,0.2,0.3
		c0.1,0.1,0.2,0.2,0.3,0.2h1c0.1,0,0.1-0.1,0.3-0.2c0.1-0.1,0.2-0.2,0.2-0.3v-3.5h0.6v3.5c0,0.2-0.1,0.4-0.2,0.5s-0.2,0.3-0.3,0.3
		c-0.2,0.2-0.3,0.2-0.6,0.2h-1C15.8,20.6,15.7,20.6,15.6,20.5L15.6,20.5z"/>
	<path class="st0" d="M20.9,18.7h-1.1v1.9h-0.6v-4.5h2.1c0.2,0,0.3,0,0.4,0.1s0.3,0.3,0.4,0.4s0.1,0.3,0.1,0.4v0.7
		c0,0.2,0,0.3-0.1,0.4s-0.3,0.3-0.4,0.4s-0.2,0.1-0.3,0.1l0.9,1.9h-0.7L20.9,18.7L20.9,18.7z M19.8,18.1h1.5c0.1,0,0.2,0,0.3-0.1
		c0.1-0.1,0.1-0.2,0.1-0.3v-0.6c0-0.1,0-0.2-0.1-0.3c-0.1-0.1-0.2-0.1-0.3-0.1h-1.5V18.1L19.8,18.1z"/>
	<path class="st0" d="M25.7,16.7V18h2v0.6h-2V20h2.1v0.6h-2.7v-4.5h2.7v0.6H25.7L25.7,16.7z"/>
	<path class="st0" d="M32,16.1v4.5h-0.7l-1.7-3.5v3.5H29v-4.5h0.7l1.7,3.5v-3.5H32L32,16.1z"/>
	<path class="st0" d="M33.7,16.7V18h2v0.6h-2V20h2.1v0.6H33v-4.5h2.7v0.6H33.7L33.7,16.7z"/>
	<path class="st0" d="M38.5,18.7h-1.1v1.9h-0.6v-4.5H39c0.2,0,0.3,0,0.4,0.1c0.1,0.1,0.3,0.3,0.4,0.4c0.1,0.1,0.1,0.3,0.1,0.4v0.7
		c0,0.2,0,0.3-0.1,0.4s-0.3,0.3-0.4,0.4c-0.1,0.1-0.2,0.1-0.3,0.1l0.9,1.9h-0.7L38.5,18.7L38.5,18.7z M37.4,18.1h1.5
		c0.1,0,0.2,0,0.3-0.1s0.1-0.2,0.1-0.3v-0.6c0-0.1,0-0.2-0.1-0.3c-0.1-0.1-0.2-0.1-0.3-0.1h-1.5V18.1z"/>
	<path class="st0" d="M44.3,20.6h-0.6v-0.3c-0.2,0.2-0.4,0.3-0.6,0.3H42c-0.2,0-0.4-0.1-0.5-0.2s-0.3-0.2-0.3-0.3
		C41,19.9,41,19.8,41,19.5v-2.4c0-0.2,0.1-0.4,0.2-0.5c0.1-0.1,0.2-0.3,0.3-0.3c0.2-0.2,0.3-0.2,0.6-0.2h1.1c0.3,0,0.6,0.2,0.8,0.5
		c0.1,0.1,0.2,0.3,0.3,0.4l-0.6,0.2c-0.1-0.2-0.3-0.4-0.5-0.4H42c-0.1,0-0.1,0.1-0.3,0.2c-0.1,0.1-0.2,0.2-0.2,0.3v2.5
		c0,0.1,0.1,0.1,0.2,0.3C41.9,20,42,20,42,20h1.1c0.1,0,0.1-0.1,0.3-0.2c0.1-0.1,0.2-0.2,0.2-0.3v-0.9h-1V18h1.6v1.6L44.3,20.6
		L44.3,20.6z"/>
	<path class="st0" d="M48.1,16.1l-1.5,2.6v2H46v-2l-1.5-2.6h0.7l1.1,1.9l1.1-1.9H48.1L48.1,16.1z"/>
</g>
</svg>
