<?xml version="1.0" encoding="UTF-8"?><svg id="Layer_1" xmlns="http://www.w3.org/2000/svg" xmlns:xlink="http://www.w3.org/1999/xlink" viewBox="0 0 841 338.18"><defs><style>.cls-1{fill:#fff;}.cls-2{fill:url(#linear-gradient);}.cls-2,.cls-3{mix-blend-mode:multiply;}.cls-4{mask:url(#mask-2);}.cls-5{mask:url(#mask-3);}.cls-6{filter:url(#luminosity-noclip-4);}.cls-3{fill:url(#linear-gradient-2);}.cls-7{filter:url(#luminosity-noclip-2);}.cls-8{mask:url(#mask-1);}.cls-9{mask:url(#mask);}</style><filter id="luminosity-noclip-2" x="27.37" y="18.15" width="786.27" height="301.88" color-interpolation-filters="sRGB" filterUnits="userSpaceOnUse"><feFlood flood-color="#fff" result="bg"/><feBlend in="SourceGraphic" in2="bg"/></filter><filter id="luminosity-noclip-3" x="8612" y="-8360.59" width="-32766" height="32766" color-interpolation-filters="sRGB" filterUnits="userSpaceOnUse"><feFlood flood-color="#fff" result="bg"/><feBlend in="SourceGraphic" in2="bg"/></filter><mask id="mask-1" x="8612" y="-8360.59" width="-32766" height="32766" maskUnits="userSpaceOnUse"/><linearGradient id="linear-gradient" x1="73.16" y1="371.32" x2="737.64" y2="116.25" gradientUnits="userSpaceOnUse"><stop offset="0" stop-color="#fff"/><stop offset=".21" stop-color="#8b8b8b"/><stop offset=".41" stop-color="#272727"/><stop offset=".5" stop-color="#000"/><stop offset=".6" stop-color="#2c2c2c"/><stop offset=".81" stop-color="#999"/><stop offset="1" stop-color="#fff"/></linearGradient><mask id="mask" x="27.37" y="18.15" width="786.27" height="301.88" maskUnits="userSpaceOnUse"><g class="cls-7"><g class="cls-8"><path class="cls-2" d="M453.82,210.67c-28.72-22.6-55.68-50.46-40.18-89.37,15.5-38.9,34.01-55.46,29.53-103.15,40.21,48,50.28,66.19,50.28,66.19,27.03,48.67-26.05,81.31-31.43,86.86-5.38,5.55-6.22,8.07-4.57,16.51-2.97-2.72-9.28-11.18-.01-25.21,9.3-14.02,12.95-19.06,12.95-19.06,3.85-6.86,8.98-15.06-7.48-38.64-34.83,43.78-27.31,67.68-17.85,77.61,7.57,7.94,14.48,15.38,8.77,28.26Zm-232.87,16.91c0,53.17-24.3,92.45-96.79,92.45S27.37,280.75,27.37,227.58s24.72-92.46,96.79-92.46,96.79,39.28,96.79,92.46Zm-53.54,0c0-27.12-7.83-49.02-43.25-49.02s-43.25,21.9-43.25,49.02,7.83,49.01,43.25,49.01,43.25-21.9,43.25-49.01Zm210.14-36.86c9.88-9.88,18.39-29.01,18.39-46.44,0-1.79,.02-2.84,0-4.3h-127.41c-15.21,0-35.23,3.66-35.23,31.43v8.33h92.82l-67.64,71.27c-17.88,18.86-34.54,32.31-34.54,63.59h144.97c15.21,0,35.23-3.59,35.23-31.36v-8.32h-105.89c.17-.17,69.06-73.96,79.3-84.21Zm328.98,95.45v2.1h20.34c-.81,11.93-5.56,19.62-22.24,19.62-18.04,0-22.65-9.04-22.65-22.78s4.61-22.77,22.65-22.77c9.73,0,14.84,3.04,17.35,5.65,1.1,1.16,1.62,.72,3.38-.18,1.85-.96,3.57-1.88,3.57-1.88-4.45-6.2-12.14-9.97-24.3-9.97-21.9,0-29.57,12.39-29.57,29.15s7.67,29.15,29.57,29.15,28.48-12.39,28.48-29.15v-3.16h-21.54c-4.4,0-5.04,1.46-5.04,4.22Zm107.11,28.06h-6.79l-5.28-11.75h-37.23l-5.28,11.75h-6.76l26.26-58.29h8.83l26.26,58.29Zm-14.95-18.12l-15.21-33.8h-1.03l-15.22,33.8h31.46Zm-58.05-40.15s-1.22,0-1.22,0v58.37h6.36v-54.14c0-2.74-.65-4.2-5.15-4.23Zm-191.89,.07s-1.23,0-1.23,0v48.46l-45.55-48.53h-6.36v54.19c0,2.74,.65,4.2,5.15,4.22-.06,0,1.21,0,1.21,0v-47.87l45.55,47.81h6.37s0-52.23,0-54.06c0-2.74-.66-4.19-5.15-4.21Zm-64.51-.07h-40.9v58.4h40.85c4.43,0,5.07-1.46,5.07-4.22v-2.09h-39.63v-20.88h30.58v-6.3h-30.58v-18.55l39.66-.02v-2.11c0-2.76-.64-4.24-5.05-4.24Zm116.9,0h-40.9v58.4h40.85c4.43,0,5.07-1.46,5.07-4.22v-2.09h-39.63v-20.88h30.57v-6.3h-30.57v-18.55l39.66-.02v-2.11c0-2.76-.64-4.24-5.06-4.24Zm61.22,32.97c2.35,.53,3.61,1.4,4.83,2.89,1.98,2.46,2.2,4.13,2.2,14.21v8.33h-6.36v-10c0-5.96-.53-8.51-2.14-10.17-1.59-1.75-3.87-2.54-9.28-2.54h-32.97v22.71h-6.38v-58.42h31.74l7.15,.09c9.45,.08,12.64,.97,15.53,4.03,.77,.88,1.45,1.93,1.91,3.07,1.23,2.81,1.6,5.62,1.6,10.35,0,6.75-.53,10-2.13,12.02-1.52,1.75-2.74,2.71-5.7,3.42Zm1.44-15.44c0-4.13-.92-7.91-2.36-9.04-2.2-1.77-5.09-2.11-17.42-2.11h-25.36v22.87h31.45c9.13,0,12.17-1.36,13.09-5.31,.31-1.41,.61-3.72,.61-6.41Z"/></g></g></mask><filter id="luminosity-noclip-4" x="27.36" y="18.15" width="786.28" height="301.88" color-interpolation-filters="sRGB" filterUnits="userSpaceOnUse"><feFlood flood-color="#fff" result="bg"/><feBlend in="SourceGraphic" in2="bg"/></filter><filter id="luminosity-noclip-5" x="8612" y="-8360.59" width="-32766" height="32766" color-interpolation-filters="sRGB" filterUnits="userSpaceOnUse"><feFlood flood-color="#fff" result="bg"/><feBlend in="SourceGraphic" in2="bg"/></filter><mask id="mask-3" x="8612" y="-8360.59" width="-32766" height="32766" maskUnits="userSpaceOnUse"/><linearGradient id="linear-gradient-2" x1="420.5" y1="18.15" x2="420.5" y2="320.03" gradientUnits="userSpaceOnUse"><stop offset=".5" stop-color="#000"/><stop offset=".75" stop-color="#404040"/><stop offset=".79" stop-color="#545454"/><stop offset=".86" stop-color="#898989"/><stop offset=".96" stop-color="#ddd"/><stop offset="1" stop-color="#fff"/></linearGradient><mask id="mask-2" x="27.36" y="18.15" width="786.28" height="301.88" maskUnits="userSpaceOnUse"><g class="cls-6"><g class="cls-5"><path class="cls-3" d="M453.82,210.67c-28.73-22.6-55.68-50.47-40.19-89.37,15.5-38.9,34.02-55.46,29.53-103.15,40.21,48,50.28,66.19,50.28,66.19,27.03,48.67-26.06,81.31-31.43,86.86-5.38,5.55-6.22,8.07-4.56,16.51-2.97-2.71-9.29-11.18-.02-25.2,9.3-14.02,12.95-19.06,12.95-19.06,3.85-6.86,8.99-15.06-7.48-38.65-34.85,43.78-27.31,67.69-17.86,77.61,7.57,7.94,14.48,15.38,8.77,28.26Zm-232.88,16.91c0,53.17-24.3,92.45-96.79,92.45S27.36,280.75,27.36,227.58s24.72-92.46,96.79-92.46,96.79,39.28,96.79,92.46Zm-53.54,0c0-27.12-7.83-49.02-43.24-49.02s-43.25,21.9-43.25,49.02,7.83,49.01,43.25,49.01,43.24-21.9,43.24-49.01Zm210.15-36.87c9.88-9.89,18.39-29.01,18.39-46.44,0-1.79,.02-2.84,0-4.3h-127.42c-15.2,0-35.22,3.65-35.22,31.43v8.33h92.82l-67.64,71.28c-17.88,18.86-34.54,32.31-34.54,63.59h144.97c15.21,0,35.22-3.59,35.22-31.36v-8.32h-105.89c.17-.17,69.06-73.96,79.31-84.21Zm328.98,95.45v2.1h20.34c-.81,11.93-5.56,19.62-22.24,19.62-18.04,0-22.65-9.04-22.65-22.78s4.61-22.77,22.65-22.77c9.73,0,14.84,3.04,17.35,5.65,1.1,1.16,1.62,.72,3.37-.18,1.85-.96,3.57-1.88,3.57-1.88-4.45-6.2-12.14-9.97-24.3-9.97-21.9,0-29.56,12.39-29.56,29.15s7.66,29.15,29.56,29.15,28.48-12.39,28.48-29.15v-3.16h-21.54c-4.4,0-5.04,1.46-5.04,4.22Zm107.11,28.06h-6.79l-5.28-11.75h-37.24l-5.28,11.75h-6.76l26.26-58.29h8.83l26.26,58.29Zm-14.95-18.12l-15.21-33.8h-1.04l-15.22,33.8h31.46Zm-58.05-40.15s-1.21,0-1.21,0v58.37h6.36v-54.14c0-2.74-.65-4.2-5.15-4.23Zm-191.89,.07s-1.24,0-1.24,0v48.46l-45.55-48.53h-6.36v54.19c0,2.74,.65,4.2,5.15,4.22-.05,0,1.21,0,1.21,0v-47.87l45.55,47.81h6.37s.01-52.23,.01-54.06c0-2.74-.66-4.19-5.15-4.21Zm-64.51-.07h-40.89v58.4h40.85c4.42,0,5.06-1.46,5.06-4.22v-2.09h-39.63v-20.88h30.58v-6.3h-30.58v-18.55l39.66-.02v-2.11c0-2.76-.64-4.24-5.05-4.24Zm116.9,0h-40.9v58.4h40.85c4.43,0,5.07-1.46,5.07-4.22v-2.09h-39.62v-20.88h30.57v-6.3h-30.57v-18.55l39.66-.02v-2.11c0-2.76-.64-4.24-5.06-4.24Zm61.22,32.97c2.35,.53,3.61,1.4,4.83,2.89,1.98,2.46,2.21,4.13,2.21,14.21v8.33h-6.36v-10c0-5.96-.53-8.51-2.14-10.17-1.59-1.75-3.87-2.54-9.28-2.54h-32.96v22.71h-6.38v-58.42h31.74l7.15,.09c9.45,.08,12.64,.97,15.53,4.03,.77,.88,1.46,1.93,1.91,3.07,1.22,2.81,1.6,5.62,1.6,10.35,0,6.75-.53,10-2.13,12.02-1.52,1.75-2.75,2.71-5.7,3.42Zm1.44-15.44c0-4.13-.92-7.91-2.36-9.04-2.2-1.77-5.1-2.11-17.43-2.11h-25.36v22.87h31.44c9.13,0,12.17-1.36,13.09-5.31,.31-1.41,.61-3.72,.61-6.41Z"/></g></g></mask></defs><path class="cls-1" d="M453.82,210.67c-28.72-22.6-55.68-50.47-40.18-89.37,15.5-38.9,34.01-55.46,29.53-103.15,40.21,48,50.28,66.19,50.28,66.19,27.03,48.67-26.05,81.31-31.43,86.86-5.38,5.55-6.22,8.07-4.57,16.51-2.97-2.71-9.28-11.18-.01-25.2,9.3-14.02,12.95-19.06,12.95-19.06,3.85-6.86,8.98-15.06-7.48-38.65-34.83,43.78-27.31,67.69-17.85,77.61,7.57,7.94,14.48,15.38,8.77,28.26Zm-232.87,16.91c0,53.17-24.3,92.45-96.79,92.45S27.37,280.75,27.37,227.58s24.72-92.46,96.79-92.46,96.79,39.28,96.79,92.46Zm-53.54,0c0-27.12-7.83-49.02-43.25-49.02s-43.25,21.9-43.25,49.02,7.83,49.01,43.25,49.01,43.25-21.9,43.25-49.01Zm210.14-36.87c9.88-9.89,18.39-29.01,18.39-46.44,0-1.79,.02-2.84,0-4.3h-127.41c-15.21,0-35.23,3.65-35.23,31.43v8.33h92.82l-67.64,71.28c-17.88,18.86-34.54,32.31-34.54,63.59h144.97c15.21,0,35.23-3.59,35.23-31.36v-8.32h-105.89c.17-.17,69.06-73.96,79.3-84.21Zm328.98,95.45v2.1h20.34c-.81,11.93-5.56,19.62-22.24,19.62-18.04,0-22.65-9.04-22.65-22.78s4.61-22.77,22.65-22.77c9.73,0,14.84,3.04,17.35,5.65,1.1,1.16,1.62,.72,3.38-.18,1.85-.96,3.57-1.88,3.57-1.88-4.45-6.2-12.14-9.97-24.3-9.97-21.9,0-29.57,12.39-29.57,29.15s7.67,29.15,29.57,29.15,28.48-12.39,28.48-29.15v-3.16h-21.54c-4.4,0-5.04,1.46-5.04,4.22Zm107.11,28.06h-6.79l-5.28-11.75h-37.23l-5.28,11.75h-6.76l26.26-58.29h8.83l26.26,58.29Zm-14.95-18.12l-15.21-33.8h-1.03l-15.22,33.8h31.46Zm-58.05-40.15s-1.22,0-1.22,0v58.37h6.36v-54.14c0-2.74-.65-4.2-5.15-4.23Zm-191.89,.07s-1.23,0-1.23,0v48.46l-45.55-48.53h-6.36v54.19c0,2.74,.65,4.2,5.15,4.22-.06,0,1.21,0,1.21,0v-47.87l45.55,47.81h6.37s0-52.23,0-54.06c0-2.74-.66-4.19-5.15-4.21Zm-64.51-.07h-40.9v58.4h40.85c4.43,0,5.07-1.46,5.07-4.22v-2.09h-39.63v-20.88h30.58v-6.3h-30.58v-18.55l39.66-.02v-2.11c0-2.76-.64-4.24-5.05-4.24Zm116.9,0h-40.9v58.4h40.85c4.43,0,5.07-1.46,5.07-4.22v-2.09h-39.63v-20.88h30.57v-6.3h-30.57v-18.55l39.66-.02v-2.11c0-2.76-.64-4.24-5.06-4.24Zm61.22,32.97c2.35,.53,3.61,1.4,4.83,2.89,1.98,2.46,2.2,4.13,2.2,14.21v8.33h-6.36v-10c0-5.96-.53-8.51-2.14-10.17-1.59-1.75-3.87-2.54-9.28-2.54h-32.97v22.71h-6.38v-58.42h31.74l7.15,.09c9.45,.08,12.64,.97,15.53,4.03,.77,.88,1.45,1.93,1.91,3.07,1.23,2.81,1.6,5.62,1.6,10.35,0,6.75-.53,10-2.13,12.02-1.52,1.75-2.74,2.71-5.7,3.42Zm1.44-15.44c0-4.13-.92-7.91-2.36-9.04-2.2-1.77-5.09-2.11-17.42-2.11h-25.36v22.87h31.45c9.13,0,12.17-1.36,13.09-5.31,.31-1.41,.61-3.72,.61-6.41Z"/><g class="cls-9"><path class="cls-1" d="M453.82,210.67c-28.72-22.6-55.68-50.46-40.18-89.37,15.5-38.9,34.01-55.46,29.53-103.15,40.21,48,50.28,66.19,50.28,66.19,27.03,48.67-26.05,81.31-31.43,86.86-5.38,5.55-6.22,8.07-4.57,16.51-2.97-2.72-9.28-11.18-.01-25.21,9.3-14.02,12.95-19.06,12.95-19.06,3.85-6.86,8.98-15.06-7.48-38.64-34.83,43.78-27.31,67.68-17.85,77.61,7.57,7.94,14.48,15.38,8.77,28.26Zm-232.87,16.91c0,53.17-24.3,92.45-96.79,92.45S27.37,280.75,27.37,227.58s24.72-92.46,96.79-92.46,96.79,39.28,96.79,92.46Zm-53.54,0c0-27.12-7.83-49.02-43.25-49.02s-43.25,21.9-43.25,49.02,7.83,49.01,43.25,49.01,43.25-21.9,43.25-49.01Zm210.14-36.86c9.88-9.88,18.39-29.01,18.39-46.44,0-1.79,.02-2.84,0-4.3h-127.41c-15.21,0-35.23,3.66-35.23,31.43v8.33h92.82l-67.64,71.27c-17.88,18.86-34.54,32.31-34.54,63.59h144.97c15.21,0,35.23-3.59,35.23-31.36v-8.32h-105.89c.17-.17,69.06-73.96,79.3-84.21Zm328.98,95.45v2.1h20.34c-.81,11.93-5.56,19.62-22.24,19.62-18.04,0-22.65-9.04-22.65-22.78s4.61-22.77,22.65-22.77c9.73,0,14.84,3.04,17.35,5.65,1.1,1.16,1.62,.72,3.38-.18,1.85-.96,3.57-1.88,3.57-1.88-4.45-6.2-12.14-9.97-24.3-9.97-21.9,0-29.57,12.39-29.57,29.15s7.67,29.15,29.57,29.15,28.48-12.39,28.48-29.15v-3.16h-21.54c-4.4,0-5.04,1.46-5.04,4.22Zm107.11,28.06h-6.79l-5.28-11.75h-37.23l-5.28,11.75h-6.76l26.26-58.29h8.83l26.26,58.29Zm-14.95-18.12l-15.21-33.8h-1.03l-15.22,33.8h31.46Zm-58.05-40.15s-1.22,0-1.22,0v58.37h6.36v-54.14c0-2.74-.65-4.2-5.15-4.23Zm-191.89,.07s-1.23,0-1.23,0v48.46l-45.55-48.53h-6.36v54.19c0,2.74,.65,4.2,5.15,4.22-.06,0,1.21,0,1.21,0v-47.87l45.55,47.81h6.37s0-52.23,0-54.06c0-2.74-.66-4.19-5.15-4.21Zm-64.51-.07h-40.9v58.4h40.85c4.43,0,5.07-1.46,5.07-4.22v-2.09h-39.63v-20.88h30.58v-6.3h-30.58v-18.55l39.66-.02v-2.11c0-2.76-.64-4.24-5.05-4.24Zm116.9,0h-40.9v58.4h40.85c4.43,0,5.07-1.46,5.07-4.22v-2.09h-39.63v-20.88h30.57v-6.3h-30.57v-18.55l39.66-.02v-2.11c0-2.76-.64-4.24-5.06-4.24Zm61.22,32.97c2.35,.53,3.61,1.4,4.83,2.89,1.98,2.46,2.2,4.13,2.2,14.21v8.33h-6.36v-10c0-5.96-.53-8.51-2.14-10.17-1.59-1.75-3.87-2.54-9.28-2.54h-32.97v22.71h-6.38v-58.42h31.74l7.15,.09c9.45,.08,12.64,.97,15.53,4.03,.77,.88,1.45,1.93,1.91,3.07,1.23,2.81,1.6,5.62,1.6,10.35,0,6.75-.53,10-2.13,12.02-1.52,1.75-2.74,2.71-5.7,3.42Zm1.44-15.44c0-4.13-.92-7.91-2.36-9.04-2.2-1.77-5.09-2.11-17.42-2.11h-25.36v22.87h31.45c9.13,0,12.17-1.36,13.09-5.31,.31-1.41,.61-3.72,.61-6.41Z"/></g><g class="cls-4"><path class="cls-1" d="M453.82,210.67c-28.73-22.6-55.68-50.47-40.19-89.37,15.5-38.9,34.02-55.46,29.53-103.15,40.21,48,50.28,66.19,50.28,66.19,27.03,48.67-26.06,81.31-31.43,86.86-5.38,5.55-6.22,8.07-4.56,16.51-2.97-2.71-9.29-11.18-.02-25.2,9.3-14.02,12.95-19.06,12.95-19.06,3.85-6.86,8.99-15.06-7.48-38.65-34.85,43.78-27.31,67.69-17.86,77.61,7.57,7.94,14.48,15.38,8.77,28.26Zm-232.88,16.91c0,53.17-24.3,92.45-96.79,92.45S27.36,280.75,27.36,227.58s24.72-92.46,96.79-92.46,96.79,39.28,96.79,92.46Zm-53.54,0c0-27.12-7.83-49.02-43.24-49.02s-43.25,21.9-43.25,49.02,7.83,49.01,43.25,49.01,43.24-21.9,43.24-49.01Zm210.15-36.87c9.88-9.89,18.39-29.01,18.39-46.44,0-1.79,.02-2.84,0-4.3h-127.42c-15.2,0-35.22,3.65-35.22,31.43v8.33h92.82l-67.64,71.28c-17.88,18.86-34.54,32.31-34.54,63.59h144.97c15.21,0,35.22-3.59,35.22-31.36v-8.32h-105.89c.17-.17,69.06-73.96,79.31-84.21Zm328.98,95.45v2.1h20.34c-.81,11.93-5.56,19.62-22.24,19.62-18.04,0-22.65-9.04-22.65-22.78s4.61-22.77,22.65-22.77c9.73,0,14.84,3.04,17.35,5.65,1.1,1.16,1.62,.72,3.37-.18,1.85-.96,3.57-1.88,3.57-1.88-4.45-6.2-12.14-9.97-24.3-9.97-21.9,0-29.56,12.39-29.56,29.15s7.66,29.15,29.56,29.15,28.48-12.39,28.48-29.15v-3.16h-21.54c-4.4,0-5.04,1.46-5.04,4.22Zm107.11,28.06h-6.79l-5.28-11.75h-37.24l-5.28,11.75h-6.76l26.26-58.29h8.83l26.26,58.29Zm-14.95-18.12l-15.21-33.8h-1.04l-15.22,33.8h31.46Zm-58.05-40.15s-1.21,0-1.21,0v58.37h6.36v-54.14c0-2.74-.65-4.2-5.15-4.23Zm-191.89,.07s-1.24,0-1.24,0v48.46l-45.55-48.53h-6.36v54.19c0,2.74,.65,4.2,5.15,4.22-.05,0,1.21,0,1.21,0v-47.87l45.55,47.81h6.37s.01-52.23,.01-54.06c0-2.74-.66-4.19-5.15-4.21Zm-64.51-.07h-40.89v58.4h40.85c4.42,0,5.06-1.46,5.06-4.22v-2.09h-39.63v-20.88h30.58v-6.3h-30.58v-18.55l39.66-.02v-2.11c0-2.76-.64-4.24-5.05-4.24Zm116.9,0h-40.9v58.4h40.85c4.43,0,5.07-1.46,5.07-4.22v-2.09h-39.62v-20.88h30.57v-6.3h-30.57v-18.55l39.66-.02v-2.11c0-2.76-.64-4.24-5.06-4.24Zm61.22,32.97c2.35,.53,3.61,1.4,4.83,2.89,1.98,2.46,2.21,4.13,2.21,14.21v8.33h-6.36v-10c0-5.96-.53-8.51-2.14-10.17-1.59-1.75-3.87-2.54-9.28-2.54h-32.96v22.71h-6.38v-58.42h31.74l7.15,.09c9.45,.08,12.64,.97,15.53,4.03,.77,.88,1.46,1.93,1.91,3.07,1.22,2.81,1.6,5.62,1.6,10.35,0,6.75-.53,10-2.13,12.02-1.52,1.75-2.75,2.71-5.7,3.42Zm1.44-15.44c0-4.13-.92-7.91-2.36-9.04-2.2-1.77-5.1-2.11-17.43-2.11h-25.36v22.87h31.44c9.13,0,12.17-1.36,13.09-5.31,.31-1.41,.61-3.72,.61-6.41Z"/></g></svg>