<svg xmlns="http://www.w3.org/2000/svg" xmlns:xlink="http://www.w3.org/1999/xlink" width="609.41" height="210.9" viewBox="0 0 609.41 210.9"><defs><linearGradient id="9535f8ec-6929-45be-86ed-8f695f1fc159" y1="105.45" x2="609.41" y2="105.45" gradientUnits="userSpaceOnUse"><stop offset="0.24" stop-color="#6de4b9"/><stop offset="0.39" stop-color="#62dcbe"/><stop offset="0.66" stop-color="#44c7cc"/><stop offset="0.71" stop-color="#3ec2cf"/></linearGradient></defs><title>Asset 2</title><g id="8a4cbb7a-8ee4-47d5-8248-4dbb4809d54a" data-name="Layer 2"><g id="c96e44aa-b742-4f98-812d-3604963f68df" data-name="Layer 1"><path d="M573.44,89h32.12V206.13H541.33V89Zm0-16.3a36,36,0,1,0-36-36A36,36,0,0,0,573.44,72.65ZM129.76,12.05V89h-49v40.13h49v77H194V12.05H129.76ZM0,12.05V206.13H64.24V12.05H0ZM223.42,89V206.13h64.24V89H223.42ZM255.54.71a36,36,0,1,0,36,36A36,36,0,0,0,255.54.71ZM499.2,162.14l20.49,20.49L491.42,210.9,470.55,190a103.55,103.55,0,1,1,28.65-27.89Zm-75.28-18.74L401.56,121l28.27-28.27,23.44,23.44a41.46,41.46,0,1,0-29.35,27.19Z" fill="url(#9535f8ec-6929-45be-86ed-8f695f1fc159)"/></g></g></svg>