<?xml version="1.0" encoding="UTF-8"?><svg id="Layer_1" xmlns="http://www.w3.org/2000/svg" viewBox="0 0 1024 1024"><defs><style>.cls-1{fill:#fff;}</style></defs><path class="cls-1" d="M384.88,616.55c46.29,0,89.67-12.36,127.09-33.92,37.42,21.58,80.84,33.92,127.15,33.92,140.91,0,255.14-114.23,255.14-255.14s-114.23-255.14-255.14-255.14c-46.3,0-89.7,12.34-127.12,33.91-37.43-21.56-80.82-33.91-127.12-33.91-140.91,0-255.14,114.23-255.14,255.14s114.23,255.14,255.14,255.14Zm0-425.65c19.75,0,38.68,3.4,56.29,9.62-10.97,13.49-20.59,28.11-28.66,43.67h205.91c11.43,0,20.69,9.26,20.69,20.69s-9.26,20.69-20.69,20.69h-222.99c-5.48,17.63-9.02,36.1-10.55,55.14h233.55c11.43,0,20.69,9.26,20.69,20.69s-9.26,20.69-20.69,20.69h-233.55c1.53,19.04,5.07,37.51,10.55,55.14h223c11.43,0,20.69,9.26,20.69,20.69s-9.26,20.69-20.69,20.69h-205.92c8.07,15.56,17.69,30.19,28.66,43.67-17.61,6.22-36.54,9.62-56.29,9.62-94.17,0-170.5-76.34-170.5-170.5s76.34-170.5,170.5-170.5Z"/><path class="cls-1" d="M338.08,717.44c-10.74-10.5-23.51-18.85-38.32-24.96-14.82-6.11-30.92-9.19-48.3-9.19s-33.5,3.08-48.32,9.19c-14.8,6.11-27.69,14.48-38.64,25.12-10.95,10.62-19.48,23.08-25.6,37.34-6.12,14.28-9.17,29.47-9.17,45.57v.64c0,16.11,3.05,31.23,9.17,45.4,6.12,14.17,14.54,26.52,25.28,37.06,10.74,10.5,23.51,18.82,38.32,24.96,14.82,6.11,30.92,9.16,48.32,9.16s33.48-3.05,48.3-9.16c14.8-6.13,27.69-14.51,38.64-25.12,10.95-10.64,19.48-23.08,25.6-37.36,6.12-14.28,9.17-29.47,9.17-45.57v-.64c0-16.11-3.05-31.23-9.17-45.4-6.12-14.17-14.55-26.5-25.28-37.03Zm-29.3,83.72c0,8.18-1.41,15.91-4.2,23.19-2.8,7.31-6.68,13.7-11.62,19.16-4.96,5.49-10.98,9.83-18.09,13.05-7.1,3.22-14.96,4.82-23.57,4.82s-16.47-1.65-23.57-4.99c-7.1-3.33-13.19-7.79-18.25-13.36-5.06-5.57-8.99-12.02-11.79-19.33-2.79-7.28-4.19-15.01-4.19-23.19v-.64c0-8.15,1.34-15.88,4.03-23.19,2.69-7.28,6.55-13.67,11.62-19.16,5.06-5.46,11.09-9.8,18.08-13.02,7-3.22,14.8-4.85,23.42-4.85s16.47,1.68,23.57,5.01c7.11,3.31,13.25,7.76,18.42,13.36,5.15,5.57,9.14,12.02,11.95,19.3,2.79,7.31,4.2,15.04,4.2,23.19v.64Z"/><polygon class="cls-1" points="377.69 740.63 486.85 740.63 373.82 867.82 373.82 913.22 573.15 913.22 573.15 860.43 460.12 860.43 573.15 733.21 573.15 687.81 377.69 687.81 377.69 740.63"/><path class="cls-1" d="M689.8,750.24c-7.65-7.51-16.86-11.27-27.63-11.27h-52.42v121.08h11.9v-43.91h40.52c10.77,0,19.98-3.8,27.63-11.39,7.65-7.59,11.47-16.67,11.47-27.24s-3.82-19.76-11.47-27.27Zm-8.59,46.79c-5.18,5.33-11.52,8-19.04,8h-40.52v-54.95h40.52c7.57,0,13.93,2.67,19.08,8,5.15,5.33,7.73,11.83,7.73,19.47s-2.59,14.14-7.77,19.47Z"/><path class="cls-1" d="M789.21,785.48h-.31c-4.21-6.36-9.58-11.56-16.12-15.61-6.54-4.05-14.23-6.07-23.06-6.07-13.82,0-25.49,4.82-35,14.47-9.51,9.64-14.27,21.3-14.27,34.96s4.77,25.48,14.31,35.12c9.54,9.64,21.19,14.47,34.96,14.47,8.67,0,16.32-2.05,22.94-6.15,6.62-4.1,12.03-9.27,16.24-15.53h.31v18.92h11.98v-93.49h-11.98v18.92Zm-11.27,55.14c-7.52,7.49-16.55,11.23-27.12,11.23s-19.68-3.74-27.04-11.23c-7.36-7.49-11.04-16.62-11.04-27.39s3.68-19.73,11.04-27.2c7.36-7.46,16.37-11.19,27.04-11.19s19.6,3.73,27.12,11.19c7.51,7.46,11.27,16.53,11.27,27.2s-3.76,19.9-11.27,27.39Z"/><polygon class="cls-1" points="849.88 842.47 849.57 842.47 818.27 766.56 805.18 766.56 843.42 858.08 830.8 887.64 843.73 887.64 894.26 766.56 881.18 766.56 849.88 842.47"/></svg>