<?xml version="1.0" encoding="UTF-8"?>
<svg id="Camada_2" data-name="Camada 2" xmlns="http://www.w3.org/2000/svg" xmlns:xlink="http://www.w3.org/1999/xlink" viewBox="0 0 141.28 243.21">
  <defs>
    <style>
      .cls-1 {
        fill: #fff;
      }

      .cls-2 {
        stroke: #003da6;
        stroke-linecap: round;
        stroke-linejoin: round;
        stroke-width: .38px;
      }

      .cls-2, .cls-3, .cls-4 {
        fill: none;
      }

      .cls-4 {
        clip-path: url(#clippath);
      }

      .cls-5 {
        fill: #003da6;
      }
    </style>
    <clipPath id="clippath">
      <rect class="cls-3" width="141.28" height="243.21"/>
    </clipPath>
  </defs>
  <g id="Layer_1" data-name="Layer 1">
    <g class="cls-4">
      <g>
        <g>
          <path class="cls-1" d="m15.89,186.88l.76-8.12h.77l.69.3s2.23.91,3.8-1.42c0,0,4.12-.64,5.19-3.11,0,0,1.71-3.73-1.02-6.09s-5.08-1.79-5.08-1.79c0,0-2.03-4.27-6.15-4.27,0,0-6.33.44-6.3,4.13h-1.69s-.34-.93-.34-.93c0,0-3.33-4.81-9.06-2.51,0,0-3.32,1.17-4.07,5.26,0,0-4.96,2.75-2.56,7.57,0,0,2.43,4.91,7.54,2.06,0,0,1.22,1.14,2.78.54l-1.24,8.77h2.16l.57-8.61s.45-.19,1.32.33c0,0,2.78.98,3.94-1.47,0,0,.99,1.49,3.47.92l.71-.33h.48s.35.45.35.45l.5.17s1.22.3,1.71,0l-1.27,8.16,2.02-.02Z"/>
          <path class="cls-1" d="m34.22,168.43l-.73.46-.3.49-.03.62.22.63s.22.41.24.46.6.37.6.37l.63.12.38-.32.11-.31.26-.12.73.15.29.3.66.06.27.08.35-.08.16-.29.69-.03.51-.4.49-.63-.11-.96-.53-.88s-.76-.23-.8-.23-.34-.01-.41,0-.43-.6-.43-.6l-.52-.43s-.65-.05-.7-.05-.92.11-.92.11l-.74.43s-.41.49-.43.54.06.49.06.49Z"/>
          <path class="cls-1" d="m98.49,133.23l.61-.39s.26-.43.31-.43.97.36.97.36l.88.46s.54-.09.6-.09.41-.32.41-.32c0,0,.4-.13.44-.13s.7-.37.7-.37l.2-.38.34-.18.07-.81-.07-.77-.58-.87-.72-.3h-.8s-.16-.34-.16-.34l-.78-.62-.85-.16h-1.04l-.53.45-.6.52-.28.69-.76.57s-.27.68-.27.74-.03.7-.03.7l.3.87.64.49,1.01.38v-.07Z"/>
          <path class="cls-1" d="m106.81,133.53l-.68.43-.19.59-.2.94.18.68.36.46.53.3.55.08.53-.17.28-.22.37-.26.88.13.98.51h.53l.5-.26.35-.2s.61-.27.65-.3.47-.45.47-.45l.16-.96-.16-.96-.57-.76-.97-.2s-.41-.07-.42-.15c-.01-.08-.68-.74-.68-.74l-.85-.3h-.75l-.62.3-.53.19-.46.35-.23.49-.03.47Z"/>
          <path class="cls-5" d="m35.24,166.25c-.07,0-.14-.03-.19-.08l-6.01-6.01c-2.64-2.64-6.15-4.09-9.87-4.09s-7.24,1.45-9.87,4.09l-2.9,2.89c-.1.1-.27.1-.38,0s-.1-.27,0-.38l2.9-2.9c2.74-2.74,6.38-4.25,10.25-4.25s7.51,1.51,10.25,4.25l6.01,6.01c.1.1.1.27,0,.38-.05.05-.12.08-.19.08"/>
          <path class="cls-5" d="m70.37,165.54c-.07,0-.14-.03-.19-.08l-9.56-9.56c-.1-.1-.1-.27,0-.38.1-.1.27-.1.38,0l9.56,9.56c.1.1.1.27,0,.38-.05.05-.12.08-.19.08"/>
          <path class="cls-5" d="m28.27,159.35c-.07,0-.14-.03-.19-.08-.1-.1-.1-.27,0-.38l10.04-10.04c4.47-4.46,11.73-4.46,16.2,0l6.68,6.68c.1.1.1.27,0,.38-.1.1-.27.1-.38,0l-6.68-6.68c-4.26-4.26-11.19-4.26-15.44,0l-10.04,10.04c-.05.05-.12.08-.19.08"/>
          <path class="cls-5" d="m-6.84,152.57c-.07,0-.14-.03-.19-.08-.1-.1-.1-.27,0-.38l9.19-9.2c4.1-4.1,10.77-4.1,14.87,0l2.43,2.43c.1.1.1.27,0,.38-.1.1-.27.1-.38,0l-2.43-2.43c-3.89-3.89-10.22-3.89-14.11,0l-9.19,9.2c-.05.05-.12.08-.19.08"/>
          <path class="cls-5" d="m30.55,157.07c-.07,0-.14-.03-.19-.08l-12.93-12.93c-.11-.1-.11-.27,0-.38.1-.1.27-.1.38,0l12.93,12.93c.1.1.1.27,0,.38-.05.05-.12.08-.19.08"/>
          <path class="cls-5" d="m68.77,161.97c-.07,0-.13-.02-.18-.07-.11-.1-.11-.27-.01-.38l1.78-1.89c2.36-2.36,6.18-2.36,8.53,0l1.37,1.36c.1.1.1.27,0,.38-.11.1-.27.1-.38,0l-1.36-1.36c-2.14-2.14-5.63-2.14-7.77,0l-1.77,1.88c-.05.06-.12.08-.19.08"/>
          <path class="cls-5" d="m86.82,168.2c-.07,0-.14-.03-.19-.08l-7.68-7.69c-.1-.1-.1-.27,0-.38.1-.1.27-.1.38,0l7.68,7.68c.1.1.1.27,0,.38-.05.05-.12.08-.19.08"/>
          <path class="cls-5" d="m5.14,179.53c-.6,0-1.19-.19-1.76-.58-.12-.08-.15-.25-.07-.37.08-.12.25-.15.37-.07.95.65,1.94.65,2.93.01.78-.5,1.27-1.22,1.27-1.22.05-.07.13-.12.22-.12,2.88,0,5.23-2.34,5.23-5.22s-2.34-5.23-5.23-5.23c-.3,0-.62.03-.97.1-.12.02-.24-.04-.29-.15-1.16-2.45-3.65-4.03-6.35-4.03-3.4,0-6.31,2.43-6.91,5.78-.01.08-.07.16-.14.19-1.83.88-2.96,2.68-2.96,4.69,0,2.88,2.34,5.23,5.23,5.23.11,0,2.04.2,2.81-1.4.06-.13.22-.19.35-.13.13.06.19.22.13.35-.93,1.94-3.22,1.71-3.32,1.7h0c-3.15,0-5.73-2.58-5.73-5.76,0-2.17,1.2-4.12,3.14-5.11.7-3.53,3.79-6.09,7.41-6.09,2.83,0,5.46,1.62,6.74,4.15.31-.05.59-.07.87-.07,3.18,0,5.76,2.58,5.76,5.76s-2.51,5.68-5.62,5.76c-.28.37-1.24,1.51-2.57,1.77-.18.03-.36.05-.53.05"/>
          <path class="cls-5" d="m2.7,177.05c-.12,0-.22-.08-.26-.19l-.78-2.8c-.04-.14.04-.29.19-.33.14-.04.29.04.33.19l.78,2.8c.04.14-.04.29-.18.33-.02,0-.05.01-.07.01"/>
          <path class="cls-5" d="m1.93,187.19s-.02,0-.03,0c-.15-.01-.25-.14-.24-.29l.77-8.29c.01-.15.15-.25.29-.24.15.01.25.14.24.29l-.77,8.29c-.01.14-.13.24-.27.24"/>
          <path class="cls-5" d="m.88,175.27c-.13,0-.24-.09-.26-.22L0,171.73c-.03-.14.07-.28.21-.31.14-.03.28.07.31.21l.62,3.33c.03.14-.07.28-.21.31-.02,0-.03,0-.05,0"/>
          <path class="cls-5" d="m-.06,187.13s-.03,0-.04,0c-.14-.02-.25-.16-.23-.3l1.34-9.37-.13-.85c-.02-.14.08-.28.22-.3.14-.02.28.08.3.22l.14.89s0,.05,0,.08l-1.34,9.41c-.02.13-.13.23-.26.23"/>
          <path class="cls-5" d="m2.92,177.97c-.07,0-.13-.02-.18-.07-.11-.1-.11-.27-.01-.38l2.64-2.79c.1-.11.27-.11.38-.01.11.1.11.27.01.38l-2.64,2.79c-.05.06-.12.08-.19.08"/>
          <path class="cls-5" d="m4.24,169.03s-.07,0-.1-.02c-.14-.05-.2-.21-.15-.34.8-2.03,2.98-2.35,3.07-2.36.15-.02.28.08.3.23.02.14-.08.28-.23.3-.02,0-1.96.29-2.65,2.03-.04.11-.14.17-.25.17"/>
          <path class="cls-5" d="m.87,176.11s-.04,0-.06,0l-3.17-.7c-.14-.03-.24-.17-.2-.32.03-.14.18-.24.32-.2l3.18.7c.14.03.23.17.2.32-.03.12-.14.21-.26.21"/>
          <path class="cls-5" d="m7.55,177.75c-.49,0-1.18-.08-1.79-.44-.13-.08-.17-.24-.1-.36.08-.13.24-.17.37-.09.88.52,2.03.33,2.04.33.14-.03.28.07.31.22s-.07.28-.22.31c-.02,0-.26.04-.61.04"/>
          <path class="cls-5" d="m3.54,173.45s-.02,0-.03,0c-3.83-.37-4.49-3.61-4.49-3.65-.03-.14.07-.28.21-.31.14-.03.28.07.31.21.02.12.59,2.88,4.02,3.21.15.01.25.14.24.29-.01.14-.13.24-.26.24"/>
          <path class="cls-5" d="m6.6,176.12s-.09-.01-.13-.04c-1.84-1.09-.96-2.78-.95-2.8.07-.13.23-.18.36-.11.13.07.18.23.11.36-.07.13-.62,1.28.75,2.09.13.08.17.24.09.36-.05.08-.14.13-.23.13"/>
          <path class="cls-5" d="m-.27,178.99c-.82,0-1.41-.58-1.64-.95-.08-.13-.04-.29.09-.37.13-.08.29-.04.37.09.03.04.6.95,1.62.62.14-.05.29.03.34.17.05.14-.03.29-.17.34-.21.07-.42.1-.61.1"/>
          <path class="cls-5" d="m10.13,172.51c-.12,0-.23-.08-.26-.2-.04-.14.05-.29.19-.32.35-.09.63-.3.82-.61.18-.31.23-.66.15-1.01-.09-.35-.3-.63-.61-.82-.3-.18-.66-.24-1.01-.15-.14.03-.29-.05-.32-.19-.04-.14.05-.29.19-.32.48-.12.98-.05,1.41.21.43.25.73.66.85,1.14.12.48.05.98-.21,1.41-.26.43-.66.73-1.14.85-.02,0-.04,0-.07,0"/>
          <path class="cls-5" d="m11.02,174.11c-.06,0-.13-.02-.18-.07-.11-.1-.12-.27-.02-.38.21-.24.32-.54.3-.86-.02-.32-.16-.61-.4-.82-.11-.1-.12-.27-.02-.38.1-.11.27-.12.38-.02.34.31.55.73.57,1.19.03.46-.13.9-.44,1.25-.05.06-.13.09-.2.09"/>
          <path class="cls-5" d="m.86,165.21c-.06,0-.13-.02-.18-.07-.11-.1-.12-.27-.02-.38.31-.35.73-.55,1.19-.57.46-.02.9.13,1.25.44.11.1.12.27.02.38-.1.11-.26.12-.37.02-.24-.21-.55-.32-.86-.3-.32.02-.61.16-.82.4-.05.06-.12.09-.2.09"/>
          <path class="cls-5" d="m19.14,179.6c-.6,0-1.19-.19-1.76-.58-.12-.08-.15-.25-.07-.37.08-.12.25-.15.37-.07.62.42,1.25.57,1.89.45,1.36-.26,2.31-1.64,2.32-1.66.05-.07.13-.12.22-.12,2.88,0,5.23-2.34,5.23-5.23s-2.35-5.23-5.23-5.23c-.3,0-.62.03-.97.1-.12.02-.24-.04-.29-.15-1.16-2.45-3.65-4.03-6.35-4.03-2.14,0-4.14.96-5.48,2.63-.09.12-.26.13-.37.04-.11-.09-.13-.26-.04-.37,1.44-1.8,3.59-2.83,5.89-2.83,2.83,0,5.46,1.62,6.74,4.15.3-.05.59-.07.87-.07,3.18,0,5.76,2.58,5.76,5.76s-2.51,5.68-5.62,5.76c-.28.37-1.24,1.51-2.58,1.77-.18.03-.36.05-.53.05"/>
          <path class="cls-5" d="m10.67,178.87c-.68,0-1.19-.24-1.21-.24-.13-.06-.19-.22-.13-.35.06-.13.22-.19.36-.13.07.03,1.78.81,2.85-.96.08-.13.24-.17.36-.09.13.08.17.24.09.36-.68,1.13-1.6,1.41-2.33,1.41"/>
          <path class="cls-5" d="m16.69,177.12c-.12,0-.22-.08-.26-.19l-.78-2.8c-.04-.14.04-.29.19-.33.14-.04.29.04.33.19l.78,2.8c.04.14-.04.29-.18.33-.02,0-.05,0-.07,0"/>
          <path class="cls-5" d="m15.93,187.19s-.02,0-.03,0c-.15-.01-.25-.14-.24-.29l.76-8.22c.01-.15.14-.25.29-.24.15.01.25.14.24.29l-.76,8.22c-.01.14-.13.24-.27.24"/>
          <path class="cls-5" d="m16.92,178.04c-.07,0-.13-.02-.18-.07-.11-.1-.11-.27-.01-.38l2.64-2.79c.1-.11.27-.11.38-.01.11.1.11.27.01.38l-2.64,2.79c-.05.06-.12.08-.19.08"/>
          <path class="cls-5" d="m18.24,169.09s-.07,0-.1-.02c-.14-.05-.2-.21-.15-.34.8-2.03,2.98-2.35,3.07-2.36.15-.02.28.08.3.23.02.14-.08.28-.23.3-.02,0-1.96.29-2.65,2.03-.04.11-.14.17-.25.17"/>
          <path class="cls-5" d="m13.94,187.19s-.03,0-.04,0c-.15-.02-.25-.16-.23-.3l1.34-9.37-.13-.83-.21-.55-.49-.11c-.14-.03-.24-.17-.2-.32.03-.14.18-.23.32-.2l.63.14c.09.02.16.08.19.16l.27.71s.01.04.02.05l.14.89s0,.05,0,.08l-1.34,9.41c-.02.13-.13.23-.26.23"/>
          <path class="cls-5" d="m21.55,177.82c-.48,0-1.18-.08-1.79-.44-.13-.07-.17-.24-.09-.36.08-.13.24-.17.37-.09.88.52,2.03.33,2.04.33.14-.02.28.07.31.22.03.15-.07.28-.22.31-.02,0-.26.04-.61.04"/>
          <path class="cls-5" d="m17.54,173.52s-.02,0-.03,0c-.97-.09-1.83-.38-2.54-.85-.12-.08-.16-.25-.07-.37.08-.12.25-.16.37-.07.64.42,1.41.68,2.29.77.15.01.25.14.24.29-.01.14-.13.24-.27.24"/>
          <path class="cls-5" d="m20.6,176.19s-.09-.01-.13-.04c-1.84-1.08-.96-2.78-.95-2.8.07-.13.23-.18.36-.11.13.07.18.23.11.36-.07.13-.62,1.29.75,2.09.13.08.17.24.09.36-.05.08-.14.13-.23.13"/>
          <path class="cls-5" d="m13.73,179.06c-.82,0-1.41-.58-1.64-.95-.08-.13-.03-.29.09-.36.12-.08.29-.04.36.09.03.04.6.96,1.62.62.14-.05.29.03.34.17.05.14-.03.29-.17.34-.21.07-.42.1-.61.1"/>
          <path class="cls-5" d="m24.13,172.57c-.12,0-.23-.08-.26-.2-.04-.14.05-.29.19-.32.35-.09.63-.3.82-.61.18-.3.23-.66.15-1.01-.18-.71-.9-1.14-1.61-.97-.14.03-.29-.05-.32-.19-.04-.14.05-.29.19-.32.48-.12.98-.05,1.41.21.43.26.73.66.85,1.14.12.48.05.98-.21,1.41-.26.43-.66.73-1.14.85-.02,0-.04,0-.07,0"/>
          <path class="cls-5" d="m25.02,174.18c-.06,0-.13-.02-.18-.07-.11-.1-.12-.27-.02-.38.44-.49.4-1.25-.09-1.69-.11-.1-.12-.27-.02-.38.1-.11.27-.12.38-.02.71.63.77,1.73.14,2.44-.05.06-.13.09-.2.09"/>
          <path class="cls-5" d="m14.86,165.28c-.06,0-.13-.02-.18-.07-.11-.1-.12-.27-.02-.38.64-.71,1.73-.77,2.44-.14.11.1.12.27.02.38-.1.11-.27.12-.38.02-.49-.44-1.25-.4-1.69.1-.05.06-.13.09-.2.09"/>
          <path class="cls-5" d="m37.49,171.82c-.14,0-.27-.04-.41-.13-.12-.08-.15-.25-.07-.37.08-.12.25-.15.37-.07.25.17.62-.32.62-.33.05-.07.13-.11.22-.11.72,0,1.3-.59,1.3-1.3s-.59-1.31-1.3-1.31c-.07,0-.15,0-.24.03-.12.02-.24-.04-.29-.15-.3-.63-.95-1.04-1.64-1.04-.88,0-1.63.63-1.79,1.5-.01.08-.07.16-.15.19-.46.22-.74.67-.74,1.17,0,.72.58,1.3,1.3,1.3.06,0,.41.01.65-.32l-.61-.26c-.13-.06-.2-.22-.14-.35.06-.13.22-.2.35-.14l.87.38c.13.06.19.21.14.34-.29.76-.97.92-1.28.89h0c-.99,0-1.81-.82-1.81-1.83,0-.66.35-1.26.92-1.59.25-1.05,1.19-1.8,2.28-1.8.84,0,1.61.45,2.03,1.17.05,0,.1,0,.14,0,1.01,0,1.84.82,1.84,1.84s-.75,1.76-1.7,1.83c-.19.22-.52.48-.86.48"/>
          <path class="cls-5" d="m36.18,174.26s-.02,0-.02,0c-.15-.01-.25-.14-.24-.29l.26-2.87-.35-1.6c-.03-.14.06-.29.2-.32.14-.03.28.06.32.2l.36,1.64s0,.05,0,.08l-.26,2.91c-.01.14-.13.24-.27.24"/>
          <path class="cls-5" d="m36.45,171.35c-.08,0-.15-.03-.2-.09-.1-.11-.08-.28.03-.38l1.04-.89c.11-.1.28-.08.38.03.1.11.08.28-.03.38l-1.04.89c-.05.04-.11.06-.17.06"/>
          <path class="cls-5" d="m37.04,168.6c-.08,0-.17-.04-.22-.12-.08-.12-.05-.29.07-.37.48-.32.97-.4.99-.4.14-.02.28.08.3.22.02.14-.08.28-.22.3-.01,0-.4.07-.78.32-.05.03-.1.04-.15.04"/>
          <path class="cls-5" d="m34.96,169.05c-.08,0-.15-.03-.21-.1-.01-.01-.3-.35-.66-.21-.14.05-.29-.01-.35-.15-.06-.14.01-.29.15-.35.73-.29,1.25.34,1.27.37.09.11.08.28-.04.37-.05.04-.11.06-.17.06"/>
          <path class="cls-5" d="m37.79,175.83c-.09,0-.17-.04-.22-.12,0-.01-.84-1.29-2.2-1.75-1.36-.46-2.8.04-2.81.05-.14.05-.29-.02-.34-.16s.02-.29.16-.34c.07-.02,1.62-.58,3.17-.05,1.54.52,2.44,1.91,2.48,1.96.08.12.04.29-.08.37-.04.03-.09.04-.14.04"/>
          <path class="cls-5" d="m34.86,151.6c-.13,0-.24-.09-.26-.22-.36-1.95-2.06-3.36-4.05-3.36s-3.63,1.38-4.03,3.27c-.03.14-.17.23-.31.21-.15-.03-.24-.17-.21-.32.45-2.14,2.36-3.69,4.55-3.69s4.16,1.6,4.57,3.8c.03.14-.07.28-.21.31-.02,0-.03,0-.05,0"/>
          <path class="cls-5" d="m35.54,149.78c-.1,0-.2-.06-.24-.16-.06-.13,0-.29.13-.35l1.5-.69c.13-.06.29,0,.35.13.06.13,0,.29-.13.35l-1.5.69s-.07.02-.11.02m-10.03-.01s-.07,0-.11-.02l-1.51-.69c-.13-.06-.19-.22-.13-.35.06-.13.22-.19.35-.13l1.51.69c.13.06.19.22.13.35-.04.1-.14.16-.24.16m7.99-2.34c-.05,0-.1-.01-.14-.04-.12-.08-.16-.24-.08-.37l.9-1.39c.08-.12.24-.16.37-.08.12.08.16.24.08.37l-.9,1.39c-.05.08-.14.12-.22.12m-5.96,0c-.09,0-.17-.04-.22-.12l-.89-1.39c-.08-.12-.04-.29.08-.37.12-.08.29-.04.37.08l.89,1.39c.08.12.04.29-.08.37-.05.03-.1.04-.14.04m2.98-.87h0c-.15,0-.27-.12-.27-.27v-1.66c0-.15.12-.27.27-.27.16.01.27.12.27.27v1.66c0,.15-.12.27-.27.27"/>
          <path class="cls-5" d="m68.75,173.49c-.07,0-.13-.03-.19-.08l-4.07-4.07c-.11-.1-.11-.27,0-.38.1-.11.27-.11.38,0l4.07,4.07c.1.1.1.27,0,.38-.05.05-.12.08-.19.08"/>
          <path class="cls-5" d="m54.22,158.95c-.07,0-.14-.03-.19-.08l-3.99-3.99c-.1-.1-.1-.27,0-.38.1-.1.27-.1.38,0l3.99,3.99c.1.1.1.27,0,.38-.05.05-.12.08-.19.08"/>
          <path class="cls-5" d="m31.68,168.51c-.07,0-.14-.03-.19-.08l-5.42-5.42c-.1-.1-.1-.27,0-.38.1-.1.27-.1.38,0l5.42,5.42c.1.1.1.27,0,.38-.05.05-.12.08-.19.08"/>
          <path class="cls-5" d="m23.91,155.72c-.07,0-.14-.03-.19-.08l-8.19-8.19c-.11-.1-.11-.27,0-.38.1-.1.27-.1.38,0l8.19,8.19c.1.1.1.27,0,.38-.05.05-.12.08-.19.08"/>
          <path class="cls-5" d="m14.84,155.59c-.07,0-.14-.03-.19-.08l-5.32-5.32c-.1-.1-.1-.27,0-.38.1-.1.27-.1.38,0l5.32,5.32c.1.1.1.27,0,.38-.05.05-.12.08-.19.08"/>
          <path class="cls-5" d="m38.36,160.48c-.07,0-.14-.03-.19-.08l-3.87-3.87c-.11-.1-.11-.27,0-.38.1-.1.27-.1.38,0l3.87,3.87c.1.1.1.27,0,.38-.05.05-.12.08-.19.08"/>
          <path class="cls-5" d="m85.26,180.43c-.07,0-.14-.03-.19-.08l-14.89-14.89c-.1-.1-.1-.27,0-.38.11-.1.27-.1.38,0l14.89,14.89c.1.1.1.27,0,.38-.05.05-.12.08-.19.08"/>
        </g>
        <g>
          <path class="cls-2" d="m32.36,186.71c-.78.78-.53.53-1.32,1.32"/>
          <path class="cls-2" d="m30.46,186.71c-.78.78-.53.53-1.32,1.32"/>
          <path class="cls-2" d="m19.06,186.71c-.78.78-.53.53-1.32,1.32"/>
          <path class="cls-2" d="m17.07,186.71c-.78.78-.53.53-1.32,1.32"/>
          <path class="cls-2" d="m20.96,186.71c-.78.78-.53.53-1.32,1.32"/>
          <path class="cls-2" d="m22.86,186.71c-.78.78-.53.53-1.32,1.32"/>
          <path class="cls-2" d="m24.76,186.71c-.78.78-.53.53-1.32,1.32"/>
          <path class="cls-2" d="m3.18,186.71c-.78.78-.53.53-1.32,1.32"/>
          <path class="cls-2" d="m5.08,186.71c-.78.78-.53.53-1.32,1.32"/>
          <path class="cls-2" d="m6.98,186.71c-.78.78-.53.53-1.32,1.32"/>
          <path class="cls-2" d="m8.88,186.71c-.78.78-.53.53-1.32,1.32"/>
          <path class="cls-2" d="m28.56,186.71c-.78.78-.53.53-1.32,1.32"/>
          <line class="cls-2" x1="34.92" y1="187.36" x2="32.86" y2="187.36"/>
          <line class="cls-2" x1="-.18" y1="187.36" x2="-13.41" y2="187.36"/>
          <line class="cls-2" x1="13.59" y1="187.36" x2="9.19" y2="187.36"/>
          <g>
            <path class="cls-5" d="m87.24,191.83c-.17,0-.3-.13-.3-.3v-14.59c0-.16.13-.3.3-.3s.3.13.3.3v14.59c0,.16-.13.3-.3.3"/>
            <path class="cls-5" d="m131.77,171.75c-.14,0-.27-.1-.29-.25l-.47-2.83s0-.03,0-.05v-3.51h-5.22v.43c0,.16-.13.3-.3.3s-.3-.13-.3-.3v-.73c0-.17.13-.3.3-.3h5.82c.16,0,.3.13.3.3v3.78l.46,2.81c.03.16-.08.32-.25.34-.02,0-.03,0-.05,0"/>
            <path class="cls-5" d="m138.3,170.07h-5.73c-.17,0-.3-.13-.3-.3s.13-.3.3-.3h5.73c.16,0,.3.13.3.3s-.13.3-.3.3"/>
            <path class="cls-5" d="m142.94,170.07h-2.92c-.16,0-.3-.13-.3-.3s.13-.3.3-.3h2.92c.16,0,.3.13.3.3s-.13.3-.3.3"/>
            <path class="cls-5" d="m87.24,177.24s-.08,0-.12-.03c-.15-.07-.22-.24-.15-.39l3.57-7.97c.05-.11.16-.18.27-.18h1.81c.16,0,.3.13.3.3s-.13.3-.3.3h-1.62l-3.49,7.8c-.05.11-.16.18-.27.18"/>
            <path class="cls-5" d="m125.24,170.07h-32.8c-.16,0-.3-.13-.3-.3s.13-.3.3-.3h32.8c.17,0,.3.13.3.3s-.13.3-.3.3"/>
            <path class="cls-5" d="m125.05,171.14s-.03,0-.05,0c-.16-.03-.27-.18-.25-.34l.35-2.19v-2.34c0-.16.13-.3.3-.3h4.82c.16,0,.3.13.3.3s-.13.3-.3.3h-4.52v2.07s0,.03,0,.05l-.36,2.22c-.02.15-.15.25-.29.25"/>
            <path class="cls-5" d="m127.42,191.83c-.16,0-.3-.13-.3-.3v-12.03h-5.9v10.21c0,.16-.13.3-.3.3s-.3-.13-.3-.3v-10.51c0-.16.13-.3.3-.3h6.5c.16,0,.3.13.3.3v12.33c0,.16-.13.3-.3.3"/>
            <path class="cls-5" d="m140.02,186.4c-.16,0-.3-.13-.3-.3v-6.6h-4.51v6.3h3.61c.16,0,.3.13.3.3s-.13.3-.3.3h-3.91c-.16,0-.3-.13-.3-.3v-6.9c0-.16.13-.3.3-.3h5.11c.16,0,.3.13.3.3v6.9c0,.16-.13.3-.3.3"/>
            <path class="cls-5" d="m113.55,186.4c-.16,0-.3-.13-.3-.3v-6.6h-4.51v6.3h3.66c.17,0,.3.13.3.3s-.13.3-.3.3h-3.96c-.16,0-.3-.13-.3-.3v-6.9c0-.16.13-.3.3-.3h5.11c.17,0,.3.13.3.3v6.9c0,.16-.13.3-.3.3"/>
            <path class="cls-5" d="m125.63,164.33c-.07,0-.14-.03-.2-.08-.12-.11-.13-.3-.02-.42l.91-1c.06-.06.14-.1.22-.1h3.6c.08,0,.16.03.21.09l.93.93c.12.12.12.31,0,.42-.12.12-.31.12-.42,0l-.85-.85h-3.35l-.82.9c-.06.07-.14.1-.22.1"/>
            <path class="cls-5" d="m139.14,171.18c-.16,0-.3-.13-.3-.3v-5.13c0-.16.13-.3.3-.3s.3.13.3.3v5.13c0,.16-.13.3-.3.3"/>
            <path class="cls-5" d="m138.12,167.07c-.08,0-.15-.03-.21-.09-.12-.12-.12-.31,0-.42l2.13-2.13c.12-.12.31-.12.42,0,.12.12.12.31,0,.42l-2.13,2.13c-.06.06-.13.09-.21.09"/>
            <path class="cls-5" d="m140.6,167.09c-.08,0-.15-.03-.21-.09-.12-.12-.12-.31,0-.42l2.15-2.15c.12-.12.31-.12.42,0,.12.12.12.31,0,.42l-2.15,2.15c-.06.06-.13.09-.21.09"/>
            <path class="cls-5" d="m140.53,166c-.08,0-.15-.03-.21-.09-.12-.12-.12-.31,0-.42l1.07-1.06c.12-.12.31-.12.42,0,.12.12.12.31,0,.42l-1.07,1.06c-.06.06-.13.09-.21.09"/>
            <path class="cls-5" d="m142.91,166.04h-5.22c-.16,0-.3-.13-.3-.3s.13-.3.3-.3h5.22c.16,0,.3.13.3.3s-.13.3-.3.3"/>
            <path class="cls-5" d="m119.73,188.78h-30.76c-.16,0-.3-.13-.3-.3v-11.54c0-.16.13-.3.3-.3s.3.13.3.3v11.24h30.46c.17,0,.3.13.3.3s-.13.3-.3.3"/>
            <path class="cls-5" d="m146.31,188.78h-17.69c-.17,0-.3-.13-.3-.3v-10.37c0-.16.13-.3.3-.3s.3.13.3.3v10.07h17.09v-11.24c0-.16.13-.3.3-.3s.3.13.3.3v11.54c0,.16-.13.3-.3.3"/>
            <path class="cls-5" d="m119.73,188.78c-.16,0-.3-.13-.3-.3v-10.37c0-.16.13-.3.3-.3s.3.13.3.3v10.37c0,.16-.13.3-.3.3"/>
            <path class="cls-5" d="m107.42,187.34c-.16,0-.3-.13-.3-.3v-8.78c0-.16.13-.3.3-.3s.3.13.3.3v8.78c0,.16-.13.3-.3.3"/>
            <path class="cls-5" d="m114.57,187.34c-.16,0-.3-.13-.3-.3v-8.78c0-.16.13-.3.3-.3s.3.13.3.3v8.78c0,.16-.13.3-.3.3"/>
            <path class="cls-5" d="m141.05,187.34c-.16,0-.3-.13-.3-.3v-8.78c0-.16.13-.3.3-.3s.3.13.3.3v8.78c0,.16-.13.3-.3.3"/>
            <path class="cls-5" d="m133.89,187.34c-.16,0-.3-.13-.3-.3v-8.78c0-.16.13-.3.3-.3s.3.13.3.3v8.78c0,.16-.13.3-.3.3"/>
            <path class="cls-5" d="m100.31,186.4c-.17,0-.3-.13-.3-.3v-6.6h-4.51v6.3h3.61c.16,0,.3.13.3.3s-.13.3-.3.3h-3.91c-.16,0-.3-.13-.3-.3v-6.9c0-.16.13-.3.3-.3h5.11c.16,0,.3.13.3.3v6.9c0,.16-.13.3-.3.3"/>
            <path class="cls-5" d="m94.18,187.34c-.16,0-.3-.13-.3-.3v-8.78c0-.16.13-.3.3-.3s.3.13.3.3v8.78c0,.16-.13.3-.3.3"/>
            <path class="cls-5" d="m101.34,187.34c-.16,0-.3-.13-.3-.3v-8.78c0-.16.13-.3.3-.3s.3.13.3.3v8.78c0,.16-.13.3-.3.3"/>
            <path class="cls-5" d="m89.52,176.21s-.08,0-.12-.03c-.15-.07-.22-.24-.15-.39l3.11-6.94c.07-.15.24-.22.4-.15.15.07.22.24.15.39l-3.11,6.94c-.05.11-.16.18-.27.18"/>
            <path class="cls-5" d="m148.2,177.24h-60.96c-.16,0-.3-.13-.3-.3s.13-.3.3-.3h60.5l-3.3-7.37h-1.23l2.91,6.51c.07.15,0,.33-.15.39-.15.07-.33,0-.39-.15l-3.1-6.93c-.04-.09-.03-.2.02-.28.06-.08.15-.14.25-.14h1.88c.12,0,.22.07.27.18l3.57,7.97c.04.09.03.2-.02.28-.05.09-.15.14-.25.14"/>
            <path class="cls-5" d="m136.53,191.83h-12.78c-.17,0-.3-.13-.3-.3s.13-.3.3-.3h12.78c.16,0,.3.13.3.3s-.13.3-.3.3"/>
            <path class="cls-5" d="m93.26,191.83h-6.01c-.17,0-.3-.13-.3-.3s.13-.3.3-.3h6.01c.16,0,.3.13.3.3s-.13.3-.3.3"/>
            <path class="cls-5" d="m101.34,178.56h-6.13c-.17,0-.3-.13-.3-.3s.13-.3.3-.3h6.13c.16,0,.3.13.3.3s-.13.3-.3.3"/>
            <path class="cls-5" d="m114.57,178.56h-6.13c-.17,0-.3-.13-.3-.3s.13-.3.3-.3h6.13c.16,0,.3.13.3.3s-.13.3-.3.3"/>
            <path class="cls-5" d="m141.05,178.56h-6.23c-.16,0-.3-.13-.3-.3s.13-.3.3-.3h6.23c.16,0,.3.13.3.3s-.13.3-.3.3"/>
            <path class="cls-5" d="m128.62,178.42h-7.69c-.16,0-.3-.13-.3-.3s.13-.3.3-.3h7.69c.16,0,.3.13.3.3s-.13.3-.3.3"/>
            <path class="cls-5" d="m110.07,192.56c-.08,0-.15-.03-.21-.09-.12-.12-.12-.31,0-.42l1.13-1.13c.12-.12.31-.12.42,0,.12.12.12.31,0,.42l-1.13,1.13c-.06.06-.13.09-.21.09"/>
            <path class="cls-5" d="m113.76,192.56c-.08,0-.15-.03-.21-.09-.12-.12-.12-.31,0-.42l1.13-1.13c.12-.12.31-.12.42,0,.12.12.12.31,0,.42l-1.13,1.13c-.06.06-.13.09-.21.09"/>
            <path class="cls-5" d="m121.16,192.56c-.08,0-.15-.03-.21-.09-.12-.12-.12-.31,0-.42l1.13-1.13c.12-.12.31-.12.42,0,.12.12.12.31,0,.42l-1.13,1.13c-.06.06-.13.09-.21.09"/>
            <path class="cls-5" d="m115.61,192.56c-.08,0-.15-.03-.21-.09-.12-.12-.12-.31,0-.42l1.13-1.13c.12-.12.31-.12.42,0,.12.12.12.31,0,.42l-1.13,1.13c-.06.06-.13.09-.21.09"/>
            <path class="cls-5" d="m119.31,192.56c-.08,0-.15-.03-.21-.09-.12-.12-.12-.31,0-.42l1.13-1.13c.12-.12.31-.12.42,0,.12.12.12.31,0,.42l-1.13,1.13c-.06.06-.13.09-.21.09"/>
            <path class="cls-5" d="m97.08,192.56c-.08,0-.15-.03-.21-.09-.12-.12-.12-.31,0-.42l1.13-1.13c.12-.12.31-.12.42,0,.12.12.12.31,0,.42l-1.13,1.13c-.06.06-.13.09-.21.09"/>
            <path class="cls-5" d="m100.78,192.56c-.08,0-.15-.03-.21-.09-.12-.12-.12-.31,0-.42l1.13-1.13c.12-.12.31-.12.42,0,.12.12.12.31,0,.42l-1.13,1.13c-.06.06-.13.09-.21.09"/>
            <path class="cls-5" d="m104.47,192.56c-.08,0-.15-.03-.21-.09-.12-.12-.12-.31,0-.42l1.13-1.13c.12-.12.31-.12.42,0,.12.12.12.31,0,.42l-1.13,1.13c-.06.06-.14.09-.21.09"/>
            <path class="cls-5" d="m106.32,192.56c-.08,0-.15-.03-.21-.09-.12-.12-.12-.31,0-.42l1.13-1.13c.12-.12.31-.12.42,0,.12.12.12.31,0,.42l-1.13,1.13c-.06.06-.13.09-.21.09"/>
            <path class="cls-5" d="m108.17,192.56c-.08,0-.15-.03-.21-.09-.12-.12-.12-.31,0-.42l1.13-1.13c.12-.12.31-.12.42,0,.12.12.12.31,0,.42l-1.13,1.13c-.06.06-.13.09-.21.09"/>
            <path class="cls-5" d="m94.98,192.56c-.08,0-.15-.03-.21-.09-.12-.12-.12-.31,0-.42l1.13-1.13c.12-.12.31-.12.42,0,.12.12.12.31,0,.42l-1.13,1.13c-.06.06-.14.09-.21.09"/>
            <path class="cls-5" d="m98.93,192.56c-.08,0-.15-.03-.21-.09-.12-.12-.12-.31,0-.42l1.13-1.13c.12-.12.31-.12.42,0,.12.12.12.31,0,.42l-1.13,1.13c-.06.06-.13.09-.21.09"/>
            <path class="cls-5" d="m102.62,192.56c-.08,0-.15-.03-.21-.09-.12-.12-.12-.31,0-.42l1.13-1.13c.12-.12.31-.12.42,0,.12.12.12.31,0,.42l-1.13,1.13c-.06.06-.13.09-.21.09"/>
            <path class="cls-5" d="m139.32,192.56c-.08,0-.15-.03-.21-.09-.12-.12-.12-.31,0-.42l1.13-1.13c.12-.12.31-.12.42,0,.12.12.12.31,0,.42l-1.13,1.13c-.06.06-.13.09-.21.09"/>
            <path class="cls-5" d="m141.16,192.56c-.08,0-.15-.03-.21-.09-.12-.12-.12-.31,0-.42l1.13-1.13c.12-.12.31-.12.42,0,.12.12.12.31,0,.42l-1.13,1.13c-.06.06-.13.09-.21.09"/>
            <path class="cls-5" d="m137.47,192.56c-.08,0-.15-.03-.21-.09-.12-.12-.12-.31,0-.42l1.13-1.13c.12-.12.31-.12.42,0,.12.12.12.31,0,.42l-1.13,1.13c-.06.06-.13.09-.21.09"/>
            <path class="cls-5" d="m87.24,191.83h-5.05c-.16,0-.3-.13-.3-.3s.13-.3.3-.3h5.05c.16,0,.3.13.3.3s-.13.3-.3.3"/>
          </g>
        </g>
        <g>
          <path class="cls-5" d="m140.28,147.98s-.07,0-.1-.02c-1.9-.82-3.77-1.71-5.76-2.65l-.35-.17c-1-.47-2.09-1.02-3.24-1.6-4.59-2.3-10.3-5.17-17.38-7.03-.13-.04-.21-.17-.18-.31s.18-.21.31-.18c7.13,1.87,12.86,4.75,17.47,7.07,1.15.58,2.24,1.12,3.23,1.6l.35.17c1.98.94,3.85,1.82,5.74,2.64.13.06.18.2.13.33-.04.09-.13.15-.23.15"/>
          <path class="cls-5" d="m104.74,134.92s-.02,0-.03,0c-1.13-.11-2.29-.2-3.44-.24-.14,0-.25-.12-.24-.26,0-.14.11-.25.26-.24,1.16.04,2.32.13,3.47.24.14.01.24.14.22.28-.01.13-.12.23-.25.23"/>
          <path class="cls-5" d="m64.57,153.4s-.09-.01-.14-.04c-.12-.08-.15-.23-.07-.35,6.81-10.28,15.57-16.4,26.04-18.19,2.69-.46,5.63-.69,8.76-.69.14,0,.25.11.25.25s-.11.25-.25.25c-3.1,0-6.01.23-8.67.69-10.33,1.77-18.97,7.81-25.71,17.97-.05.07-.13.11-.21.11"/>
          <path class="cls-5" d="m114.91,136.74c-.08,0-.17-.04-.21-.12-.07-.12-.04-.27.08-.35.08-.05,8.03-5.01,18.81-6.88.14-.02.27.07.29.2.02.14-.07.27-.2.29-10.67,1.86-18.55,6.76-18.63,6.81-.04.03-.09.04-.13.04"/>
          <path class="cls-5" d="m101.51,133.46c-.15,0-.3-.04-.44-.14-.11-.08-.14-.24-.06-.35.08-.11.24-.14.35-.06.33.23.79-.38.79-.39.05-.06.12-.1.2-.1.85,0,1.55-.69,1.55-1.55s-.7-1.55-1.55-1.55c-.09,0-.18,0-.29.03-.11.02-.22-.04-.27-.14-.35-.74-1.11-1.22-1.93-1.22-1.03,0-1.92.74-2.1,1.76-.01.08-.07.15-.14.18-.54.26-.88.79-.88,1.39,0,.85.69,1.55,1.55,1.55.04,0,.53.03.82-.45l-.75-.33c-.13-.06-.18-.2-.13-.33.06-.13.2-.19.33-.13l.99.43c.12.05.18.19.14.32-.32.85-1.07,1.01-1.42.98h0c-1.11,0-2.03-.92-2.03-2.05,0-.75.4-1.42,1.05-1.78.27-1.19,1.33-2.05,2.57-2.05.95,0,1.83.52,2.3,1.34.07,0,.13,0,.19,0,1.13,0,2.05.92,2.05,2.05s-.85,1.98-1.92,2.04c-.21.25-.57.55-.96.55"/>
          <path class="cls-5" d="m100.01,135.58s-.02,0-.03,0c-.14-.02-.24-.14-.22-.28l.3-2.62-.4-1.84c-.03-.13.06-.27.19-.3.13-.03.27.05.3.19l.41,1.88s0,.05,0,.08l-.3,2.66c-.01.13-.12.22-.25.22"/>
          <path class="cls-5" d="m100.31,132.92c-.07,0-.14-.03-.19-.09-.09-.1-.08-.26.03-.35l1.19-1.02c.11-.09.26-.08.36.03.09.11.08.26-.03.35l-1.19,1.02s-.11.06-.16.06"/>
          <path class="cls-5" d="m101,129.77c-.08,0-.16-.04-.21-.11-.08-.12-.05-.27.07-.35.54-.36,1.09-.45,1.11-.45.13-.02.26.07.29.21.02.14-.07.26-.21.29,0,0-.47.08-.91.37-.04.03-.09.04-.14.04"/>
          <path class="cls-5" d="m98.61,130.29c-.07,0-.15-.03-.19-.09-.01-.02-.37-.44-.82-.26-.13.05-.27-.01-.32-.14-.05-.13.01-.27.14-.33.8-.32,1.37.38,1.4.41.09.11.07.27-.04.35-.05.04-.1.06-.16.06"/>
          <path class="cls-5" d="m110.62,137.38c-.15,0-.29-.04-.44-.14-.11-.08-.14-.23-.06-.35.08-.11.23-.14.35-.06.33.23.79-.38.79-.39.05-.07.12-.1.2-.1.85,0,1.55-.69,1.55-1.55s-.69-1.55-1.55-1.55c-.09,0-.18,0-.29.03-.11.02-.22-.04-.27-.14-.35-.74-1.11-1.22-1.93-1.22-1.04,0-1.92.74-2.1,1.76-.01.08-.06.15-.14.18-.54.26-.88.79-.88,1.39,0,.85.69,1.55,1.55,1.55.04,0,.52.03.82-.45l-.75-.33c-.13-.05-.18-.2-.13-.33.05-.13.2-.18.33-.13l.99.43c.12.05.18.19.13.32-.32.85-1.07,1.01-1.42.98h0c-1.11,0-2.03-.92-2.03-2.05,0-.75.4-1.42,1.05-1.78.27-1.19,1.33-2.05,2.57-2.05.95,0,1.83.52,2.3,1.35.07,0,.13,0,.19,0,1.13,0,2.05.92,2.05,2.05s-.85,1.98-1.92,2.04c-.21.25-.57.55-.96.55"/>
          <path class="cls-5" d="m109.12,139.83s-.02,0-.03,0c-.14-.01-.24-.14-.22-.27l.3-2.96-.4-1.84c-.03-.14.06-.27.19-.3.14-.03.27.06.3.19l.41,1.88s0,.05,0,.08l-.3,3c-.01.13-.12.23-.25.23"/>
          <path class="cls-5" d="m109.42,136.83c-.07,0-.14-.03-.19-.09-.09-.1-.08-.26.03-.35l1.19-1.02c.11-.09.26-.08.35.03.09.1.08.26-.03.35l-1.19,1.02s-.11.06-.16.06"/>
          <path class="cls-5" d="m110.11,133.68c-.08,0-.16-.04-.21-.11-.08-.12-.05-.27.07-.35.54-.36,1.09-.45,1.11-.45.13-.02.26.07.29.21.02.14-.07.26-.21.29,0,0-.46.08-.91.37-.04.03-.09.04-.14.04"/>
          <path class="cls-5" d="m107.73,134.2c-.07,0-.15-.03-.2-.09-.01-.02-.37-.44-.82-.26-.13.05-.27-.01-.33-.14-.05-.13.01-.27.14-.33.8-.32,1.37.38,1.4.41.09.11.07.27-.04.35-.05.04-.1.06-.16.06"/>
          <path class="cls-5" d="m101.23,137.27c-.08,0-.15-.04-.2-.1,0,0-.51-.69-1.28-.9-.77-.21-1.55.12-1.55.12-.13.05-.28,0-.33-.13-.05-.13,0-.28.13-.33.04-.02.95-.4,1.89-.14.94.26,1.52,1.05,1.55,1.08.08.11.06.27-.05.35-.04.03-.1.05-.15.05"/>
          <path class="cls-5" d="m165.08,150.27s-.01,0-.02,0c-13.77-.88-20.21-3.87-29.13-8.01-3.37-1.57-7.2-3.34-11.88-5.2-.13-.05-.19-.2-.14-.33.05-.13.2-.19.33-.14,4.7,1.86,8.53,3.64,11.91,5.21,8.87,4.12,15.28,7.09,28.95,7.97.14,0,.24.13.23.27,0,.13-.12.24-.25.24"/>
          <path class="cls-5" d="m115.12,136.69c-.08,0-.16-.04-.21-.12-.07-.12-.04-.27.08-.35.08-.05,8.03-5.01,18.81-6.88.14-.02.27.07.29.2.02.14-.07.27-.2.29-10.68,1.86-18.55,6.76-18.63,6.81-.04.03-.09.04-.13.04"/>
          <path class="cls-5" d="m134.5,130.76c-.14,0-.25-.11-.25-.25v-3.31c0-.14.11-.25.25-.25s.25.11.25.25v3.31c0,.14-.11.25-.25.25"/>
          <path class="cls-5" d="m110.15,148.03c-.74,0-1.33-.59-1.33-1.32s.59-1.32,1.32-1.32l8.85.53h0c.42,0,.78.36.78.79s-.35.79-.79.79c-.03,0-.31.02-.31.02l-.03-.5s.32-.02.34-.02c.16,0,.29-.13.29-.29s-.13-.29-.29-.29l-8.85-.53c-.44,0-.8.37-.8.82s.37.82.82.82l3.93-.23c.13,0,.26.1.27.24,0,.14-.1.26-.24.27l-3.94.24Z"/>
          <path class="cls-5" d="m117.62,157.15c-.64,0-1.21-.43-1.4-1.04,0-.02-.01-.04-.02-.05l-1.72-7.56s0-.02,0-.03c-.02-.09-.03-.16-.03-.24,0-.56.45-1.01,1.01-1.01l1.62-.12c.13,0,.26.09.27.23,0,.14-.09.26-.23.27l-1.63.12c-.3,0-.53.23-.53.51,0,.04,0,.09.02.14,0,.02,0,.04,0,.05l1.7,7.48s0,.02.01.03c.14.52.69.86,1.25.65,0,0,.01,0,.02,0,.06-.02.11-.05.16-.08l3.35-1.69s0,0,0,0c.15-.09.24-.25.24-.43,0-.05,0-.1-.03-.16,0,0,0,0,0,0,0,0,0,0,0,0,0,0,0-.02-.01-.03-.02-.01-.03-.03-.04-.05l-4.13-7.03c-.07-.12-.03-.27.09-.34.12-.07.27-.03.34.09l4.1,6.96c.07.07.11.17.13.23,0,.01,0,.02,0,.03.03.11.05.21.05.31,0,.34-.17.65-.45.84-.02.01-.03.02-.05.03l-.05.02s-.06.03-.09.04l-3.21,1.63c-.06.04-.14.08-.23.12,0,0-.02,0-.03.01-.17.06-.33.09-.5.09"/>
          <path class="cls-5" d="m111.69,149.26c-.09,0-.17-.05-.22-.13-.07-.12-.03-.27.09-.34.02-.01.05-.03.09-.06.22-.14.62-.4,1.13-.41.86,0,2.09.4,2.14.41.13.04.2.19.16.32-.04.13-.18.2-.32.16-.01,0-1.19-.39-1.97-.39h-.01c-.36,0-.67.2-.86.33-.05.03-.09.05-.11.07-.04.02-.08.03-.12.03"/>
          <path class="cls-5" d="m115.9,153.88s-.02,0-.03,0l-3.44-.47c-.14-.02-.23-.15-.21-.28.02-.14.15-.23.28-.21l3.44.47c.14.02.23.14.21.28-.02.13-.12.22-.25.22"/>
          <path class="cls-5" d="m109.56,155.25c-.58,0-1.06-.47-1.06-1.06,0-.07,0-.14.02-.21,0,0,0-.02,0-.03l1.2-5.4c.02-.57.48-1.03,1.06-1.03.47,0,.88.31,1.01.76,0,.01.01.03.01.05v.07s.78,4.01.78,4.01c.03.14-.06.27-.2.29-.14.02-.27-.06-.29-.2l-.77-4.05s0,0,0-.02c-.06-.25-.28-.42-.54-.42-.31,0-.56.25-.56.56,0,.02,0,.04,0,.06l-1.2,5.4s0,.02,0,.03c-.01.05-.02.09-.02.13,0,.31.25.55.55.55.05,0,.11-.01.18-.03.01,0,.02,0,.04,0l2.34-.76s.03,0,.04,0c.02,0,.04,0,.06-.02.06-.03.11-.1.11-.17,0-.02,0-.04-.01-.06l-.1-.48c-.03-.14.06-.27.2-.29.13-.03.27.06.3.2l.09.45s.03.12.03.19c0,.26-.14.49-.37.62-.07.04-.14.06-.2.07l-2.36.76s-.02,0-.04.01c-.1.03-.2.04-.3.04"/>
          <path class="cls-5" d="m115.52,157.67c-.28,0-.48-.05-.5-.06l-3.79-1.2c-.11-.03-.18-.13-.18-.24,0-.82.67-1.11,1.02-1.15l3.31-.17c.14,0,.26.1.26.24,0,.14-.1.26-.24.26l-3.3.17c-.07,0-.45.08-.54.47l3.59,1.14s.69.18,1.14-.22c.1-.09.26-.08.35.02.09.1.08.26-.02.35-.35.32-.78.39-1.11.39"/>
          <path class="cls-5" d="m112.58,150.22c-.07,0-.13-.03-.18-.08-.1-.1-.09-.26,0-.35l.73-.71c.1-.1.26-.09.36,0,.1.1.09.26,0,.35l-.73.71s-.11.07-.17.07"/>
          <path class="cls-5" d="m112.94,151.11c-.05,0-.11-.02-.16-.06-.11-.09-.12-.24-.04-.35l1.01-1.25c.09-.11.25-.12.35-.04.11.09.12.25.04.35l-1.01,1.25c-.05.06-.12.09-.2.09"/>
          <path class="cls-5" d="m113.06,152.19c-.06,0-.12-.02-.16-.06-.1-.09-.12-.25-.03-.35l1.34-1.56c.09-.1.25-.12.35-.03.1.09.12.25.03.35l-1.34,1.56c-.05.06-.12.09-.19.09"/>
          <path class="cls-5" d="m113.73,153.06c-.05,0-.11-.02-.15-.05-.11-.09-.13-.24-.04-.35l1.12-1.42c.09-.11.24-.13.35-.04.11.09.13.24.04.35l-1.12,1.42c-.05.06-.12.1-.2.1"/>
          <path class="cls-5" d="m117.21,154.74c-.11,0-.22-.08-.24-.19l-1.31-5.35c-.03-.13.05-.27.18-.3.13-.03.27.05.3.18l1.31,5.35c.03.13-.05.27-.19.3-.02,0-.04,0-.06,0"/>
          <path class="cls-5" d="m110.02,153.64s-.03,0-.04,0c-.14-.02-.23-.15-.2-.29l.64-3.78c.02-.14.15-.23.29-.21.14.02.23.15.21.29l-.64,3.78c-.02.12-.13.21-.25.21"/>
          <path class="cls-5" d="m126.44,156.15c-.14,0-.25-.11-.25-.25v-1.56c0-.14.11-.25.25-.25s.25.11.25.25v1.56c0,.14-.11.25-.25.25"/>
          <path class="cls-5" d="m125.77,156.15c-.14,0-.25-.11-.25-.25v-1.85c0-.14.11-.25.25-.25s.25.11.25.25v1.85c0,.14-.11.25-.25.25"/>
          <path class="cls-5" d="m128.61,156.2c-.14,0-.25-.11-.25-.25v-1.84c0-.14.11-.25.25-.25s.25.11.25.25v1.84c0,.14-.11.25-.25.25"/>
          <path class="cls-5" d="m129.35,156.2c-.14,0-.25-.11-.25-.25v-1.56c0-.14.11-.25.25-.25s.25.11.25.25v1.56c0,.14-.11.25-.25.25"/>
          <path class="cls-5" d="m126.54,149.5h0c-.13,0-.24-.1-.25-.23-.02-.22-.19-.38-.41-.38-.16,0-.3.09-.37.23-.06.12-.21.18-.34.12-.12-.06-.18-.21-.12-.33.16-.32.47-.52.82-.52.47,0,.85.34.91.8,0,.02,0,.04,0,.06,0,.14-.11.25-.25.25"/>
          <path class="cls-5" d="m127.56,149.5c-.14,0-.25-.11-.25-.25,0-.17-.18-.3-.34-.24-.13.05-.27-.02-.32-.16-.04-.13.03-.27.16-.32.08-.03.16-.04.25-.04.42,0,.76.34.76.76,0,.14-.11.25-.25.25"/>
          <path class="cls-5" d="m128.89,149.54s-.02,0-.03,0c0,0-.02,0-.03,0-.12-.02-.21-.13-.2-.26,0,0,0-.03,0-.04,0-.22-.19-.4-.42-.4-.09,0-.17.03-.25.08-.11.08-.27.06-.35-.05-.08-.11-.06-.27.05-.35.16-.12.35-.18.55-.18.51,0,.92.41.92.92,0,0,0,.01,0,.02,0,.02,0,.04,0,.06-.02.12-.12.21-.24.21"/>
          <path class="cls-5" d="m129.99,150.13s-.05,0-.08-.01c-.13-.04-.2-.18-.16-.32.07-.22,0-.36-.07-.43-.09-.09-.21-.12-.28-.1-.13.03-.27-.05-.3-.18-.03-.13.05-.27.18-.31.26-.07.57.03.77.25.23.24.29.58.18.93-.03.11-.13.18-.24.18"/>
          <path class="cls-5" d="m131.89,152.51c-.19,0-.42-.06-.71-.22l-.39-.25c-.08,0-.16-.02-.25-.04-.14-.03-.22-.17-.18-.3.03-.14.17-.22.31-.18.08.02.15.03.21.03.05,0,.1.01.14.04l.43.28c.1.05.47.25.62.08.05-.06.18-.21-.04-.61l-.22-.38c-.03-.05-.04-.11-.03-.17,0-.05.02-.1.02-.15,0-.5-.41-.91-.91-.91-.13,0-.45.03-.69.33-.09.11-.25.12-.35.03-.11-.09-.12-.25-.03-.35.27-.32.67-.51,1.08-.51.78,0,1.42.63,1.42,1.41,0,.05,0,.1,0,.14l.18.32c.32.59.16.97-.02,1.19-.08.09-.26.24-.55.24"/>
          <path class="cls-5" d="m130.35,153.26c-.16,0-.31-.05-.45-.15-.11-.08-.14-.24-.06-.35.08-.11.24-.14.35-.05.03.02.08.05.15.05s.15-.04.2-.1c.04-.05.09-.14.06-.28-.03-.14.06-.27.2-.29.14-.03.27.06.3.2.05.26,0,.51-.17.7-.15.18-.37.29-.59.29"/>
          <path class="cls-5" d="m129.53,154.23c-.32,0-.62-.17-.78-.44-.05-.04-.08-.11-.09-.18,0,0,0-.03,0-.03-.01-.12.07-.24.19-.27.12-.03.25.03.3.15.06.16.21.26.38.26.19,0,.36-.13.4-.32.03-.13.17-.22.3-.19.13.03.22.17.19.3-.1.41-.47.7-.89.7"/>
          <path class="cls-5" d="m128.4,154.36c-.42,0-.76-.34-.76-.76,0-.14.11-.25.25-.25s.25.11.25.25.11.26.26.26c.05,0,.1-.02.14-.04.11-.08.27-.05.35.07.08.11.05.27-.07.35-.13.09-.27.13-.42.13"/>
          <path class="cls-5" d="m127.23,154.52c-.49,0-.89-.39-.91-.88,0-.01,0-.03,0-.04,0-.14.11-.25.25-.25h0c.14,0,.25.11.25.25,0,.23.19.41.41.41.08,0,.16-.02.23-.07.12-.07.27-.04.35.07.08.12.04.27-.07.35-.15.1-.32.15-.5.15"/>
          <path class="cls-5" d="m126.06,154.32c-.42,0-.76-.34-.76-.76,0-.06,0-.13.03-.2.04-.13.17-.21.31-.18.13.04.21.17.18.31,0,.03-.01.05-.01.07,0,.14.12.26.26.26s.25.11.25.25-.11.25-.25.25"/>
          <path class="cls-5" d="m125.02,153.97c-.51,0-.92-.41-.92-.92,0-.27.12-.52.33-.7.11-.09.26-.08.35.03.09.11.08.26-.03.35-.1.08-.15.19-.15.31,0,.23.19.41.41.41.14,0,.25.11.25.25s-.11.25-.25.25"/>
          <path class="cls-5" d="m124.04,152.72c-.06,0-.12-.02-.17-.06-.16-.14-.26-.35-.26-.57,0-.36.24-.66.59-.74.13-.03.27.06.3.19.03.13-.06.27-.19.3-.12.03-.2.13-.2.25,0,.07.03.14.09.19.1.09.11.25.02.35-.05.06-.12.08-.19.08"/>
          <path class="cls-5" d="m123.79,151.54c-.08,0-.16-.04-.21-.12-.1-.15-.15-.32-.15-.5,0-.6.57-1.08,1.21-.87.13.05.2.19.16.32-.04.13-.19.2-.32.16-.05-.02-.09-.02-.13-.02-.23,0-.41.19-.41.41,0,.08.02.16.07.22.07.12.04.27-.08.35-.04.03-.09.04-.13.04"/>
          <path class="cls-5" d="m124.39,150.06s-.03,0-.05,0c-.14-.03-.22-.16-.19-.3.07-.35.38-.6.74-.6.21,0,.4.09.55.24.03.02.05.05.07.08.06.12.02.26-.1.33-.04.03-.09.04-.14.04-.07,0-.14-.04-.18-.09-.13-.16-.41-.08-.45.11-.03.12-.13.2-.25.2"/>
          <path class="cls-5" d="m141.07,150.13c-.11,0-.21-.07-.24-.18-.11-.35-.04-.69.18-.93.21-.22.51-.31.77-.25.13.03.22.17.18.31-.03.13-.17.21-.3.18-.07-.02-.19,0-.28.1-.07.08-.14.21-.07.43.04.13-.03.27-.16.31-.02,0-.05.01-.07.01"/>
          <path class="cls-5" d="m139.17,152.51c-.3,0-.47-.15-.55-.24-.19-.22-.35-.6-.03-1.18l.18-.32s0-.1,0-.14c0-.78.63-1.41,1.41-1.41.41,0,.81.19,1.08.51.09.11.07.26-.03.35-.11.09-.26.07-.35-.03-.25-.3-.57-.33-.69-.33-.5,0-.91.41-.91.91,0,.05,0,.1.01.15.01.06,0,.12-.03.17l-.22.39c-.22.4-.08.55-.04.61.15.17.52-.02.63-.09l.42-.28s.09-.04.14-.04c.06,0,.13-.01.21-.03.14-.03.27.05.3.18.03.13-.05.27-.18.3-.09.02-.17.04-.25.04l-.37.25c-.3.17-.54.23-.72.23"/>
          <path class="cls-5" d="m140.7,153.26c-.22,0-.44-.11-.59-.29-.16-.19-.22-.44-.16-.7.03-.14.16-.22.29-.2.14.03.23.16.2.29-.03.14.02.23.06.28.1.13.29.1.35.05.11-.08.27-.06.35.05.08.11.06.27-.05.35-.13.1-.28.15-.45.15"/>
          <path class="cls-5" d="m141.53,154.23c-.43,0-.79-.29-.89-.7-.03-.14.05-.27.19-.3.14-.03.27.05.3.19.04.19.21.32.4.32.17,0,.32-.1.38-.26.05-.13.22-.19.35-.13.09.05.15.14.14.25,0,.04-.02.09-.04.12-.15.32-.47.52-.83.52"/>
          <path class="cls-5" d="m131.71,156.2c-.14,0-.25-.11-.25-.25v-1.84c0-.14.11-.25.25-.25s.25.11.25.25v1.84c0,.14-.11.25-.25.25"/>
          <path class="cls-5" d="m132.45,156.2c-.14,0-.25-.11-.25-.25v-1.56c0-.14.11-.25.25-.25s.25.11.25.25v1.56c0,.14-.11.25-.25.25"/>
          <path class="cls-5" d="m132,149.54s-.02,0-.03,0c0,0-.02,0-.03,0-.12-.02-.21-.13-.2-.26,0,0,0-.03,0-.04,0-.22-.19-.4-.42-.4-.09,0-.17.03-.25.08-.11.08-.27.06-.35-.05-.08-.11-.06-.27.05-.35.16-.12.35-.18.55-.18.5,0,.92.41.92.92,0,0,0,.01,0,.02,0,.02,0,.04,0,.06-.02.12-.12.21-.24.21"/>
          <path class="cls-5" d="m133.1,150.13s-.05,0-.08-.01c-.13-.04-.2-.18-.16-.32.07-.22,0-.36-.07-.43-.09-.09-.21-.12-.28-.1-.13.03-.27-.05-.3-.18-.03-.13.05-.27.18-.31.26-.07.57.03.77.25.23.24.29.58.18.93-.03.11-.13.18-.24.18"/>
          <path class="cls-5" d="m134.99,152.51c-.19,0-.42-.06-.71-.22l-.39-.25c-.08,0-.16-.02-.25-.04-.13-.03-.22-.17-.18-.3.03-.14.17-.22.3-.18.08.02.15.03.21.03.05,0,.1.01.14.04l.43.28c.1.05.47.25.62.08.05-.06.18-.21-.04-.61l-.22-.38c-.03-.05-.04-.11-.03-.17,0-.05.01-.1.01-.15,0-.5-.41-.91-.91-.91-.13,0-.45.03-.7.33-.09.11-.25.12-.35.03-.11-.09-.12-.25-.03-.35.27-.32.67-.51,1.08-.51.78,0,1.42.63,1.42,1.41,0,.05,0,.1-.01.14l.18.32c.32.59.17.97-.02,1.19-.08.09-.25.24-.55.24"/>
          <path class="cls-5" d="m133.46,153.26c-.16,0-.31-.05-.45-.15-.11-.08-.14-.24-.06-.35.08-.11.24-.14.35-.05.03.02.08.05.15.05s.15-.04.2-.1c.04-.05.09-.14.06-.28-.03-.14.06-.27.2-.29.14-.03.27.06.3.2.05.26,0,.51-.17.7-.15.18-.37.29-.59.29"/>
          <path class="cls-5" d="m132.63,154.23c-.32,0-.62-.17-.78-.44-.05-.04-.08-.11-.08-.18,0,0,0-.03,0-.03,0-.12.06-.22.17-.26.12-.04.27.02.31.15.06.16.21.26.38.26.19,0,.36-.13.4-.32.03-.13.17-.22.3-.19.13.03.22.17.19.3-.1.41-.47.7-.89.7"/>
          <path class="cls-5" d="m131.51,154.36c-.42,0-.76-.34-.76-.76,0-.14.11-.25.25-.25s.25.11.25.25.11.26.26.26c.05,0,.1-.02.14-.04.11-.08.27-.05.35.07.08.11.05.27-.07.35-.13.09-.27.13-.42.13"/>
          <path class="cls-5" d="m133.6,156.2s-.09-.01-.13-.04c-.12-.07-.15-.23-.08-.35l.55-.89c.07-.12.23-.15.35-.08.12.07.15.23.08.35l-.55.89c-.05.08-.13.12-.21.12"/>
          <path class="cls-5" d="m136.61,156.2s-.09-.01-.13-.04c-.12-.07-.15-.23-.08-.35l.55-.89c.07-.12.23-.15.35-.08.12.07.15.23.08.35l-.55.89c-.05.08-.13.12-.21.12"/>
          <path class="cls-5" d="m138.11,156.2s-.09-.01-.13-.04c-.12-.07-.15-.23-.08-.35l.55-.89c.07-.12.23-.15.35-.08.12.07.15.23.08.35l-.55.89c-.05.08-.13.12-.21.12"/>
          <path class="cls-5" d="m135.1,156.2s-.09-.01-.13-.04c-.12-.07-.15-.23-.08-.35l.55-.89c.07-.12.23-.15.35-.08.12.07.15.23.08.35l-.55.89c-.05.08-.13.12-.21.12"/>
          <path class="cls-5" d="m139.62,156.2s-.09-.01-.13-.04c-.12-.07-.15-.23-.08-.35l.55-.89c.07-.12.23-.15.34-.08.12.07.15.23.08.35l-.55.89c-.05.08-.13.12-.21.12"/>
          <path class="cls-5" d="m122.29,156.2s-.09-.01-.13-.04c-.12-.07-.15-.23-.08-.35l.55-.89c.07-.12.23-.15.35-.08.12.07.15.23.08.35l-.55.89c-.05.08-.13.12-.21.12"/>
          <path class="cls-5" d="m123.8,156.2s-.09-.01-.13-.04c-.12-.07-.15-.23-.08-.35l.55-.89c.07-.12.23-.15.35-.08.12.07.15.23.08.35l-.55.89c-.05.08-.13.12-.21.12"/>
          <path class="cls-5" d="m95.07,156.15c-.14,0-.25-.11-.25-.25v-1.56c0-.14.11-.25.25-.25s.25.11.25.25v1.56c0,.14-.11.25-.25.25"/>
          <path class="cls-5" d="m94.41,156.15c-.14,0-.25-.11-.25-.25v-1.85c0-.14.11-.25.25-.25s.25.11.25.25v1.85c0,.14-.11.25-.25.25"/>
          <path class="cls-5" d="m97.24,156.2c-.14,0-.25-.11-.25-.25v-1.84c0-.14.11-.25.25-.25s.25.11.25.25v1.84c0,.14-.11.25-.25.25"/>
          <path class="cls-5" d="m97.98,156.2c-.14,0-.25-.11-.25-.25v-1.56c0-.14.11-.25.25-.25s.25.11.25.25v1.56c0,.14-.11.25-.25.25"/>
          <path class="cls-5" d="m95.18,149.5h0c-.13,0-.24-.1-.25-.23-.02-.22-.2-.38-.41-.38-.16,0-.3.09-.37.23-.06.13-.21.18-.34.12-.12-.06-.18-.21-.12-.33.15-.31.47-.52.82-.52.47,0,.85.34.91.8,0,.02,0,.04,0,.06,0,.14-.11.25-.25.25"/>
          <path class="cls-5" d="m96.19,149.5c-.14,0-.25-.11-.25-.25,0-.17-.18-.3-.34-.24-.13.05-.27-.02-.32-.16-.04-.13.03-.27.16-.32.08-.03.16-.04.25-.04.42,0,.76.34.76.76,0,.14-.11.25-.25.25"/>
          <path class="cls-5" d="m97.53,149.54s-.02,0-.04,0c-.01,0-.03,0-.03,0-.12-.03-.2-.14-.19-.25,0,0,0-.03,0-.04,0-.22-.19-.4-.42-.4-.09,0-.18.03-.25.08-.11.08-.27.06-.35-.05-.08-.11-.06-.27.05-.35.16-.12.35-.18.55-.18.5,0,.91.4.92.9,0,.03,0,.07,0,.11-.02.12-.13.2-.25.2"/>
          <path class="cls-5" d="m98.63,150.13s-.05,0-.07-.01c-.13-.04-.2-.18-.16-.31.07-.22,0-.36-.07-.43-.09-.09-.21-.12-.28-.1-.13.03-.27-.05-.31-.18-.03-.13.05-.27.18-.31.26-.07.57.03.77.25.23.24.29.58.18.93-.03.11-.13.18-.24.18"/>
          <path class="cls-5" d="m100.52,152.51c-.19,0-.42-.06-.71-.22l-.39-.25c-.08,0-.16-.02-.25-.04-.13-.03-.22-.17-.18-.3.03-.13.17-.22.3-.18.08.02.15.03.21.03.05,0,.1.01.14.04l.43.28c.1.05.47.25.62.08.05-.06.18-.21-.04-.61l-.22-.39c-.03-.05-.04-.11-.03-.17,0-.05.01-.1.01-.15,0-.5-.41-.91-.91-.91-.13,0-.45.03-.69.33-.09.11-.25.12-.35.03-.11-.09-.12-.25-.03-.35.27-.32.66-.51,1.08-.51.78,0,1.42.63,1.42,1.41,0,.05,0,.1,0,.14l.18.32c.32.59.16.97-.02,1.19-.08.09-.25.24-.55.24"/>
          <path class="cls-5" d="m98.99,153.26c-.16,0-.32-.05-.45-.15-.11-.08-.13-.24-.05-.35.08-.11.24-.14.35-.05.03.02.08.05.15.05s.15-.04.2-.1c.04-.05.09-.14.06-.28-.03-.14.06-.27.2-.29.14-.03.27.06.29.2.05.26,0,.51-.17.7-.15.18-.37.29-.59.29"/>
          <path class="cls-5" d="m98.16,154.23c-.32,0-.62-.17-.78-.44-.05-.05-.09-.11-.09-.18,0-.1.04-.23.13-.27.13-.06.3,0,.35.13.06.16.21.26.38.26.19,0,.36-.13.4-.32.03-.13.17-.22.3-.19.13.03.22.17.19.3-.1.41-.47.7-.89.7"/>
          <path class="cls-5" d="m97.04,154.36c-.42,0-.76-.34-.76-.76,0-.14.11-.25.25-.25s.25.11.25.25.11.26.26.26c.05,0,.1-.02.14-.04.11-.08.27-.05.35.07.08.11.05.27-.07.35-.13.09-.27.13-.42.13"/>
          <path class="cls-5" d="m95.86,154.52c-.49,0-.89-.39-.91-.88,0-.01,0-.03,0-.04,0-.14.11-.25.25-.25h0c.14,0,.25.11.25.25,0,.23.18.41.41.41.08,0,.16-.02.23-.07.12-.08.27-.04.35.07.08.11.04.27-.07.35-.15.1-.32.15-.5.15"/>
          <path class="cls-5" d="m94.69,154.32c-.42,0-.76-.34-.76-.76,0-.06,0-.13.03-.2.04-.13.17-.21.31-.18.13.04.21.17.18.31,0,.03-.01.05-.01.07,0,.14.12.26.26.26s.25.11.25.25-.11.25-.25.25"/>
          <path class="cls-5" d="m93.65,153.97c-.5,0-.92-.41-.92-.92,0-.27.12-.52.33-.7.11-.09.26-.08.35.03s.08.26-.03.35c-.1.08-.15.19-.15.31,0,.23.19.41.41.41.14,0,.25.11.25.25s-.11.25-.25.25"/>
          <path class="cls-5" d="m92.67,152.72c-.06,0-.12-.02-.17-.06-.16-.14-.25-.35-.25-.57,0-.36.24-.66.59-.74.14-.03.27.06.3.19.03.13-.05.27-.19.3-.12.03-.2.13-.2.25,0,.07.03.14.09.19.1.09.11.25.02.35-.05.06-.12.08-.19.08"/>
          <path class="cls-5" d="m92.43,151.54c-.08,0-.16-.04-.21-.11-.1-.15-.15-.32-.15-.5,0-.6.58-1.08,1.21-.87.13.05.2.19.16.32-.05.13-.19.2-.32.16-.05-.02-.09-.02-.13-.02-.23,0-.41.19-.41.41,0,.08.02.16.07.22.08.12.04.27-.07.35-.04.03-.09.04-.14.04"/>
          <path class="cls-5" d="m93.02,150.06s-.03,0-.05,0c-.13-.03-.22-.16-.2-.3.07-.35.38-.61.74-.61.21,0,.42.09.56.25.02.02.04.04.06.07.06.12.01.27-.11.34h0c-.1.05-.23.03-.3-.06-.14-.16-.41-.08-.45.11-.02.12-.13.2-.25.2"/>
          <path class="cls-5" d="m99.5,156.2s-.09-.01-.13-.04c-.12-.07-.15-.23-.08-.35l.55-.89c.07-.12.23-.15.35-.08.12.07.15.23.08.35l-.55.89c-.05.08-.13.12-.21.12"/>
          <path class="cls-5" d="m102.51,156.2s-.09-.01-.13-.04c-.12-.07-.15-.23-.08-.35l.55-.89c.07-.12.23-.15.35-.08.12.07.15.23.08.35l-.55.89c-.05.08-.13.12-.21.12"/>
          <path class="cls-5" d="m104.02,156.2s-.09-.01-.13-.04c-.12-.07-.15-.23-.08-.35l.55-.89c.07-.12.23-.15.34-.08.12.07.15.23.08.35l-.55.89c-.05.08-.13.12-.21.12"/>
          <path class="cls-5" d="m101.01,156.2s-.09-.01-.13-.04c-.12-.07-.15-.23-.08-.35l.55-.89c.07-.12.23-.15.35-.08.12.07.15.23.08.35l-.55.89c-.05.08-.13.12-.21.12"/>
          <path class="cls-5" d="m105.52,156.2s-.09-.01-.13-.04c-.12-.07-.15-.23-.08-.35l.55-.89c.07-.12.23-.15.35-.08.12.07.15.23.08.35l-.55.89c-.05.08-.13.12-.21.12"/>
          <path class="cls-5" d="m90.93,156.2s-.09-.01-.13-.04c-.12-.07-.15-.23-.08-.35l.55-.89c.07-.12.23-.15.35-.08.12.07.15.23.08.35l-.55.89c-.05.08-.13.12-.21.12"/>
          <path class="cls-5" d="m92.44,156.2s-.09-.01-.13-.04c-.12-.07-.15-.23-.08-.35l.55-.89c.07-.12.23-.15.34-.08.12.07.15.23.08.35l-.55.89c-.05.08-.13.12-.21.12"/>
          <path class="cls-5" d="m107.24,156.2s-.09-.01-.13-.04c-.12-.07-.15-.23-.08-.35l.55-.89c.07-.12.23-.15.35-.08.12.07.15.23.08.35l-.55.89c-.05.08-.13.12-.21.12"/>
          <path class="cls-5" d="m71.59,156.2s-.09-.01-.13-.04c-.12-.07-.15-.23-.08-.35l.55-.89c.07-.12.23-.15.35-.08.12.07.15.23.08.35l-.55.89c-.05.08-.13.12-.21.12"/>
          <path class="cls-5" d="m71.62,156.2s-.09-.01-.13-.04c-.12-.07-.15-.23-.08-.35l.55-.89c.07-.12.23-.15.35-.08.12.07.15.23.08.35l-.55.89c-.05.08-.13.12-.21.12"/>
          <path class="cls-5" d="m74.06,156.2s-.09-.01-.13-.04c-.12-.07-.15-.23-.08-.35l.55-.89c.07-.12.23-.15.35-.08.12.07.15.23.08.35l-.55.89c-.05.08-.13.12-.21.12"/>
          <path class="cls-5" d="m78.12,156.2s-.09-.01-.13-.04c-.12-.07-.15-.23-.08-.35l.55-.89c.07-.12.23-.15.35-.08.12.07.15.23.08.35l-.55.89c-.05.08-.13.12-.21.12"/>
          <path class="cls-5" d="m81.13,156.2s-.09-.01-.13-.04c-.12-.07-.16-.23-.08-.35l.55-.89c.07-.12.23-.15.35-.08.12.07.15.23.08.35l-.55.89c-.05.08-.13.12-.21.12"/>
          <path class="cls-5" d="m82.63,156.2s-.09-.01-.13-.04c-.12-.07-.15-.23-.08-.35l.55-.89c.07-.12.23-.15.35-.08.12.07.15.23.08.35l-.55.89c-.05.08-.13.12-.21.12"/>
          <path class="cls-5" d="m79.62,156.2s-.09-.01-.13-.04c-.12-.07-.15-.23-.08-.35l.55-.89c.07-.12.23-.15.35-.08.12.07.15.23.08.35l-.55.89c-.05.08-.13.12-.21.12"/>
          <path class="cls-5" d="m85.86,156.2s-.09-.01-.13-.04c-.12-.07-.15-.23-.08-.35l.55-.89c.07-.12.23-.15.35-.08.12.07.15.23.08.35l-.55.89c-.05.08-.13.12-.21.12"/>
          <path class="cls-5" d="m85.88,156.2s-.09-.01-.13-.04c-.12-.07-.15-.23-.08-.35l.55-.89c.07-.12.23-.15.35-.08.12.07.15.23.08.35l-.55.89c-.05.08-.13.12-.21.12"/>
          <path class="cls-5" d="m89.11,156.2s-.09-.01-.13-.04c-.12-.07-.15-.23-.08-.35l.55-.89c.07-.12.23-.15.35-.08.12.07.15.23.08.35l-.55.89c-.05.08-.13.12-.21.12"/>
          <path class="cls-5" d="m140.06,129.65c-.14,0-.25-.11-.25-.25v-1.45c0-.14.11-.25.25-.25s.25.11.25.25v1.45c0,.14-.11.25-.25.25"/>
          <path class="cls-5" d="m141.36,129.65c-.14,0-.25-.11-.25-.25v-1.2h-.38c-.14,0-.25-.11-.25-.25s.11-.25.25-.25h.63c.14,0,.25.11.25.25v1.45c0,.14-.11.25-.25.25"/>
          <path class="cls-5" d="m136.38,129.65c-.14,0-.25-.11-.25-.25v-1.45c0-.14.11-.25.25-.25s.25.11.25.25v1.45c0,.14-.11.25-.25.25"/>
          <path class="cls-5" d="m137.68,129.65c-.14,0-.25-.11-.25-.25v-1.2h-.38c-.14,0-.25-.11-.25-.25s.11-.25.25-.25h.63c.14,0,.25.11.25.25v1.45c0,.14-.11.25-.25.25"/>
          <path class="cls-5" d="m134.5,127.45s-.08,0-.12-.03c-.12-.06-.17-.22-.1-.34l.89-1.67c.04-.08.13-.13.22-.13h10v-.34c0-.14.11-.25.25-.25h.87c.14,0,.25.11.25.25s-.11.25-.25.25h-.62v.34c0,.14-.11.25-.25.25h-10.1l-.82,1.54c-.05.08-.13.13-.22.13"/>
          <path class="cls-5" d="m149.47,127.45h-14.15c-.14,0-.25-.11-.25-.25s.11-.25.25-.25h14.15c.14,0,.25.11.25.25s-.11.25-.25.25"/>
          <path class="cls-5" d="m142.74,130.32h-7.54c-.14,0-.25-.11-.25-.25s.11-.25.25-.25h7.54c.14,0,.25.11.25.25s-.11.25-.25.25"/>
        </g>
        <g>
          <path class="cls-1" d="m47.53,172.25s8.96-.17,8.96,0,.78-.57.78-.57l.37-.51.12-1.22-.13-2.66-.35-.64-.71-.56-.64-.08h-9.05l-.51.28-.5.26-.38.53-.14,1.14.14,2.82s.07.36.13.41.35.41.38.44.87.26.87.26l.66.09Z"/>
          <path class="cls-5" d="m82.65,193.5h-14.61v-1.15h13.45v-3.92c0-1.63-.44-2.89-1.32-3.76-1.3-1.28-3.12-1.27-3.14-1.27h-7.78l-6.93-10.24h-18.16l-8.51,9.56h-1.54s9.53-10.72,9.53-10.72h19.29l6.93,10.24h7.16c.09,0,2.32-.02,3.96,1.6,1.1,1.09,1.66,2.63,1.66,4.58v5.07Z"/>
          <polygon class="cls-5" points="63.76 193.5 34.2 193.5 34.2 184.89 35.35 184.89 35.35 192.34 63.76 192.34 63.76 193.5"/>
          <rect class="cls-5" x="32.54" y="190.56" width="2.23" height="1.46"/>
          <path class="cls-5" d="m67.98,183.54h-16.33v-9.16h10.08l6.26,9.16Zm-15.18-1.15h12.99l-4.68-6.86h-8.31v6.86Z"/>
          <g>
            <circle class="cls-5" cx="43.29" cy="192.92" r="5.66"/>
            <circle class="cls-1" cx="43.29" cy="192.92" r="4.26"/>
            <path class="cls-5" d="m46.57,193.51c-.12.65-.42,1.27-.92,1.76-1.3,1.3-3.41,1.3-4.71,0-.49-.49-.79-1.09-.91-1.72l1.36-.26c.07.37.25.72.53,1,.76.76,1.99.76,2.75,0,.29-.29.47-.64.54-1.02l1.36.23Z"/>
          </g>
          <g>
            <circle class="cls-5" cx="74.49" cy="192.92" r="5.66"/>
            <circle class="cls-1" cx="74.49" cy="192.92" r="4.26"/>
            <path class="cls-5" d="m71.22,192.33c.12-.65.42-1.27.92-1.76,1.3-1.3,3.41-1.3,4.71,0,.49.49.79,1.09.91,1.72l-1.36.26c-.07-.37-.25-.72-.53-1-.76-.76-1.99-.76-2.75,0-.29.29-.47.64-.54,1.02l-1.36-.23Z"/>
          </g>
          <path class="cls-5" d="m58.83,182.46c-.14,0-.26-.12-.26-.26v-.73c0-.11.06-.2.16-.24.51-.21.81-.58.93-1.16.03-.14.16-.23.31-.2.14.03.23.16.2.31-.14.68-.5,1.17-1.08,1.46v.57c0,.14-.12.26-.26.26"/>
          <path class="cls-5" d="m59.97,179.71c-.14,0-.26-.12-.26-.26,0-.31-.07-.62-.21-.89-.07-.13-.02-.28.11-.35.13-.07.29-.02.35.11.18.35.27.74.27,1.13,0,.14-.12.26-.26.26"/>
          <path class="cls-5" d="m57,179.37s-.04,0-.05,0c-.14-.03-.23-.17-.2-.31.15-.73.7-1.1,1.61-1.1.63,0,1.25-.28,1.52-.64-.21.03-.47.04-.71-.03-.14-.04-.22-.18-.18-.32.04-.14.18-.22.32-.18.37.11.87-.07.87-.07.08-.03.17-.02.24.03.07.05.11.13.11.22-.02.81-1.04,1.52-2.18,1.52-.85,0-1.03.35-1.1.69-.03.12-.13.21-.25.21"/>
          <path class="cls-5" d="m56.85,181.25s-.1-.01-.14-.04c-.72-.46-1.13-1.3-1.13-2.32,0-.91.42-1.69,1.14-2.09.24-.14.5-.24.74-.33.51-.2.94-.38,1.13-.77.03-.06.09-.11.15-.14.07-.02.14-.02.2.02.31.16.82.69.55,1.54-.04.14-.19.21-.33.17-.14-.04-.21-.19-.17-.33.12-.38.01-.62-.11-.76-.31.39-.78.58-1.24.76-.23.09-.47.19-.68.31-.54.31-.87.92-.87,1.64,0,.4.09,1.37.89,1.88.12.08.16.24.08.36-.05.08-.13.12-.22.12"/>
          <path class="cls-5" d="m59.97,180.37c-.14,0-.26-.12-.26-.26s.12-.26.26-.26c.02,0,.04-.02.04-.04s-.02-.04-.04-.04c-.14,0-.26-.12-.26-.26s.12-.26.26-.26c.31,0,.55.25.55.56s-.25.56-.55.56"/>
          <path class="cls-5" d="m55.06,182.76s-.07,0-.11-.03c-.13-.06-.18-.22-.12-.35.02-.04.45-.92,1.68-.92h.51c.05,0,.11,0,.11-.26v-.4c0-.14.12-.26.26-.26s.26.12.26.26v.4c0,.7-.44.78-.63.78h-.51c-.91,0-1.21.61-1.22.62-.04.09-.14.15-.24.15"/>
          <path class="cls-5" d="m61.25,182.76c-.11,0-.22-.08-.25-.19-.01-.03-.19-.57-1.34-.57h-.13c-.14,0-.26-.12-.26-.26s.12-.26.26-.26h.13c1.59,0,1.83.92,1.84.96.03.14-.05.28-.19.31-.02,0-.04,0-.06,0"/>
          <g>
            <path class="cls-5" d="m46.99,167.79h-1.6c-.12,0-.22-.1-.22-.21s.1-.21.22-.21h1.6c.12,0,.22.1.22.21s-.1.21-.22.21"/>
            <path class="cls-5" d="m57.05,167.79h-1.6c-.12,0-.22-.1-.22-.21s.1-.21.22-.21h1.6c.12,0,.22.1.22.21s-.1.21-.22.21"/>
            <path class="cls-5" d="m53.46,167.79h-4.65c-.12,0-.22-.1-.22-.21s.1-.21.22-.21h4.65c.12,0,.22.1.22.21s-.1.21-.22.21"/>
            <path class="cls-5" d="m47.02,166.23c-.77,0-1.4.61-1.4,1.35v3.11c0,.74.63,1.35,1.4,1.35h.41v-5.81h-.41Zm9.11,6.23c-.12,0-.22-.1-.22-.21s.1-.21.22-.21c.77,0,1.4-.61,1.4-1.35v-3.11c0-.74-.63-1.35-1.4-1.35h-8.26v6.02c0,.12-.1.21-.22.21h-.63c-1.02,0-1.84-.8-1.84-1.78v-3.11c0-.98.83-1.78,1.84-1.78h9.11c1.02,0,1.84.8,1.84,1.78v3.11c0,.98-.83,1.78-1.84,1.78"/>
            <path class="cls-5" d="m55.45,172.46c-.12,0-.22-.1-.22-.21v-6.23c0-.12.1-.21.22-.21s.22.1.22.21v6.23c0,.12-.1.21-.22.21"/>
            <path class="cls-5" d="m54.28,172.46c-.12,0-.22-.1-.22-.21v-6.23c0-.12.1-.21.22-.21s.22.1.22.21v6.23c0,.12-.1.21-.22.21"/>
            <path class="cls-5" d="m48.82,172.46c-.12,0-.22-.1-.22-.21v-6.23c0-.12.1-.21.22-.21s.22.1.22.21v6.23c0,.12-.1.21-.22.21"/>
            <path class="cls-5" d="m54.79,172.46h-6.51c-.12,0-.22-.1-.22-.21s.1-.21.22-.21h6.51c.12,0,.22.09.22.21s-.1.21-.22.21"/>
          </g>
        </g>
      </g>
    </g>
  </g>
</svg>