<?xml version="1.0" encoding="utf-8"?>
<!-- Generator: Adobe Illustrator 21.0.2, SVG Export Plug-In . SVG Version: 6.00 Build 0)  -->
<svg version="1.1" id="Camada_1" xmlns="http://www.w3.org/2000/svg" xmlns:xlink="http://www.w3.org/1999/xlink" x="0px" y="0px"
	 viewBox="0 0 233 239.5" style="enable-background:new 0 0 233 239.5;" xml:space="preserve">
<style type="text/css">
	.st0{fill:#E2352A;}
	.st1{fill:#FFFFFF;}
</style>
<circle class="st0" cx="116.5" cy="119.8" r="112"/>
<g>
	<path class="st1" d="M161.4,82.7h-49.6c-11.3,0-20.5,9.2-20.5,20.5v25.8c0,11.3,9.2,20.5,20.5,20.5h34.4l16.2,18.5l4.4,5
		c0.2,0.3,0.6,0.4,0.9,0.4c0.2,0,0.3,0,0.4-0.1c0.5-0.2,0.8-0.6,0.8-1.1v-24.1c7.8-3.1,13-10.6,13-19.1v-25.8
		C182,91.9,172.7,82.7,161.4,82.7z M177,129.1c0,6.4-3.8,12-9.7,14.4c-0.7,0.3-1.5,0.6-2.3,0.7c-0.5,0.1-0.9,0.6-0.9,1.2v17
		l-12.9-14.8l-2.2-2.5c-0.2-0.3-0.5-0.4-0.9-0.4h-36.1c-8.6,0-15.6-7-15.6-15.6v-25.8c0-8.6,7-15.6,15.6-15.6h49.6
		c8.6,0,15.6,7,15.6,15.6V129.1z"/>
	<path class="st1" d="M87.8,113.7h-6.9c-0.4,0-0.7,0.2-0.9,0.4l-2.2,2.5L69,127.2v-12.6c0-0.5-0.4-1.1-0.9-1.2
		c-0.8-0.2-1.6-0.4-2.3-0.7c-5.9-2.4-9.8-8.1-9.8-14.5V86.6C56,78,63,71,71.6,71h36.1c5.9,0,11.2,3.3,13.9,8.5h5.4
		c-0.5-1.3-1.1-2.5-1.8-3.7c-3.8-6.2-10.3-9.8-17.5-9.8H71.6c-11.3,0-20.5,9.2-20.5,20.5v11.5c0,8.5,5.2,16,13,19.1v19.9
		c0,0.5,0.3,1,0.8,1.1c0.2,0,0.3,0.1,0.4,0.1c0.4,0,0.7-0.2,0.9-0.4l4.4-5c0,0,0,0,0,0l12-14.3h5.2V113.7z"/>
</g>
</svg>
