<?xml version="1.0" encoding="utf-8"?>
<!-- Generator: Adobe Illustrator 22.0.0, SVG Export Plug-In . SVG Version: 6.00 Build 0)  -->
<svg version="1.1" id="Layer_1" xmlns="http://www.w3.org/2000/svg" xmlns:xlink="http://www.w3.org/1999/xlink" x="0px" y="0px"
	 viewBox="0 0 100 125" style="enable-background:new 0 0 100 125;" xml:space="preserve">
<style type="text/css">
	.st0{enable-background:new    ;}
	.st1{fill:#FFFFFF;}
</style>
<g id="Layer_2_1_">
</g>
<g class="st0">
	<path class="st1" d="M17.3,97.9c0.9-0.2,2.1-0.3,3.7-0.3c1.8,0,3.1,0.4,4,1.1c0.8,0.7,1.3,1.7,1.3,2.9c0,1.3-0.4,2.3-1.2,3
		c-1,1-2.5,1.4-4.2,1.4c-0.5,0-0.9,0-1.2-0.1v5h-2.4V97.9z M19.7,104.1c0.3,0.1,0.7,0.1,1.2,0.1c1.8,0,2.9-0.9,2.9-2.4
		c0-1.5-1-2.3-2.7-2.3c-0.7,0-1.2,0.1-1.4,0.1V104.1z"/>
	<path class="st1" d="M40.3,104.3c0,4.5-2.7,7-6.4,7c-3.8,0-6.2-2.9-6.2-6.8c0-4.1,2.6-7,6.4-7C38,97.6,40.3,100.5,40.3,104.3z
		 M30.3,104.5c0,2.7,1.4,4.9,3.7,4.9c2.4,0,3.7-2.2,3.7-5c0-2.5-1.3-4.9-3.7-4.9C31.6,99.5,30.3,101.7,30.3,104.5z"/>
	<path class="st1" d="M42.3,108.4c0.8,0.5,2,0.8,3.2,0.8c1.6,0,2.4-0.7,2.4-1.8c0-1-0.7-1.6-2.4-2.2c-2.2-0.8-3.6-2-3.6-3.9
		c0-2.2,1.8-3.8,4.7-3.8c1.4,0,2.5,0.3,3.2,0.7l-0.6,2c-0.5-0.3-1.4-0.6-2.7-0.6c-1.5,0-2.2,0.8-2.2,1.6c0,1,0.8,1.5,2.6,2.2
		c2.3,0.9,3.5,2,3.5,3.9c0,2.1-1.6,4-5.1,4c-1.4,0-2.9-0.4-3.6-0.8L42.3,108.4z"/>
	<path class="st1" d="M55.2,99.8h-3.8v-2h10.1v2h-3.9v11.3h-2.4V99.8z"/>
	<path class="st1" d="M74.4,104.3c0,4.5-2.7,7-6.4,7c-3.8,0-6.2-2.9-6.2-6.8c0-4.1,2.6-7,6.4-7C72.1,97.6,74.4,100.5,74.4,104.3z
		 M64.4,104.5c0,2.7,1.4,4.9,3.7,4.9c2.4,0,3.7-2.2,3.7-5c0-2.5-1.3-4.9-3.7-4.9C65.7,99.5,64.4,101.7,64.4,104.5z"/>
	<path class="st1" d="M76.4,108.4c0.8,0.5,2,0.8,3.2,0.8c1.6,0,2.4-0.7,2.4-1.8c0-1-0.7-1.6-2.4-2.2c-2.2-0.8-3.6-2-3.6-3.9
		c0-2.2,1.8-3.8,4.7-3.8c1.4,0,2.5,0.3,3.2,0.7l-0.6,2c-0.5-0.3-1.4-0.6-2.7-0.6c-1.5,0-2.2,0.8-2.2,1.6c0,1,0.8,1.5,2.6,2.2
		c2.3,0.9,3.5,2,3.5,3.9c0,2.1-1.6,4-5.1,4c-1.4,0-2.9-0.4-3.6-0.8L76.4,108.4z"/>
</g>
<g>
	<path class="st1" d="M60.2,28.6c0-5.6-4.5-10.1-10.1-10.1S39.9,23,39.9,28.6S44.4,38.7,50,38.7S60.2,34.2,60.2,28.6z M46.6,28.6
		c0-1.9,1.5-3.4,3.4-3.4c1.9,0,3.4,1.5,3.4,3.4c0,1.9-1.5,3.4-3.4,3.4C48.2,32,46.6,30.5,46.6,28.6z"/>
	<path class="st1" d="M60.2,53.5l8.7-12.6c4.9-7,5.5-16.1,1.4-23.6C64.3,6,50.4,1.8,39.3,7.7c-4.1,2.2-7.4,5.5-9.5,9.5
		c-4,7.5-3.5,16.7,1.4,23.6l8.7,12.6C29.8,56,23,62,23,69.1C23,78.6,34.9,86,50,86s27-7.4,27-16.9C77.1,62,70.3,56,60.2,53.5z
		 M36.5,37.1c-5.1-7.3-3.2-17.4,4.1-22.5c2.8-1.9,6.1-2.9,9.4-2.9c8.9,0,16.2,7.2,16.2,16.1c0,3.3-1,6.5-2.9,9.2L50,56.4L36.5,37.1z
		 M50,79.3c-12,0-20.3-5.3-20.3-10.1c0-3.9,5.6-8.2,14.2-9.6l6.1,8.8l6.1-8.8c8.6,1.4,14.2,5.7,14.2,9.6C70.3,73.9,62,79.3,50,79.3z
		"/>
</g>
</svg>
