<?xml version="1.0" encoding="utf-8"?>
<!-- Generator: Adobe Illustrator 21.0.2, SVG Export Plug-In . SVG Version: 6.00 Build 0)  -->
<svg version="1.1" id="Camada_1" xmlns="http://www.w3.org/2000/svg" xmlns:xlink="http://www.w3.org/1999/xlink" x="0px" y="0px"
	 viewBox="0 0 233 239.5" style="enable-background:new 0 0 233 239.5;" xml:space="preserve">
<g>
	<g>
		<g>
			<path d="M165,99.8c0,1.7,0,3.5,0,5.3c0,4.4,0,8.8,0,13.3c0,5.8,0,11.6,0,17.4c0,5.9,0,11.8,0,17.6c0,4.7,0,9.3,0,14
				c0,2.2,0,4.3,0,6.5v0.1c0-0.9,0,0.6,0,0.3c0,0.4,0.2-0.5,0-0.2c0,0.1-0.1,0.2-0.1,0.4c0,0.3,0.3-0.4,0-0.2
				c-0.1,0.1-0.2,0.2-0.2,0.3c-0.2,0.3,0.4-0.3,0.1-0.2c-0.1,0.1-0.2,0.2-0.2,0.2c-0.2,0.2,0.5-0.3,0,0c0,0,0,0-0.1,0
				c-0.2,0.1-0.2,0.1,0,0c0,0,0.1,0,0.2-0.1c-0.1,0-0.2,0-0.2,0.1c-0.6,0.2,0.5,0-0.2,0h-0.1c0,0-0.1,0-0.2,0c-0.6,0-1.3,0-1.9,0
				c-3.1,0-6.2,0-9.3,0c-4.8,0-9.7,0-14.5,0c-5.8,0-11.6,0-17.4,0c-6,0-12,0-18,0c-5.4,0-10.8,0-16.2,0c-4,0-8,0-12.1,0
				c-1.8,0-3.7,0-5.5,0H69l0,0h-0.2c-0.5,0,0.2,0,0.2,0s-0.3-0.1-0.4-0.1c-0.5-0.1,0.2,0,0.2,0.1l-0.3-0.2c-0.5-0.2,0.3,0.4,0,0
				l-0.2-0.2c0.1-0.1,0.3,0.5,0.1,0.1l-0.2-0.3c0.1,0,0.2,0.6,0.1,0.2l-0.1-0.4c0.1,0,0,0.6,0,0.2v-0.2c0,0,0-0.1,0-0.2
				c0-0.7,0-1.5,0-2.2c0-3.7,0-7.3,0-10.9c0-5.5,0-10.9,0-16.4c0-6,0-12.1,0-18.1c0-5.2,0-10.4,0-15.7c0-3.2,0-6.5,0-9.7
				c0-0.4,0-0.9,0-1.3c-0.4,0.8-0.9,1.5-1.3,2.3c3.3-2.4,6.6-4.9,9.9-7.3c2.2-1.6,4.3-3.2,6.5-4.8c4.1-3,8.2-6,12.3-9
				c4.7-3.5,9.5-7,14.3-10.5c2.6-1.9,5.4-3.8,7.9-5.8c0,0,0.1,0,0.1-0.1c-0.9,0-1.8,0-2.7,0c2.2,1.6,4.4,3.2,6.6,4.9
				c4.7,3.4,9.4,6.9,14.1,10.3c4.3,3.2,8.6,6.4,12.9,9.5c1.7,1.3,3.4,2.5,5.1,3.7c4,3,8,5.9,12.1,8.9c0.1,0.1,0.2,0.2,0.3,0.2
				c1.1,0.9,3,0.2,3.7-1c0.7-1.4,0.2-2.8-1-3.7c-3.7-2.7-7.4-5.5-11.2-8.2c-1.7-1.3-3.5-2.6-5.2-3.9c-4.1-3-8.2-6-12.3-9
				c-4.8-3.5-9.6-7-14.4-10.6c-2.6-1.9-5.2-4-8-5.9c0,0-0.1,0-0.1-0.1c-0.7-0.5-2-0.5-2.7,0c-3.2,2.4-6.4,4.7-9.6,7
				c-5.9,4.4-11.9,8.7-17.8,13.1c-3.3,2.5-6.7,5-10.1,7.4c-4.2,3.1-8.4,6.2-12.5,9.2c-0.3,0.2-0.6,0.5-1,0.7
				c-0.9,0.6-1.3,1.3-1.3,2.4c0,0.3,0,0.6,0,1c0,1.6,0,3.2,0,4.9c0,6,0,12.1,0,18.1c0,7.5,0,15.1,0,22.6c0,6.5,0,12.9,0,19.4
				c0,2.8-0.1,5.6,0,8.3c0.1,3.4,2.8,6.2,6.2,6.2c0.2,0,0.4,0,0.5,0c1.2,0,2.4,0,3.5,0c4.9,0,9.9,0,14.8,0c7.1,0,14.2,0,21.3,0
				c7.5,0,15.1,0,22.7,0c6.5,0,13,0,19.5,0c3.8,0,7.6,0,11.5,0c1.6,0,3.1,0,4.5-0.9c1.9-1.2,3-3.2,3-5.4c0-0.4,0-0.7,0-1
				c0-4.4,0-8.8,0-13.1c0-7.1,0-14.2,0-21.4c0-7.3,0-14.6,0-21.9c0-4.9,0-9.7,0-14.6c0-0.7,0-1.4,0-2c0-1.4-1.3-2.8-2.7-2.7
				C166.2,97.2,165,98.3,165,99.8z"/>
		</g>
	</g>
	<g>
		<g>
			<path d="M166.3,102.1c2.9,2.2,5.8,4.3,8.6,6.4c0.4,0.3,0.9,0.6,1.3,0.9c1.1,0.9,3,0.2,3.7-1c0.7-1.4,0.2-2.8-1-3.7
				c-2.9-2.2-5.8-4.3-8.6-6.4c-0.4-0.3-0.9-0.6-1.3-0.9c-1.1-0.9-3-0.2-3.7,1C164.6,99.8,165.1,101.2,166.3,102.1L166.3,102.1z"/>
		</g>
	</g>
	<g>
		<g>
			<path d="M56.9,109.5c4.3-3.2,8.7-6.4,13-9.6c1.3-0.9,2.6-1.9,3.9-2.8c1.1-0.9,1.8-2.4,1-3.7c-0.7-1.1-2.5-1.9-3.7-1
				c-4.6,3.4-9.2,6.8-13.8,10.1c-1,0.8-2.1,1.5-3.1,2.3c-1.1,0.9-1.8,2.4-1,3.7C53.9,109.6,55.7,110.4,56.9,109.5L56.9,109.5z"/>
		</g>
	</g>
	<g>
		<g>
			<path d="M130,128.5c0,1.6,0,3.2,0,4.9c0,3.9,0,7.8,0,11.7c0,4.7,0,9.5,0,14.2c0,4.1,0,8.2,0,12.3c0,2-0.1,4,0,6c0,0,0,0,0,0.1
				c0.9-0.9,1.8-1.8,2.7-2.7c-3.6,0-7.3,0-10.9,0c-5.8,0-11.6,0-17.4,0c-1.3,0-2.7,0-4,0c0.9,0.9,1.8,1.8,2.7,2.7
				c0-3.8,0-7.6,0-11.4c0-7.4,0-14.8,0-22.2c0-5,0-9.9,0-14.9c0-0.2,0-0.3,0-0.4c0,0,0,0,0-0.1c0,0,0-0.3,0-0.2c0-0.4,0.1,0.2,0,0.2
				c0,0,0.1-0.5,0.2-0.5c0.1-0.5-0.3,0.4,0,0c0,0,0.2-0.4,0.3-0.4c0.1,0.1-0.4,0.4-0.1,0.2l0.4-0.4c0.1,0.1-0.6,0.3,0,0.1l0.4-0.2
				c-0.1,0-0.2,0.1-0.3,0.2c0.1,0,0.2-0.1,0.3-0.1l0.4-0.1c-0.4,0-0.5,0-0.2,0c0.1,0,0.1,0,0.2,0c0.2,0,0.3,0,0.4,0c2.7,0,5.3,0,8,0
				c3.7,0,7.4,0,11.1,0c1.2,0,2.4,0,3.7,0c0.3,0,0.6,0,0.9,0c0,0,0.1,0,0.2,0c0,0,0,0,0.1,0c0.6,0-0.1,0-0.1,0s0.5,0.1,0.5,0.2
				c0.5,0.1-0.4-0.3,0,0c0,0,0.4,0.2,0.4,0.3c0,0-0.5-0.5-0.2-0.1l0.4,0.4c0,0-0.4-0.6-0.1-0.2c0,0,0.3,0.4,0.2,0.4
				s-0.2-0.6-0.1-0.2l0.2,0.5c0-0.1,0-0.2,0-0.4C130,128.2,130,128.4,130,128.5c0,1.4,1.2,2.8,2.7,2.7c1.4-0.1,2.7-1.2,2.7-2.7
				c-0.1-3.7-3-6.7-6.7-6.7c-0.6,0-1.3,0-1.9,0c-3.4,0-6.8,0-10.1,0c-3.4,0-6.8,0-10.2,0c-0.6,0-1.3,0-2,0c-3.6,0.1-6.5,2.8-6.7,6.4
				c-0.1,1.2,0,2.4,0,3.6c0,2.8,0,5.7,0,8.5c0,7.6,0,15.2,0,22.7c0,4.8-0.1,9.6,0,14.3c0,0.1,0,0.2,0,0.2c0,1.5,1.3,2.7,2.7,2.7
				c3.6,0,7.3,0,10.9,0c5.8,0,11.6,0,17.4,0c1.3,0,2.7,0,4,0c1.5,0,2.7-1.3,2.7-2.7c0-1.6,0-3.2,0-4.9c0-3.9,0-7.8,0-11.7
				c0-4.7,0-9.5,0-14.2c0-4.1,0-8.2,0-12.3c0-2,0-4,0-6c0,0,0,0,0-0.1c0-1.4-1.3-2.8-2.7-2.7C131.3,125.9,130,127,130,128.5z"/>
		</g>
	</g>
</g>
</svg>
