<?xml version="1.0" encoding="utf-8"?>
<!-- Generator: Adobe Illustrator 21.0.2, SVG Export Plug-In . SVG Version: 6.00 Build 0)  -->
<svg version="1.1" id="Camada_1" xmlns="http://www.w3.org/2000/svg" xmlns:xlink="http://www.w3.org/1999/xlink" x="0px" y="0px"
	 viewBox="0 0 233 239.5" style="enable-background:new 0 0 233 239.5;" xml:space="preserve">
<style type="text/css">
	.st0{fill:#E2352A;}
	.st1{fill:#FFFFFF;}
</style>
<circle class="st0" cx="116.5" cy="119.8" r="112"/>
<g>
	<path class="st1" d="M128,150l22.1-35.6c0.1-0.1,0.1-0.2,0.2-0.4c11.5-18.6,5.6-43-13.1-54.4s-43-5.6-54.4,13
		c-7.8,12.7-7.8,28.7,0,41.4c0.1,0.1,0.1,0.2,0.2,0.3l21.3,35.8c-16.6,2.3-27.4,9.3-27.4,17.4c0,10.3,17.4,18.2,39.6,18.2
		s39.6-8,39.6-18.3C156.1,159.2,144.7,152.3,128,150z M86.8,112c-10.4-16.4-5.4-38.1,11-48.5s38.1-5.4,48.5,11
		c7.2,11.5,7.2,26,0,37.6c-0.1,0.1-0.1,0.2-0.2,0.4L122.7,150l-0.9,1.4l-5.9,9.5l-29-48.4C86.9,112.3,86.9,112.2,86.8,112z
		 M116.4,181.4c-20.8,0-35.2-7.3-35.2-13.8c0-6,11-11.6,25.5-13.2l7.2,12c0.4,0.7,1.1,1.1,1.9,1.1l0,0c0.8,0,1.5-0.4,1.9-1l7.5-12.3
		c14.9,1.6,26.4,7.3,26.4,13.3C151.7,174.1,137.2,181.4,116.4,181.4z"/>
	<path class="st1" d="M130.9,93.4c0-7.9-6.4-14.4-14.4-14.4s-14.4,6.4-14.4,14.4s6.4,14.4,14.4,14.4h0.1
		C124.4,107.8,130.8,101.3,130.9,93.4z M106.5,93.4c0-5.5,4.4-10,9.9-10c5.5,0,10,4.4,10,9.9c0,5.5-4.4,10-9.9,10l0,0
		C111,103.3,106.5,98.9,106.5,93.4z"/>
</g>
</svg>
