<?xml version="1.0" encoding="utf-8"?>
<!-- Generator: Adobe Illustrator 21.0.2, SVG Export Plug-In . SVG Version: 6.00 Build 0)  -->
<svg version="1.1" id="Camada_1" xmlns="http://www.w3.org/2000/svg" xmlns:xlink="http://www.w3.org/1999/xlink" x="0px" y="0px"
	 viewBox="0 0 164 257" style="enable-background:new 0 0 164 257;" xml:space="preserve">
<title>Artboard 19</title>
<path d="M104.1,182.9l40.8-65.6c0.1-0.2,0.2-0.4,0.3-0.7c21.1-34.3,10.3-79.3-24.1-100.3S41.9,6,20.9,40.3
	c-14.3,23.4-14.3,52.9,0,76.3c0.1,0.2,0.2,0.4,0.3,0.6l39.3,65.9C30,187.4,10,200.2,10,215.2c0,18.9,32,33.6,72.9,33.6
	s72.9-14.8,72.9-33.7C155.9,199.9,135,187.1,104.1,182.9z M28.2,112.9c-19.1-30.3-10-70.3,20.3-89.4s70.3-10,89.4,20.3
	c13.3,21.1,13.3,48,0,69.2c-0.1,0.2-0.2,0.4-0.3,0.7L94.4,183l-1.6,2.5L82,203l-53.4-89.2C28.5,113.5,28.4,113.2,28.2,112.9z
	 M82.9,240.7c-38.3,0-64.8-13.5-64.8-25.5c0-11,20.3-21.3,47-24.3l13.3,22.2c0.7,1.2,2.1,2,3.5,2l0,0c1.4,0,2.7-0.7,3.5-1.9
	l13.8-22.6c27.4,3,48.6,13.5,48.6,24.6C147.8,227.3,121.2,240.7,82.9,240.7z"/>
<path d="M109.5,78.6C109.5,64,97.7,52,83,52c-14.7,0-26.6,11.8-26.6,26.5c0,14.7,11.8,26.6,26.5,26.6c0,0,0.1,0,0.1,0
	C97.6,105.1,109.4,93.2,109.5,78.6z M64.6,78.6c0-10.1,8.2-18.4,18.3-18.4c10.1,0,18.4,8.2,18.4,18.3c0,10.1-8.2,18.4-18.3,18.4
	c0,0,0,0,0,0C72.8,96.9,64.6,88.7,64.6,78.6z"/>
</svg>
