<?xml version="1.0" encoding="utf-8"?>
<!-- Generator: Adobe Illustrator 23.1.0, SVG Export Plug-In . SVG Version: 6.00 Build 0)  -->
<svg version="1.1"
	 id="Layer_1" xmlns:cc="http://creativecommons.org/ns#" xmlns:dc="http://purl.org/dc/elements/1.1/" xmlns:inkscape="http://www.inkscape.org/namespaces/inkscape" xmlns:rdf="http://www.w3.org/1999/02/22-rdf-syntax-ns#" xmlns:sodipodi="http://sodipodi.sourceforge.net/DTD/sodipodi-0.dtd" xmlns:svg="http://www.w3.org/2000/svg"
	 xmlns="http://www.w3.org/2000/svg" xmlns:xlink="http://www.w3.org/1999/xlink" x="0px" y="0px" viewBox="0 0 132 131"
	 style="enable-background:new 0 0 132 131;" xml:space="preserve">
<style type="text/css">
	.st0{fill-rule:evenodd;clip-rule:evenodd;}
</style>
<g transform="translate(0,-288.53332)">
	<path class="st0" d="M102.3,351.5l-5.7,5.7l1.3,2.5c1.6,2.9,2.4,6.2,2.4,9.5v20.7h7.1v-23.6c0-3.3-0.8-6.5-2.3-9.4L102.3,351.5z"/>
	<path class="st0" d="M58.2,333.5l11.1-11.1c3.3-3.3,8.8-3.3,12.1,0l19.2,19.2c2.2,2.2,2.2,5.8,0,8.1l-7.1,7.1l-12.1-12.1
		c-1.7-1.7-4.4-1.7-6.1,0l-7.1,7.1l-10.1-10.1C55.9,339.3,55.9,335.7,58.2,333.5L58.2,333.5z"/>
	<path class="st0" d="M72.3,351.5l-2,2l1.4,1.4c4.1,4.1,10.9,4.1,15,0l0.7-0.7l-2-2l-0.7,0.7c-3,3-7.9,3-11,0L72.3,351.5z"/>
	<path class="st0" d="M77.1,342.4c-0.3,0.3-0.4,0.6-0.4,1l0,7.1c0,0.8,0.6,1.4,1.4,1.4c0.8,0,1.4-0.6,1.4-1.4c0,0,0,0,0,0l0-7.1
		c0-0.8-0.6-1.4-1.4-1.4C77.8,341.9,77.4,342.1,77.1,342.4L77.1,342.4z"/>
	<path class="st0" d="M46,314.1c-1.1,0-2.3,0.1-3.4,0.3l-10.9,1.7l2.1,7.1l7.6-1.1c4.3-0.7,8.8,0.1,12.6,2.3l6.2,3.4l6.1-6.1
		l-10.6-5.3C52.8,314.9,49.4,314.1,46,314.1L46,314.1z"/>
	<path d="M38.4,358.4c0,3.8-3.1,7-6.9,7c-3.8,0-6.9-3.1-6.9-7c0-3.8,6.9-11.9,6.9-11.9S38.4,354.5,38.4,358.4z"/>
</g>
</svg>
