<?xml version="1.0" encoding="utf-8"?>
<!-- Generator: Adobe Illustrator 23.1.0, SVG Export Plug-In . SVG Version: 6.00 Build 0)  -->
<svg version="1.1"
	 id="Layer_1" xmlns:cc="http://creativecommons.org/ns#" xmlns:dc="http://purl.org/dc/elements/1.1/" xmlns:inkscape="http://www.inkscape.org/namespaces/inkscape" xmlns:rdf="http://www.w3.org/1999/02/22-rdf-syntax-ns#" xmlns:sodipodi="http://sodipodi.sourceforge.net/DTD/sodipodi-0.dtd" xmlns:svg="http://www.w3.org/2000/svg"
	 xmlns="http://www.w3.org/2000/svg" xmlns:xlink="http://www.w3.org/1999/xlink" x="0px" y="0px" viewBox="0 0 100 125"
	 style="enable-background:new 0 0 100 125;" xml:space="preserve">
<path d="M6.4,7.4C2.9,7.4,0,10.2,0,13.8v51.1c0,3.5,2.9,6.4,6.4,6.4h65.9c3.5,0,6.4-2.9,6.4-6.4V13.8c0-3.5-2.9-6.4-6.4-6.4
	C72.3,7.4,6.4,7.4,6.4,7.4z M6.4,12.4h65.9c0.8,0,1.4,0.6,1.4,1.4v8.3H5v-8.3C5,13,5.6,12.4,6.4,12.4z M11.8,14.8
	c-0.7,0-1.3,0.2-1.8,0.7c-0.5,0.5-0.7,1.1-0.7,1.8c0,0.7,0.3,1.3,0.7,1.8c0.5,0.5,1.1,0.7,1.8,0.7c0.7,0,1.3-0.3,1.8-0.7
	c0.5-0.5,0.7-1.1,0.7-1.8c0-0.7-0.3-1.3-0.7-1.8C13.1,15,12.5,14.8,11.8,14.8z M19.2,14.8c-0.7,0-1.3,0.2-1.8,0.7
	c-0.5,0.5-0.7,1.1-0.7,1.8c0,0.7,0.3,1.3,0.7,1.8c0.4,0.5,1.1,0.7,1.8,0.7c0.7,0,1.3-0.3,1.8-0.7c0.5-0.5,0.7-1.1,0.7-1.8
	c0-0.7-0.3-1.3-0.7-1.8C20.5,15,19.9,14.8,19.2,14.8z M26.6,14.8c-0.6,0-1.3,0.2-1.8,0.7c-0.5,0.5-0.7,1.1-0.7,1.8
	c0,0.7,0.3,1.3,0.7,1.8c0.5,0.5,1.1,0.7,1.8,0.7s1.3-0.3,1.8-0.7c0.5-0.5,0.7-1.1,0.7-1.8c0-0.7-0.3-1.3-0.7-1.8
	C27.9,15,27.2,14.8,26.6,14.8z M87,22.1c-1.4,0-2.5,1.1-2.5,2.5v51.1c0,0.8-0.6,1.4-1.4,1.4H17.2c-1.4,0-2.5,1.1-2.5,2.5
	c0,1.4,1.1,2.5,2.5,2.5h65.9c3.5,0,6.4-2.9,6.4-6.4V24.6C89.5,23.2,88.4,22.1,87,22.1z M5,27.1h68.7v37.8c0,0.8-0.7,1.4-1.4,1.4H6.4
	c-0.8,0-1.4-0.6-1.4-1.4C5,64.9,5,27.1,5,27.1z M97.5,32.6c-1.4,0-2.5,1.1-2.5,2.5v51.1c0,0.8-0.6,1.4-1.4,1.4H27.7
	c-1.4,0-2.5,1.1-2.5,2.5c0,1.4,1.1,2.5,2.5,2.5h65.9c3.5,0,6.4-2.9,6.4-6.4V35.1C100,33.7,98.9,32.6,97.5,32.6z"/>
</svg>
