<?xml version="1.0" encoding="utf-8"?>
<!-- Generator: Adobe Illustrator 23.1.0, SVG Export Plug-In . SVG Version: 6.00 Build 0)  -->
<svg version="1.1" id="Layer_1" xmlns="http://www.w3.org/2000/svg" xmlns:xlink="http://www.w3.org/1999/xlink" x="0px" y="0px"
	 viewBox="0 0 123 100" style="enable-background:new 0 0 123 100;" xml:space="preserve">
<title>Padlock, unlock, website</title>
<desc>Created with Sketch.</desc>
<g>
	<path d="M63.8,63.5v4.1c0,1.8-1.4,3.2-3.2,3.2c-1.8,0-3.2-1.4-3.2-3.2v-4.1c-1.9-1.1-3.2-3.2-3.2-5.6c0-3.6,2.9-6.5,6.5-6.5
		c3.6,0,6.5,2.9,6.5,6.5C67,60.3,65.7,62.4,63.8,63.5z M47.6,35.3h32.3c8.9,0,16.2,7.2,16.2,16.2v19.4c0,8.9-7.2,16.2-16.2,16.2
		H41.2C32.2,87,25,79.8,25,70.8V51.5c0-8.9,7.2-16.2,16.2-16.2V22.4C41.2,11.7,49.8,3,60.5,3s19.4,8.7,19.4,19.4
		c0,1.8-1.4,3.2-3.2,3.2s-3.2-1.4-3.2-3.2c0-7.1-5.8-12.9-12.9-12.9c-7.1,0-12.9,5.8-12.9,12.9V35.3z M41.2,41.8
		c-5.4,0-9.7,4.3-9.7,9.7v19.4c0,5.4,4.3,9.7,9.7,9.7h38.8c5.4,0,9.7-4.3,9.7-9.7V51.5c0-5.4-4.3-9.7-9.7-9.7H41.2z"/>
</g>
</svg>
